<?xml version="1.0" standalone="no"?>
<!DOCTYPE svg PUBLIC "-//W3C//DTD SVG 1.1//EN" "http://www.w3.org/Graphics/SVG/1.1/DTD/svg11.dtd" >
<svg xmlns="http://www.w3.org/2000/svg">
<metadata></metadata>
<defs>
<font id="kanitregular" horiz-adv-x="0" >
<font-face units-per-em="2048" ascent="1536" descent="-512" />
<missing-glyph horiz-adv-x="757" />
<glyph unicode="fi" horiz-adv-x="1085" d="M47 797v174h141v100q0 98 48.5 176t135.5 122t203 44q154 0 240 -35v-166q-27 12 -76 18.5t-98 6.5q-119 0 -175 -41t-56 -129v-96h546v-971h-223v797h-323v-797h-222v797h-141z" />
<glyph unicode="fl" horiz-adv-x="1085" d="M47 797v174h141v104q0 150 100.5 244t268.5 94q121 0 215 -31h184v-1382h-223v797h-323v-797h-222v797h-141zM410 971h323v252q-55 18 -127 18q-197 0 -196 -172v-98z" />
<glyph unicode="&#xe24;&#xe45;" horiz-adv-x="1804" d="M88 709v229q92 82 228.5 135t301.5 53q197 0 314 -61q63 27 150 44t171 17q222 0 321 -96t99 -305v-1053h-223v1024q0 90 -18.5 142.5t-70.5 80t-151 27.5q-74 0 -139 -14q53 -96 53 -246v-1014h-223v1020q0 141 -65.5 197.5t-225.5 56.5q-100 0 -189 -28.5t-140 -75.5 v-37l233 -60v-147q-80 -20 -112.5 -65.5t-32.5 -135.5v-133q0 -47 20.5 -67.5t65.5 -20.5h112v-176h-221q-92 0 -145.5 57.5t-53.5 149.5v192q0 205 162 254z" />
<glyph unicode="&#xe26;&#xe45;" horiz-adv-x="1882" d="M98 0v176h76q43 0 60.5 19.5t17.5 66.5v137q0 98 30.5 161t114.5 93l-225 56v229q90 80 226.5 134t301.5 54q188 0 308 -63v2q63 27 151 44t172 17q221 0 320.5 -96t99.5 -305v-1053h-223v1024q0 90 -18.5 142.5t-71 80t-150.5 27.5q-57 0 -147 -14q53 -100 53 -246 v-1014h-221v1020q0 139 -63.5 196.5t-215.5 57.5q-102 0 -191 -28.5t-138 -75.5v-37l239 -60v-147q-76 -23 -101.5 -64.5t-25.5 -136.5v-147q0 -250 -241 -250h-138z" />
<glyph unicode=" "  horiz-adv-x="757" />
<glyph unicode="&#x09;" horiz-adv-x="757" />
<glyph unicode="&#xa0;" horiz-adv-x="757" />
<glyph unicode="!" horiz-adv-x="415" d="M88 0v168h238v-168h-238zM96 989v330h223v-330l-12 -659h-198z" />
<glyph unicode="&#x22;" horiz-adv-x="698" d="M88 932v387h193l-27 -387h-166zM416 932v387h192l-26 -387h-166z" />
<glyph unicode="#" horiz-adv-x="1437" d="M88 352v150h219l99 313h-224v152h271l110 352h193l-111 -352h346l111 352h194l-110 -352h164v-152h-213l-99 -313h217v-150h-264l-110 -352h-193l111 352h-348l-111 -352h-190l110 352h-172zM498 502h348l98 313h-348z" />
<glyph unicode="$" horiz-adv-x="1136" d="M88 969q0 156 102.5 250t298.5 114v162h168v-158q92 -4 174 -18t138 -33v-196q-143 53 -312 59v-406q219 -59 305.5 -152t86.5 -239q0 -154 -99.5 -248t-292.5 -116v-164h-168v156q-238 6 -372 65v197q182 -72 372 -74v422q-8 0 -16 4q-213 55 -299 140t-86 235zM313 969 q0 -70 38 -108t138 -70v348q-88 -16 -132 -56.5t-44 -113.5zM657 178q84 15 125 55.5t41 118.5q0 72 -36.5 113t-129.5 76v-363z" />
<glyph unicode="%" horiz-adv-x="1488" d="M88 1024q0 150 74 232.5t217 82.5q141 0 215 -82.5t74 -232.5q0 -131 -75 -209t-214 -78q-141 0 -216 78t-75 209zM229 1028q0 -156 150 -156q149 0 149 156q0 90 -35.5 132t-113.5 42t-114 -42t-36 -132zM289 0l698 1319h209l-698 -1319h-209zM821 266q0 150 74 233 t217 83q141 0 215 -83t74 -233q0 -131 -75 -208.5t-214 -77.5q-141 0 -216 77.5t-75 208.5zM963 270q0 -156 149 -155q150 -1 150 155q0 90 -36 132t-114 42t-113.5 -42t-35.5 -132z" />
<glyph unicode="&#x26;" horiz-adv-x="1368" d="M88 322q0 133 78 229t231 180q-90 80 -133 148.5t-43 156.5q0 133 93.5 218t252.5 85q158 0 250 -82.5t92 -220.5q0 -104 -50 -180t-165 -151l303 -310q33 70 33 164v35h170v-39q0 -78 -20.5 -152.5t-55.5 -130.5l166 -168l-135 -122l-147 147q-143 -150 -449 -149 q-215 0 -343 93t-128 249zM303 326q0 -92 70.5 -141.5t185.5 -49.5q204 0 313 117l-342 346q-117 -49 -172 -113.5t-55 -158.5zM401 1026q0 -61 36 -110.5t118 -114.5q98 63 136 107t38 118q0 156 -162 156q-84 0 -125 -43t-41 -113z" />
<glyph unicode="'" horiz-adv-x="370" d="M88 932v387h193l-27 -387h-166z" />
<glyph unicode="(" horiz-adv-x="665" d="M88 621q0 231 66.5 436t210.5 332h251q-303 -262 -303 -768t303 -768h-251q-144 124 -210.5 330t-66.5 438z" />
<glyph unicode=")" horiz-adv-x="665" d="M47 -147q160 137 231.5 329.5t71.5 438.5q0 508 -303 768h254q141 -127 207.5 -333t66.5 -435q0 -231 -66.5 -437.5t-207.5 -330.5h-254z" />
<glyph unicode="*" horiz-adv-x="884" d="M88 1055l70 139l209 -102l-11 227h172l-10 -227l209 102l68 -139l-238 -99l182 -198l-131 -96l-166 219l-168 -219l-131 96l183 198z" />
<glyph unicode="+" horiz-adv-x="968" d="M94 465v174h301v299h178v-299h301v-174h-301v-289h-178v289h-301z" />
<glyph unicode="," horiz-adv-x="432" d="M88 -246l62 387h194l-94 -387h-162z" />
<glyph unicode="-" horiz-adv-x="958" d="M88 465v174h782v-174h-782z" />
<glyph unicode="." horiz-adv-x="366" d="M88 0v174h188v-174h-188z" />
<glyph unicode="/" horiz-adv-x="882" d="M88 0l479 1356h228l-480 -1356h-227z" />
<glyph unicode="0" horiz-adv-x="1333" d="M88 643q0 344 135 520t445 176q307 0 442 -176t135 -520q0 -332 -138 -506t-439 -174q-303 0 -441.5 174t-138.5 506zM313 643q0 -242 82 -365.5t273 -123.5q188 0 270 124.5t82 364.5q0 256 -80 381t-272 125q-195 0 -275 -125t-80 -381z" />
<glyph unicode="1" horiz-adv-x="653" d="M88 1085v187l434 67v-1339h-221v1122z" />
<glyph unicode="2" horiz-adv-x="1042" d="M88 0v111q49 113 135 210t217 209q125 109 178.5 163.5t76 107.5t22.5 131q0 109 -63.5 163t-202.5 54q-150 0 -314 -62v197q74 25 171.5 40t185.5 15q217 0 331.5 -107.5t114.5 -297.5q0 -129 -62.5 -223.5t-193.5 -212.5l-35 -31q-115 -100 -175 -160.5t-101 -134.5 h581v-172h-866z" />
<glyph unicode="3" horiz-adv-x="1062" d="M88 39v194q154 -63 344 -63q164 0 240 48t76 165q0 201 -273 201h-199l19 166h166q260 0 260 204q0 100 -69.5 147.5t-219.5 47.5q-82 0 -167 -16.5t-152 -45.5v191q66 27 164 44t190 17q233 0 355 -99t122 -265q0 -104 -50 -188.5t-149 -118.5q115 -31 171.5 -109 t56.5 -190q0 -193 -136.5 -291t-373.5 -98q-92 0 -201.5 17t-173.5 42z" />
<glyph unicode="4" horiz-adv-x="1112" d="M47 289v157l686 873h195v-850h135v-180h-135v-289h-221v289h-660zM264 463h477v602z" />
<glyph unicode="5" horiz-adv-x="1054" d="M88 629v135l35 555h749l-18 -172h-543l-22 -346h223q233 0 343 -99.5t110 -302.5q0 -199 -129 -309t-375 -110q-96 0 -198.5 15t-168.5 44v194q70 -31 161 -47t177 -16q160 0 233.5 55.5t73.5 177.5q0 119 -56 172.5t-206 53.5h-389z" />
<glyph unicode="6" horiz-adv-x="1173" d="M88 489v297q0 164 68.5 289t194.5 194.5t294 69.5q182 0 313 -47v-190q-129 47 -299 47q-180 0 -270 -85t-90 -235v-81q70 49 161 76.5t173 27.5q227 0 339.5 -110.5t112.5 -321.5q0 -205 -124.5 -322.5t-372.5 -117.5q-250 0 -375 123.5t-125 385.5zM299 438 q0 -291 291 -291q145 0 220 70t75 195q0 135 -63.5 201.5t-221.5 66.5q-80 0 -159 -26.5t-142 -73.5v-142z" />
<glyph unicode="7" horiz-adv-x="1019" d="M68 1147v172h882v-143l-497 -1176h-228l486 1147h-643z" />
<glyph unicode="8" horiz-adv-x="1208" d="M88 356q0 115 61.5 202t172.5 124q-98 37 -147.5 111.5t-49.5 169.5q0 176 121 276t358 100q242 0 360.5 -99t118.5 -277q0 -100 -49 -179t-157 -120q125 -37 183 -113t58 -195q0 -186 -129 -281t-385 -95t-386 95t-130 281zM295 365q0 -109 77 -160t232 -51 q156 0 231.5 50t75.5 156q0 92 -51 137.5t-170 69.5l-168 35q-113 -25 -170 -79t-57 -158zM332 958q0 -80 46 -130t136 -66l145 -29q115 29 166.5 79t51.5 146q0 205 -273 205q-272 0 -272 -205z" />
<glyph unicode="9" horiz-adv-x="1173" d="M88 899q0 203 125 321.5t373 118.5q250 0 374.5 -124.5t124.5 -385.5v-297q0 -164 -68.5 -288.5t-194.5 -194t-294 -69.5q-178 0 -313 45v192q125 -49 299 -49q180 0 270 85t90 236v82q-70 -49 -160.5 -76.5t-172.5 -27.5q-227 0 -340 110.5t-113 321.5zM289 905 q0 -133 63.5 -200.5t220.5 -67.5q80 0 158 27.5t143 72.5v144q0 289 -290 288q-145 0 -220 -69.5t-75 -194.5z" />
<glyph unicode=":" horiz-adv-x="366" d="M88 51v176h188v-176h-188zM88 668v176h188v-176h-188z" />
<glyph unicode=";" horiz-adv-x="434" d="M88 -229l62 387h194l-94 -387h-162zM156 668v176h186v-176h-186z" />
<glyph unicode="&#x3c;" horiz-adv-x="1114" d="M88 522v183l938 425v-206l-702 -310l702 -311v-209z" />
<glyph unicode="=" horiz-adv-x="968" d="M88 315v160h791v-160h-791zM88 631v157h791v-157h-791z" />
<glyph unicode="&#x3e;" horiz-adv-x="1114" d="M88 94v209l705 311l-705 310v206l938 -425v-183z" />
<glyph unicode="?" horiz-adv-x="1013" d="M88 1075v189q72 35 171 55t210 20q221 0 338 -98t117 -276q0 -106 -47.5 -175t-151.5 -155q-14 -12 -75.5 -62.5t-86 -98.5t-24.5 -107v-35h-224v45q0 76 32 135t75 99t121 104q78 63 116.5 114.5t38.5 118.5q0 109 -64.5 155t-221.5 46q-82 0 -169 -20.5t-155 -53.5z M307 0v168h238v-168h-238z" />
<glyph unicode="@" horiz-adv-x="1564" d="M88 385q0 350 190.5 520t542.5 170q317 0 485.5 -144.5t168.5 -412.5q0 -203 -94.5 -315.5t-284.5 -112.5h-64q-113 -109 -309 -108q-129 0 -208 63.5t-79 179.5q0 119 74 188.5t231 69.5h246v45q0 63 -17.5 98.5t-62.5 50.5t-129 15q-129 0 -248 -41v115q104 45 285 45 q164 0 241 -69.5t77 -221.5v-301q92 0 134 70.5t42 222.5q0 211 -119 313.5t-369 102.5q-287 0 -426 -129t-139 -416q0 -274 141.5 -391t397.5 -117q225 0 354 39v-147q-156 -37 -350 -37q-328 0 -519.5 156.5t-191.5 498.5zM592 225q0 -70 41 -99.5t127 -29.5 q78 0 133 23.5t94 75.5v178h-215q-100 0 -140 -37t-40 -111z" />
<glyph unicode="A" horiz-adv-x="1433" d="M90 0l504 1319h250l499 -1319h-229l-131 340h-530l-131 -340h-232zM487 512h459l-229 604z" />
<glyph unicode="B" horiz-adv-x="1292" d="M129 0v1319h639q193 0 289 -91t96 -261q0 -104 -42 -177t-116 -112q100 -29 154.5 -99.5t54.5 -197.5q0 -190 -103.5 -285.5t-303.5 -95.5h-668zM352 164h398q121 0 175 51t54 174q0 104 -56.5 153.5t-195.5 49.5h-375v-428zM352 756h385q209 0 209 192q0 106 -51 154.5 t-182 48.5h-361v-395z" />
<glyph unicode="C" horiz-adv-x="1222" d="M88 639q0 334 164 517t493 183q207 0 388 -63v-195q-174 68 -371 68q-240 0 -344.5 -127t-104.5 -383q0 -233 112 -352t341 -119q203 0 369 63v-196q-176 -55 -387 -55q-320 0 -490 175t-170 484z" />
<glyph unicode="D" horiz-adv-x="1329" d="M129 0v1319h535q297 0 436 -157.5t139 -510.5q0 -338 -139 -494.5t-436 -156.5h-535zM352 172h277q137 0 220 40t125 144.5t42 294.5q0 193 -39 299.5t-122 150.5t-226 44h-277v-973z" />
<glyph unicode="E" horiz-adv-x="1126" d="M129 0v1319h920v-174h-697v-400h621v-172h-621v-401h697v-172h-920z" />
<glyph unicode="F" horiz-adv-x="1073" d="M129 0v1319h897v-174h-674v-400h598v-172h-598v-573h-223z" />
<glyph unicode="G" horiz-adv-x="1312" d="M88 633q0 334 166 520t496 186q219 0 391 -59v-193q-170 61 -373 62q-244 0 -349.5 -128t-105.5 -388q0 -465 437 -465q176 0 284 41v369h-329v145h520v-635q-74 -47 -194 -77.5t-288 -30.5q-319 0 -487 173t-168 480z" />
<glyph unicode="H" horiz-adv-x="1339" d="M129 0v1319h223v-574h635v574h223v-1319h-223v573h-635v-573h-223z" />
<glyph unicode="I" horiz-adv-x="481" d="M129 0v1319h223v-1319h-223z" />
<glyph unicode="J" horiz-adv-x="882" d="M47 27v188q49 -23 115.5 -35t132.5 -12q135 0 190.5 55.5t55.5 182.5v913h223v-950q0 -190 -108.5 -289.5t-321.5 -99.5q-168 0 -287 47z" />
<glyph unicode="K" horiz-adv-x="1280" d="M129 0v1319h223v-606l561 606h258l-485 -533l506 -786h-238l-407 645l-195 -209v-436h-223z" />
<glyph unicode="L" horiz-adv-x="1075" d="M129 0v1319h223v-1147h676v-172h-899z" />
<glyph unicode="M" horiz-adv-x="1550" d="M129 0v1319h229l418 -854l416 854h229v-1319h-221v956l-356 -729h-135l-359 729v-956h-221z" />
<glyph unicode="N" horiz-adv-x="1366" d="M129 0v1319h197l688 -971v971h221v-1319h-197l-686 969v-969h-223z" />
<glyph unicode="O" horiz-adv-x="1427" d="M88 655q0 356 153.5 520t471.5 164q317 0 470.5 -163.5t153.5 -520.5q0 -346 -154.5 -510.5t-469.5 -164.5q-316 0 -470.5 164.5t-154.5 510.5zM313 655q0 -256 96.5 -371.5t303.5 -115.5q209 0 305 114.5t96 372.5q0 268 -95 381t-306 113q-209 0 -304.5 -112.5 t-95.5 -381.5z" />
<glyph unicode="P" horiz-adv-x="1208" d="M129 0v1319h588q219 0 330.5 -121t111.5 -319q0 -197 -122 -316t-328 -119h-357v-444h-223zM352 621h316q129 0 198.5 68.5t69.5 189.5q0 127 -65.5 196.5t-192.5 69.5h-326v-524z" />
<glyph unicode="Q" horiz-adv-x="1427" d="M88 655q0 356 153.5 520t471.5 164q317 0 470.5 -163.5t153.5 -520.5q0 -322 -133 -485.5t-405 -185.5q2 -94 35.5 -130t115.5 -36q74 0 146 20v-166q-35 -10 -88.5 -17t-104.5 -7q-297 0 -303 338q-258 29 -385 192.5t-127 476.5zM313 655q0 -256 96.5 -371.5 t303.5 -115.5q209 0 305 114.5t96 372.5q0 268 -95 381t-306 113q-209 0 -304.5 -112.5t-95.5 -381.5z" />
<glyph unicode="R" horiz-adv-x="1249" d="M129 0v1319h606q215 0 319.5 -110.5t104.5 -311.5q0 -141 -70.5 -238.5t-199.5 -136.5q35 -25 55.5 -54.5t42.5 -84.5l166 -383h-229l-162 369q-25 55 -57.5 76.5t-104.5 21.5h-248v-467h-223zM352 647h324q260 0 260 250q0 248 -240 248h-344v-498z" />
<glyph unicode="S" horiz-adv-x="1136" d="M88 969q0 176 129 273t377 97q109 0 210 -15t165 -38v-196q-156 59 -344 59q-156 0 -234 -41t-78 -139q0 -59 29 -95t95.5 -64t199.5 -60q231 -59 321.5 -153.5t90.5 -244.5q0 -176 -132.5 -274t-388.5 -98h-8q-250 0 -403 65v197q190 -74 391 -74q166 0 240.5 39 t74.5 145q0 68 -31.5 108t-103.5 68.5t-215 65.5q-213 55 -299 140t-86 235z" />
<glyph unicode="T" horiz-adv-x="1163" d="M49 1145v174h1065v-174h-420v-1145h-223v1145h-422z" />
<glyph unicode="U" horiz-adv-x="1380" d="M119 489v830h223v-821q0 -164 90 -247t260 -83q168 0 258 83t90 247v821h222v-830q0 -248 -148.5 -378.5t-421.5 -130.5q-274 0 -423.5 131t-149.5 378z" />
<glyph unicode="V" horiz-adv-x="1433" d="M90 1319h232l395 -1079l395 1079h231l-499 -1319h-250z" />
<glyph unicode="W" horiz-adv-x="1779" d="M90 1319h219l223 -989l250 829v160h183l280 -989l228 989h217l-306 -1319h-219l-264 924l-280 -924h-224z" />
<glyph unicode="X" horiz-adv-x="1386" d="M88 0l471 657l-461 662h258l336 -490l336 490h260l-463 -662l471 -657h-262l-342 483l-342 -483h-262z" />
<glyph unicode="Y" horiz-adv-x="1343" d="M88 1319h231l353 -641l352 641h231l-473 -830v-489h-221v489z" />
<glyph unicode="Z" horiz-adv-x="1177" d="M88 0v119l709 1018h-674v182h960v-137l-702 -1010h713v-172h-1006z" />
<glyph unicode="[" horiz-adv-x="718" d="M88 -203v1649h555l6 -174h-338v-1303h340l-8 -172h-555z" />
<glyph unicode="\" horiz-adv-x="923" d="M88 1356h229l517 -1467h-228z" />
<glyph unicode="]" horiz-adv-x="718" d="M68 -31h340v1303h-338l6 174h555v-1649h-555z" />
<glyph unicode="^" horiz-adv-x="974" d="M88 793l313 485h162l322 -485h-207l-191 323l-190 -323h-209z" />
<glyph unicode="_" horiz-adv-x="1107" d="M88 0h930v-158h-930v158z" />
<glyph unicode="`" horiz-adv-x="534" d="M90 1432h197l153 -363h-178z" />
<glyph unicode="a" horiz-adv-x="1120" d="M88 276q0 143 97.5 226.5t291.5 83.5h311v43q0 72 -21.5 111.5t-78.5 58t-164 18.5q-172 0 -321 -51v166q70 27 164 43t198 16q217 0 326.5 -88t109.5 -278v-625h-190l-14 98q-61 -59 -149.5 -88.5t-215.5 -29.5q-147 0 -245.5 76.5t-98.5 219.5zM295 281q0 -74 49 -108 t148 -34q96 0 171.5 33t124.5 92v170h-307q-98 0 -142 -37t-44 -116z" />
<glyph unicode="b" horiz-adv-x="1191" d="M129 0v1380h223v-473q125 84 305 84q215 0 331 -121.5t116 -375.5q0 -258 -116 -386t-326 -128q-105 0 -183 27.5t-145 88.5l-12 -96h-193zM352 250q96 -102 250 -103q148 0 212.5 84t64.5 263q0 178 -67 252.5t-214 74.5q-152 0 -246 -84v-487z" />
<glyph unicode="c" horiz-adv-x="1009" d="M88 485q0 250 141.5 378t388.5 128q98 0 167 -14t135 -45v-166q-106 53 -258 53q-174 0 -261.5 -77.5t-87.5 -256.5q0 -176 81 -255.5t263 -79.5q145 0 265 55v-170q-135 -55 -316 -55q-256 0 -387 129t-131 376z" />
<glyph unicode="d" horiz-adv-x="1191" d="M88 455q0 170 59.5 290.5t164 183t239.5 62.5q86 0 155.5 -20.5t133.5 -63.5v473h223v-1380h-191l-14 96q-68 -61 -145.5 -88.5t-182.5 -27.5q-211 0 -326.5 111.5t-115.5 363.5zM313 453q0 -170 64.5 -238t212.5 -68q150 1 250 103v485q-96 86 -242 86q-141 0 -213 -94 t-72 -274z" />
<glyph unicode="e" horiz-adv-x="1099" d="M88 487q0 240 121 372t358 132q215 0 330 -112.5t115 -300.5v-181h-711q16 -139 100 -193t265 -54q74 0 150.5 14t135.5 37v-164q-129 -57 -331 -57q-259 0 -396 126.5t-137 380.5zM301 543h514v67q0 104 -57.5 158.5t-184.5 54.5q-152 0 -212 -65.5t-60 -214.5z" />
<glyph unicode="f" horiz-adv-x="716" d="M47 797v174h141v119q0 147 83 235t239 88q104 0 199 -35v-159q-60 22 -124 22h-5q-96 0 -133 -33.5t-37 -120.5v-116h254l-11 -174h-243v-797h-222v797h-141z" />
<glyph unicode="g" horiz-adv-x="1134" d="M92 637q0 184 110.5 269t336.5 85q82 0 178 -20h356l-6 -146h-164q76 -68 76 -188q0 -160 -95.5 -247t-283.5 -87q-49 0 -121 10q-66 -6 -113 -33.5t-47 -70.5q0 -31 25 -44t82 -13h272q145 0 224 -62.5t79 -181.5q0 -141 -119.5 -204.5t-359.5 -63.5q-112 0 -219.5 14 t-181.5 39v172q78 -27 184.5 -41t206.5 -14q156 0 219.5 17t63.5 73q0 43 -34 60t-124 17h-262q-129 0 -196.5 48.5t-67.5 138.5q0 63 36.5 113.5t108.5 74.5q-164 80 -164 285zM299 643q0 -106 54.5 -152.5t185.5 -46.5q133 0 185 44t52 155t-53 159t-184 48 q-127 0 -183.5 -48t-56.5 -159z" />
<glyph unicode="h" horiz-adv-x="1183" d="M129 0v1380h223v-503q66 53 155 83.5t195 30.5q184 0 272.5 -88t88.5 -274v-629h-221v618q0 113 -48.5 158t-166.5 45q-74 0 -150 -31.5t-125 -82.5v-707h-223z" />
<glyph unicode="i" horiz-adv-x="630" d="M129 801l21 170h350v-971h-224v801h-147zM258 1174v184h244v-184h-244z" />
<glyph unicode="j" horiz-adv-x="626" d="M-20 -285q63 -20 124 -20q96 0 134 33.5t38 115.5v957h-147l21 170h348v-1147q0 -141 -81 -222t-235 -81q-118 0 -202 33v161zM254 1174v184h244v-184h-244z" />
<glyph unicode="k" horiz-adv-x="1126" d="M129 0v1380h223v-798l408 389h256l-395 -391l417 -580h-235l-322 461l-129 -123v-338h-223z" />
<glyph unicode="l" horiz-adv-x="573" d="M129 231v1149h223v-1128q0 -55 19.5 -76.5t62.5 -21.5q49 0 94 12v-162q-65 -24 -150 -24h-7q-123 0 -182.5 59t-59.5 192z" />
<glyph unicode="m" horiz-adv-x="1753" d="M129 0v971h205l10 -103q156 123 342 123q100 0 159.5 -31.5t92.5 -95.5q74 59 163 93t204 34q168 0 247.5 -86t79.5 -264v-641h-219v618q0 111 -47 157t-154 46q-70 0 -133 -24.5t-106 -73.5q10 -39 10 -100v-623h-207v616q0 111 -38 158t-138 47q-129 0 -252 -114v-707 h-219z" />
<glyph unicode="n" horiz-adv-x="1183" d="M129 0v971h205l10 -103q70 55 162 89t196 34q188 0 274.5 -88t86.5 -274v-629h-221v618q0 113 -47 158t-172 45q-76 0 -149 -30.5t-122 -79.5v-711h-223z" />
<glyph unicode="o" horiz-adv-x="1189" d="M88 485q0 506 506 506q508 0 508 -506q0 -505 -506 -505h-2h-2q-504 0 -504 505zM313 485q0 -170 64.5 -243.5t216.5 -73.5q154 0 218.5 73.5t64.5 243.5q0 168 -64.5 242t-218.5 74q-152 0 -216.5 -74t-64.5 -242z" />
<glyph unicode="p" horiz-adv-x="1191" d="M129 -442v1413h193l12 -97q68 59 145.5 88t182.5 29q217 0 329.5 -116.5t112.5 -372.5q0 -258 -119 -390t-332 -132q-176 0 -301 81v-503h-223zM352 233q98 -86 244 -86q143 0 213 88.5t70 268.5q0 172 -63.5 244.5t-213.5 72.5t-250 -102v-486z" />
<glyph unicode="q" horiz-adv-x="1292" d="M88 469q0 258 117 390t327 132q104 0 181.5 -28.5t144.5 -88.5l14 97h191v-1180q0 -66 21.5 -89.5t82.5 -23.5q37 0 86 13v-162q-70 -25 -153 -25q-131 0 -195.5 65.5t-64.5 205.5v286q-123 -81 -297 -81h-4q-451 0 -451 489zM313 471q0 -176 68 -250t215 -74 q146 0 244 86v486q-100 102 -248 102q-145 0 -212 -87t-67 -263z" />
<glyph unicode="r" horiz-adv-x="751" d="M129 0v971h205l12 -113q70 45 166 82t190 51v-170q-88 -16 -190 -50t-160 -71v-700h-223z" />
<glyph unicode="s" horiz-adv-x="950" d="M88 713q0 137 98.5 207.5t307.5 70.5q80 0 156.5 -12t131.5 -31v-186q-55 23 -123.5 35t-130.5 12q-113 0 -164 -19.5t-51 -72.5q0 -47 39 -70.5t154 -60.5l45 -15q119 -37 184.5 -74.5t95 -92t29.5 -140.5q0 -284 -404 -284h-3q-99 0 -191 13t-151 36v188 q68 -27 150.5 -41t162.5 -14q119 0 166 20.5t47 79.5q0 53 -43 79t-162 62l-61 21q-147 49 -215 109.5t-68 179.5z" />
<glyph unicode="t" horiz-adv-x="743" d="M47 797v174h143v223l222 68v-291h258l-15 -174h-243v-496q0 -84 37.5 -117.5t128.5 -33.5q55 0 116 20v-158q-78 -32 -187 -32h-7q-154 0 -232 80.5t-78 228.5v508h-143z" />
<glyph unicode="u" horiz-adv-x="1183" d="M119 358v613h223v-613q0 -109 53.5 -160t163.5 -51q80 0 149.5 30t122.5 83v711h222v-971h-203l-10 100q-153 -120 -358 -120h-3q-174 0 -267 97t-93 281z" />
<glyph unicode="v" horiz-adv-x="1183" d="M88 971h231l273 -754l272 754h230l-381 -971h-242z" />
<glyph unicode="w" horiz-adv-x="1527" d="M88 971h223l168 -707l191 588v119h170l211 -707l168 707h221l-254 -971h-211l-207 635l-211 -635h-213z" />
<glyph unicode="x" horiz-adv-x="1161" d="M88 0l371 494l-357 477h240l238 -324l237 324h240l-355 -477l369 -494h-242l-249 338l-250 -338h-242z" />
<glyph unicode="y" horiz-adv-x="1224" d="M88 971h231l312 -721l315 721h230l-396 -916q-88 -209 -183 -312t-249 -103h-7q-106 0 -181 28v166q57 -20 125 -20q61 0 100 19.5t67.5 60t67.5 118.5z" />
<glyph unicode="z" horiz-adv-x="997" d="M88 0v117l530 671h-505v183h780v-137l-520 -662h534v-172h-819z" />
<glyph unicode="{" horiz-adv-x="622" d="M47 541v139q82 10 107.5 56t25.5 151v321q0 123 51.5 174.5t186.5 51.5h135v-172h-59q-53 0 -73 -22.5t-20 -82.5v-356q0 -63 -27.5 -115.5t-84.5 -75.5q57 -23 84.5 -75t27.5 -115v-357q0 -59 19.5 -81.5t73.5 -22.5h59v-172h-154q-118 0 -168.5 57.5t-50.5 180.5v327 q0 92 -28.5 136t-104.5 53z" />
<glyph unicode="|" horiz-adv-x="401" d="M88 -246v1751h223v-1751h-223z" />
<glyph unicode="}" horiz-adv-x="622" d="M68 -41h59q53 0 72.5 22.5t19.5 81.5v357q0 63 27.5 115.5t85.5 74.5q-57 23 -85 75t-28 116v356q0 59 -19.5 82t-72.5 23h-59v172h135q135 0 186 -51.5t51 -174.5v-321q0 -104 26 -150.5t107 -56.5v-139q-76 -8 -104.5 -52.5t-28.5 -136.5v-327q0 -123 -50 -180.5 t-169 -57.5h-153v172z" />
<glyph unicode="~" horiz-adv-x="1150" d="M88 465v221q35 47 101.5 77t142.5 30q63 0 120.5 -19.5t139.5 -56.5q78 -35 127 -51.5t102 -16.5q78 0 134.5 29t105.5 92v-221q-35 -49 -98.5 -77t-141.5 -28q-57 0 -109.5 17.5t-136.5 54.5q-76 35 -131 53.5t-112 18.5q-78 0 -136.5 -30t-107.5 -93z" />
<glyph unicode="&#xa1;" horiz-adv-x="415" d="M88 1077v168h238v-168h-238zM96 -74v330l13 659h198l12 -659v-330h-223z" />
<glyph unicode="&#xa2;" horiz-adv-x="1009" d="M88 485q0 225 118 352.5t326 149.5v160h164v-158q123 -8 224 -57v-166q-90 45 -224 51v-667q121 6 226 55v-170q-98 -41 -226 -51v-160h-164v160q-219 16 -331.5 145t-112.5 356zM313 485q0 -143 52.5 -222t166.5 -103v647q-111 -25 -165 -102.5t-54 -219.5z" />
<glyph unicode="&#xa3;" horiz-adv-x="1019" d="M88 0v172h51q57 0 86 35t29 98v307h-139v172h139v217q0 156 99.5 247t258.5 91q143 0 240 -43v-159q-27 14 -76 22t-96 8q-104 0 -154.5 -42t-50.5 -136v-205h373l-8 -172h-365v-297q0 -53 -11 -86.5t-40 -56.5h506v-172h-842z" />
<glyph unicode="&#xa4;" horiz-adv-x="1171" d="M88 233l168 123q-59 84 -59 195q0 109 59 190l-166 127l98 121l170 -133q102 78 226 78q127 0 227 -80l172 135l98 -121l-168 -127q61 -88 62 -190q0 -102 -62 -195l168 -125l-98 -120l-172 131q-98 -76 -225 -76t-226 76l-172 -131zM362 551q0 -94 65 -159.5t157 -65.5 q94 0 159.5 65.5t65.5 159.5t-66.5 159.5t-158.5 65.5q-94 0 -158 -65.5t-64 -159.5z" />
<glyph unicode="&#xa5;" horiz-adv-x="1343" d="M88 1319h231l353 -641l352 641h231l-426 -746h263v-139h-310v-110h310v-140h-310v-184h-221v184h-309v140h309v110h-309v139h260z" />
<glyph unicode="&#xa6;" horiz-adv-x="401" d="M88 -246v656h223v-656h-223zM88 848v657h223v-657h-223z" />
<glyph unicode="&#xa7;" horiz-adv-x="1136" d="M88 926q0 82 39 137q-37 63 -37 147q0 170 126 263.5t378 93.5q100 0 204.5 -16.5t170.5 -37.5v-196q-166 59 -348 59q-139 0 -223.5 -39t-84.5 -141q0 -59 30 -97t97.5 -65.5t196.5 -58.5q166 -41 254 -85t123 -101.5t35 -145.5q0 -33 -11.5 -78t-27.5 -73 q39 -66 39 -146q0 -180 -133.5 -273t-387.5 -93q-255 -1 -411 65v197q190 -74 391 -74q162 0 238.5 40t76.5 144q0 66 -37.5 107t-108.5 68.5t-206 62.5q-145 39 -227 83t-119 104.5t-37 148.5zM297 887q0 -35 25.5 -56.5t81 -41t174.5 -50.5q211 -55 270 -123q10 27 10 52 q0 33 -26.5 56.5t-90 46t-186.5 52.5q-100 27 -158.5 50.5t-91.5 56.5q-8 -25 -8 -43z" />
<glyph unicode="&#xa8;" horiz-adv-x="747" d="M88 1145v176h188v-176h-188zM469 1145v176h188v-176h-188z" />
<glyph unicode="&#xa9;" horiz-adv-x="1538" d="M88 659q0 184 91 341t248 248t341 91t341 -91t248 -247.5t91 -341.5q0 -184 -91 -340.5t-248 -247.5t-341 -91t-341 91t-248 247.5t-91 340.5zM236 659q0 -156 69.5 -279.5t190 -193t272.5 -69.5t274.5 69.5t192.5 193.5t70 279q0 154 -70 277t-192.5 193.5t-274.5 70.5 t-272.5 -70.5t-190 -193.5t-69.5 -277zM326 657q0 145 60 248t162.5 155t231.5 52q154 0 262 -68v-124q-102 55 -227 55q-152 0 -241 -77t-89 -241q0 -170 80 -244.5t242 -74.5q61 0 124.5 16.5t112.5 44.5v-131q-119 -66 -276 -65q-207 0 -324.5 121.5t-117.5 332.5z" />
<glyph unicode="&#xaa;" horiz-adv-x="702" d="M88 940q0 178 219 178h168v19q0 53 -28.5 73.5t-114.5 20.5q-88 0 -174 -29v105q90 33 202 32q121 0 186.5 -50t65.5 -154v-344h-123l-8 53q-39 -35 -85 -50.5t-113 -15.5q-86 0 -140.5 40t-54.5 122zM219 946q0 -39 26.5 -55.5t78.5 -16.5q100 0 151 72v80h-143 q-61 0 -87 -17.5t-26 -62.5z" />
<glyph unicode="&#xab;" horiz-adv-x="1269" d="M88 539v94l528 389l89 -127l-418 -311l418 -310l-89 -124zM565 539v94l529 389l86 -127l-416 -311l416 -310l-86 -124z" />
<glyph unicode="&#xac;" horiz-adv-x="1073" d="M88 586v174h895v-471h-178v297h-717z" />
<glyph unicode="&#xad;" horiz-adv-x="958" d="M88 465v174h782v-174h-782z" />
<glyph unicode="&#xae;" horiz-adv-x="1538" d="M88 659q0 184 91 341t248 248t341 91t341 -91t248 -247.5t91 -341.5q0 -184 -91 -340.5t-248 -247.5t-341 -91t-341 91t-248 247.5t-91 340.5zM236 659q0 -156 69.5 -279.5t190 -193t272.5 -69.5t274.5 69.5t192.5 193.5t70 279q0 154 -70 277t-192.5 193.5t-274.5 70.5 t-272.5 -70.5t-190 -193.5t-69.5 -277zM463 246v833h383q133 0 204.5 -69.5t71.5 -190.5q0 -94 -49 -157.5t-137 -83.5q23 -16 36 -36t29 -57l99 -239h-137l-101 248q-16 35 -39.5 46t-85.5 11h-133v-305h-141zM604 664h166q111 0 161 29.5t50 125.5q0 82 -37 115t-123 33 h-217v-303z" />
<glyph unicode="&#xaf;" horiz-adv-x="747" d="M68 1153v145h610v-145h-610z" />
<glyph unicode="&#xb0;" horiz-adv-x="638" d="M86 1253q0 98 67.5 163t163.5 65q98 0 166 -63.5t68 -164.5q0 -100 -67.5 -164.5t-166.5 -64.5q-96 0 -163.5 64.5t-67.5 164.5zM217 1253q0 -45 28.5 -73.5t71.5 -28.5q45 0 75 28.5t30 73.5q0 43 -30 73t-75 30q-43 0 -71.5 -30t-28.5 -73z" />
<glyph unicode="&#xb1;" horiz-adv-x="968" d="M94 0v174h780v-174h-780zM94 547v174h301v299h178v-299h301v-174h-301v-289h-178v289h-301z" />
<glyph unicode="&#xb2;" horiz-adv-x="616" d="M88 758v78q27 43 59.5 73.5t96.5 83.5q74 61 98.5 90t24.5 62q0 39 -26 55.5t-87 16.5q-72 0 -150 -31v121q39 12 93.5 22t105.5 10q102 0 160.5 -49t58.5 -125q0 -55 -23.5 -94t-82.5 -94l-43 -37q-43 -37 -66 -61h219v-121h-438z" />
<glyph unicode="&#xb3;" horiz-adv-x="622" d="M88 768v111q70 -29 150 -29q74 0 104.5 16.5t30.5 55.5q0 72 -121 71h-80l8 99h66q59 0 86.5 18t27.5 57q0 33 -29.5 46.5t-90.5 13.5q-74 0 -142 -27v113q31 10 81 18t100 8q244 0 243 -163q0 -45 -20.5 -81t-63.5 -53q96 -27 97 -127q0 -174 -261 -174q-49 0 -103 7.5 t-83 19.5z" />
<glyph unicode="&#xb4;" horiz-adv-x="534" d="M90 1069l156 363h194l-170 -363h-180z" />
<glyph unicode="&#xb6;" horiz-adv-x="1294" d="M88 977q0 246 142.5 361.5t390.5 115.5h604v-1612h-224v1440h-174v-1440h-221v676q-518 0 -518 459z" />
<glyph unicode="&#xb7;" horiz-adv-x="366" d="M88 496v174h188v-174h-188z" />
<glyph unicode="&#xb8;" horiz-adv-x="600" d="M78 -354q59 -16 127 -17q96 0 135 18.5t39 73.5q0 53 -38 68.5t-128 15.5h-82l59 195h150l-33 -96q109 0 166 -48.5t57 -136.5q0 -211 -303 -211q-32 0 -79.5 5.5t-69.5 11.5v121z" />
<glyph unicode="&#xb9;" horiz-adv-x="415" d="M66 1159v121l301 59v-581h-154v432z" />
<glyph unicode="&#xba;" horiz-adv-x="743" d="M88 1059q0 137 70.5 208.5t212.5 71.5q283 0 282 -280q0 -281 -282 -281q-283 0 -283 281zM227 1059q0 -90 34 -132t110 -42q75 0 108 42t33 132q0 88 -33 130t-108 42q-76 0 -110 -42t-34 -130z" />
<glyph unicode="&#xbb;" horiz-adv-x="1269" d="M88 274l418 310l-418 311l88 127l529 -389v-94l-529 -389zM565 274l416 310l-416 311l86 127l529 -389v-94l-529 -389z" />
<glyph unicode="&#xbc;" horiz-adv-x="1318" d="M88 1159v121l301 59v-581h-153v432zM193 0l698 1319h209l-699 -1319h-208zM719 111v106l285 365h163v-363h62v-108h-62v-111h-153v111h-295zM868 221h179v234z" />
<glyph unicode="&#xbd;" horiz-adv-x="1333" d="M88 1159v121l301 59v-581h-153v432zM193 0l698 1319h209l-699 -1319h-208zM784 0v78q27 43 60 73.5t96 84.5q74 61 98.5 89.5t24.5 61.5q0 39 -25.5 55.5t-87.5 16.5q-72 0 -149 -31v121q39 12 93 22.5t105 10.5q102 0 161 -49.5t59 -124.5q0 -55 -24 -94.5t-83 -94.5 l-43 -37q-43 -37 -65 -61h219v-121h-439z" />
<glyph unicode="&#xbe;" horiz-adv-x="1351" d="M88 768v109q70 -29 150 -29q74 0 104.5 16.5t30.5 57.5q0 72 -121 71h-80l8 99h66q59 0 86.5 18t27.5 57q0 33 -29.5 47.5t-90.5 14.5q-74 0 -142 -27v111q31 10 81 18t100 8q244 0 243 -163q0 -45 -20.5 -81t-63.5 -53q96 -27 97 -127q0 -174 -261 -174q-49 0 -103 7.5 t-83 19.5zM203 0l696 1319h211l-698 -1319h-209zM727 111v106l287 365h162v-363h63v-108h-63v-111h-152v111h-297zM877 221h180v234z" />
<glyph unicode="&#xbf;" horiz-adv-x="1013" d="M156 281q0 106 47 174.5t151 154.5q14 12 76 62.5t86.5 98.5t24.5 108v34h223v-45q0 -76 -32 -135t-75 -99t-120 -104q-78 -63 -117 -114t-39 -119q0 -109 64.5 -155t222.5 -46q82 0 169 20.5t154 53.5v-188q-72 -35 -171 -55.5t-210 -20.5q-221 0 -337.5 98t-116.5 277z M535 1077v168h237v-168h-237z" />
<glyph unicode="&#xc0;" horiz-adv-x="1433" d="M90 0l504 1319h250l499 -1319h-229l-131 340h-530l-131 -340h-232zM440 1772h195l156 -363h-181zM487 512h459l-229 604z" />
<glyph unicode="&#xc1;" horiz-adv-x="1433" d="M90 0l504 1319h250l499 -1319h-229l-131 340h-530l-131 -340h-232zM487 512h459l-229 604zM635 1409l153 363h197l-172 -363h-178z" />
<glyph unicode="&#xc2;" horiz-adv-x="1433" d="M90 0l504 1319h250l499 -1319h-229l-131 340h-530l-131 -340h-232zM381 1407l256 330h156l256 -330h-179l-155 207l-152 -207h-182zM487 512h459l-229 604z" />
<glyph unicode="&#xc3;" horiz-adv-x="1433" d="M90 0l504 1319h250l499 -1319h-229l-131 340h-530l-131 -340h-232zM391 1430v163q27 27 75 44.5t99 17.5q41 0 77 -10.5t87 -30.5q47 -18 80 -28.5t70 -10.5q106 0 163 76v-164q-20 -29 -64 -46.5t-97 -17.5q-39 0 -74 10.5t-96 32.5q-51 18 -81 27.5t-61 9.5 q-113 0 -178 -73zM487 512h459l-229 604z" />
<glyph unicode="&#xc4;" horiz-adv-x="1433" d="M90 0l504 1319h250l499 -1319h-229l-131 340h-530l-131 -340h-232zM430 1456v176h188v-176h-188zM487 512h459l-229 604zM811 1456v176h188v-176h-188z" />
<glyph unicode="&#xc5;" horiz-adv-x="1433" d="M90 0l485 1270q-47 33 -72.5 83t-25.5 109q0 100 65.5 167t172.5 67q109 0 175 -66.5t66 -167.5q0 -59 -25.5 -108t-70.5 -80l483 -1274h-229l-131 340h-530l-131 -340h-232zM487 512h459l-229 604zM594 1462q0 -51 34 -86t87 -35q55 0 90 35t35 86t-35 86t-90 35 q-53 0 -87 -35t-34 -86z" />
<glyph unicode="&#xc6;" horiz-adv-x="1730" d="M90 0l504 1319h1048v-174h-587v-400h512v-172h-512v-401h587v-172h-808v342h-373l-131 -342h-240zM518 514h316v635h-80z" />
<glyph unicode="&#xc7;" horiz-adv-x="1222" d="M88 639q0 334 164 517t493 183q207 0 388 -63v-195q-174 68 -371 68q-240 0 -344.5 -127t-104.5 -383q0 -233 112 -352t341 -119q203 0 369 63v-196q-160 -49 -340 -55l-27 -76q109 0 166 -48.5t57 -136.5q0 -211 -303 -211q-33 0 -80 5.5t-69 11.5v121q59 -16 127 -17 q96 0 135 18.5t39 73.5q0 53 -38 68.5t-128 15.5h-82l55 179q-272 29 -415.5 200.5t-143.5 454.5z" />
<glyph unicode="&#xc8;" horiz-adv-x="1126" d="M129 0v1319h920v-174h-697v-400h621v-172h-621v-401h697v-172h-920zM346 1772h195l155 -363h-180z" />
<glyph unicode="&#xc9;" horiz-adv-x="1126" d="M129 0v1319h920v-174h-697v-400h621v-172h-621v-401h697v-172h-920zM471 1409l154 363h196l-172 -363h-178z" />
<glyph unicode="&#xca;" horiz-adv-x="1126" d="M129 0v1319h920v-174h-697v-400h621v-172h-621v-401h697v-172h-920zM240 1407l256 330h155l256 -330h-178l-156 207l-151 -207h-182z" />
<glyph unicode="&#xcb;" horiz-adv-x="1126" d="M129 0v1319h920v-174h-697v-400h621v-172h-621v-401h697v-172h-920zM299 1458v176h188v-176h-188zM680 1458v176h188v-176h-188z" />
<glyph unicode="&#xcc;" horiz-adv-x="481" d="M-18 1772h194l156 -363h-180zM129 0v1319h223v-1319h-223z" />
<glyph unicode="&#xcd;" horiz-adv-x="483" d="M129 0v1319h223v-1319h-223zM143 1409l154 363h197l-172 -363h-179z" />
<glyph unicode="&#xce;" horiz-adv-x="481" d="M-94 1407l256 330h155l256 -330h-178l-155 207l-152 -207h-182zM129 0v1319h223v-1319h-223z" />
<glyph unicode="&#xcf;" horiz-adv-x="481" d="M-45 1464v176h188v-176h-188zM129 0v1319h223v-1319h-223zM336 1464v176h188v-176h-188z" />
<glyph unicode="&#xd0;" horiz-adv-x="1411" d="M68 561v172h143v586h534q297 0 436.5 -157.5t139.5 -510.5q0 -338 -139.5 -494.5t-436.5 -156.5h-534v561h-143zM434 172h277q137 0 220 40t125 144.5t42 294.5q0 193 -39 299.5t-122 150.5t-226 44h-277v-412h338v-172h-338v-389z" />
<glyph unicode="&#xd1;" horiz-adv-x="1366" d="M129 0v1319h197l688 -971v971h221v-1319h-197l-686 969v-969h-223zM362 1446v164q27 27 75 44t100 17q41 0 76.5 -10t86.5 -31q47 -18 80 -28.5t70 -10.5q106 0 164 76v-164q-20 -29 -64.5 -46t-97.5 -17q-39 0 -74 10t-96 33q-51 18 -81 27.5t-60 9.5q-113 0 -179 -74z " />
<glyph unicode="&#xd2;" horiz-adv-x="1427" d="M88 655q0 356 153.5 520t471.5 164q317 0 470.5 -163.5t153.5 -520.5q0 -346 -154.5 -510.5t-469.5 -164.5q-316 0 -470.5 164.5t-154.5 510.5zM313 655q0 -256 96.5 -371.5t303.5 -115.5q209 0 305 114.5t96 372.5q0 268 -95 381t-306 113q-209 0 -304.5 -112.5 t-95.5 -381.5zM465 1772h194l156 -363h-180z" />
<glyph unicode="&#xd3;" horiz-adv-x="1427" d="M88 655q0 356 153.5 520t471.5 164q317 0 470.5 -163.5t153.5 -520.5q0 -346 -154.5 -510.5t-469.5 -164.5q-316 0 -470.5 164.5t-154.5 510.5zM313 655q0 -256 96.5 -371.5t303.5 -115.5q209 0 305 114.5t96 372.5q0 268 -95 381t-306 113q-209 0 -304.5 -112.5 t-95.5 -381.5zM614 1409l154 363h197l-172 -363h-179z" />
<glyph unicode="&#xd4;" horiz-adv-x="1427" d="M88 655q0 356 153.5 520t471.5 164q317 0 470.5 -163.5t153.5 -520.5q0 -346 -154.5 -510.5t-469.5 -164.5q-316 0 -470.5 164.5t-154.5 510.5zM313 655q0 -256 96.5 -371.5t303.5 -115.5q209 0 305 114.5t96 372.5q0 268 -95 381t-306 113q-209 0 -304.5 -112.5 t-95.5 -381.5zM379 1407l256 330h156l256 -330h-179l-155 207l-152 -207h-182z" />
<glyph unicode="&#xd5;" horiz-adv-x="1427" d="M88 655q0 356 153.5 520t471.5 164q317 0 470.5 -163.5t153.5 -520.5q0 -346 -154.5 -510.5t-469.5 -164.5q-316 0 -470.5 164.5t-154.5 510.5zM313 655q0 -256 96.5 -371.5t303.5 -115.5q209 0 305 114.5t96 372.5q0 268 -95 381t-306 113q-209 0 -304.5 -112.5 t-95.5 -381.5zM387 1430v163q27 27 75 44.5t99 17.5q41 0 77 -10.5t87 -30.5q47 -18 80 -28.5t69 -10.5q106 0 164 76v-164q-20 -29 -64 -46.5t-97 -17.5q-39 0 -74 10.5t-96 32.5q-51 18 -81 27.5t-61 9.5q-113 0 -178 -73z" />
<glyph unicode="&#xd6;" horiz-adv-x="1427" d="M88 655q0 356 153.5 520t471.5 164q317 0 470.5 -163.5t153.5 -520.5q0 -346 -154.5 -510.5t-469.5 -164.5q-316 0 -470.5 164.5t-154.5 510.5zM313 655q0 -256 96.5 -371.5t303.5 -115.5q209 0 305 114.5t96 372.5q0 268 -95 381t-306 113q-209 0 -304.5 -112.5 t-95.5 -381.5zM428 1458v176h188v-176h-188zM809 1458v176h188v-176h-188z" />
<glyph unicode="&#xd7;" horiz-adv-x="847" d="M88 743l113 113l219 -223l225 221l113 -113l-223 -223l223 -223l-109 -111l-223 224l-215 -213l-113 112l213 215z" />
<glyph unicode="&#xd8;" horiz-adv-x="1427" d="M88 655q0 356 153.5 520t471.5 164q86 0 161 -12l35 92h152l-49 -129q166 -66 245.5 -221.5t79.5 -413.5q0 -346 -154.5 -510.5t-469.5 -164.5q-96 0 -185 16l-39 -105h-151l55 146q-154 70 -229.5 223.5t-75.5 394.5zM313 655q0 -162 37 -266t115 -158l340 912 q-43 6 -92 6q-209 0 -304.5 -112.5t-95.5 -381.5zM596 178q57 -10 117 -10q209 0 305 114.5t96 372.5q0 178 -43 287t-131 158z" />
<glyph unicode="&#xd9;" horiz-adv-x="1380" d="M119 489v830h223v-821q0 -164 90 -247t260 -83q168 0 258 83t90 247v821h222v-830q0 -248 -148.5 -378.5t-421.5 -130.5q-274 0 -423.5 131t-149.5 378zM459 1772h194l156 -363h-180z" />
<glyph unicode="&#xda;" horiz-adv-x="1380" d="M119 489v830h223v-821q0 -164 90 -247t260 -83q168 0 258 83t90 247v821h222v-830q0 -248 -148.5 -378.5t-421.5 -130.5q-274 0 -423.5 131t-149.5 378zM590 1409l153 363h197l-172 -363h-178z" />
<glyph unicode="&#xdb;" horiz-adv-x="1380" d="M119 489v830h223v-821q0 -164 90 -247t260 -83q168 0 258 83t90 247v821h222v-830q0 -248 -148.5 -378.5t-421.5 -130.5q-274 0 -423.5 131t-149.5 378zM356 1407l256 330h156l256 -330h-178l-156 207l-151 -207h-183z" />
<glyph unicode="&#xdc;" horiz-adv-x="1380" d="M119 489v830h223v-821q0 -164 90 -247t260 -83q168 0 258 83t90 247v821h222v-830q0 -248 -148.5 -378.5t-421.5 -130.5q-274 0 -423.5 131t-149.5 378zM393 1458v176h189v-176h-189zM774 1458v176h189v-176h-189z" />
<glyph unicode="&#xdd;" horiz-adv-x="1343" d="M88 1319h231l353 -641l352 641h231l-473 -830v-489h-221v489zM561 1409l154 363h196l-172 -363h-178z" />
<glyph unicode="&#xde;" horiz-adv-x="1208" d="M129 0v1319h223v-225h365q219 0 330.5 -120t111.5 -319q0 -197 -122 -316.5t-328 -119.5h-357v-219h-223zM352 395h316q129 0 198.5 70t69.5 190q0 127 -65.5 195t-192.5 68h-326v-523z" />
<glyph unicode="&#xdf;" horiz-adv-x="1290" d="M119 0v938q0 143 64.5 256t182 176.5t273.5 63.5q166 0 281.5 -56.5t173 -149.5t57.5 -208q0 -109 -45 -189.5t-119 -119.5q100 -31 157.5 -117t57.5 -211q0 -193 -109.5 -298t-310.5 -105q-174 0 -295 45v188q102 -45 254 -45q111 0 173.5 59.5t62.5 167.5 q0 117 -60.5 173.5t-193.5 56.5h-160v170h158q115 0 168 59t53 166q0 106 -69.5 164.5t-233.5 58.5q-147 0 -226 -76.5t-79 -234.5v-932h-215z" />
<glyph unicode="&#xe0;" horiz-adv-x="1120" d="M88 276q0 143 97.5 226.5t291.5 83.5h311v43q0 72 -21.5 111.5t-78.5 58t-164 18.5q-172 0 -321 -51v166q70 27 164 43t198 16q217 0 326.5 -88t109.5 -278v-625h-190l-14 98q-61 -59 -149.5 -88.5t-215.5 -29.5q-147 0 -245.5 76.5t-98.5 219.5zM295 281q0 -74 49 -108 t148 -34q96 0 171.5 33t124.5 92v170h-307q-98 0 -142 -37t-44 -116zM344 1432h195l155 -363h-180z" />
<glyph unicode="&#xe1;" horiz-adv-x="1124" d="M88 276q0 143 97.5 226.5t291.5 83.5h311v43q0 72 -21.5 111.5t-78.5 58t-164 18.5q-172 0 -321 -51v166q70 27 164 43t198 16q217 0 326.5 -88t109.5 -278v-625h-190l-14 98q-61 -59 -149.5 -88.5t-215.5 -29.5q-147 0 -245.5 76.5t-98.5 219.5zM295 281q0 -74 49 -108 t148 -34q96 0 171.5 33t124.5 92v170h-307q-98 0 -142 -37t-44 -116zM483 1069l154 363h197l-172 -363h-179z" />
<glyph unicode="&#xe2;" horiz-adv-x="1120" d="M88 276q0 143 97.5 226.5t291.5 83.5h311v43q0 72 -21.5 111.5t-78.5 58t-164 18.5q-172 0 -321 -51v166q70 27 164 43t198 16q217 0 326.5 -88t109.5 -278v-625h-190l-14 98q-61 -59 -149.5 -88.5t-215.5 -29.5q-147 0 -245.5 76.5t-98.5 219.5zM250 1067l256 330h156 l256 -330h-179l-155 207l-152 -207h-182zM295 281q0 -74 49 -108t148 -34q96 0 171.5 33t124.5 92v170h-307q-98 0 -142 -37t-44 -116z" />
<glyph unicode="&#xe3;" horiz-adv-x="1120" d="M88 276q0 143 97.5 226.5t291.5 83.5h311v43q0 72 -21.5 111.5t-78.5 58t-164 18.5q-172 0 -321 -51v166q70 27 164 43t198 16q217 0 326.5 -88t109.5 -278v-625h-190l-14 98q-61 -59 -149.5 -88.5t-215.5 -29.5q-147 0 -245.5 76.5t-98.5 219.5zM264 1106v164 q27 27 75 44t99 17q41 0 77 -10t87 -31q47 -18 80 -28.5t70 -10.5q106 0 163 76v-164q-20 -29 -64 -46t-97 -17q-39 0 -74 10t-96 33q-51 18 -81 27.5t-61 9.5q-113 0 -178 -74zM295 281q0 -74 49 -108t148 -34q96 0 171.5 33t124.5 92v170h-307q-98 0 -142 -37t-44 -116z " />
<glyph unicode="&#xe4;" horiz-adv-x="1120" d="M88 276q0 143 97.5 226.5t291.5 83.5h311v43q0 72 -21.5 111.5t-78.5 58t-164 18.5q-172 0 -321 -51v166q70 27 164 43t198 16q217 0 326.5 -88t109.5 -278v-625h-190l-14 98q-61 -59 -149.5 -88.5t-215.5 -29.5q-147 0 -245.5 76.5t-98.5 219.5zM295 281q0 -74 49 -108 t148 -34q96 0 171.5 33t124.5 92v170h-307q-98 0 -142 -37t-44 -116zM311 1118v176h189v-176h-189zM692 1118v176h189v-176h-189z" />
<glyph unicode="&#xe5;" horiz-adv-x="1120" d="M88 276q0 143 97.5 226.5t291.5 83.5h311v43q0 72 -21.5 111.5t-78.5 58t-164 18.5q-172 0 -321 -51v166q70 27 164 43t198 16q217 0 326.5 -88t109.5 -278v-625h-190l-14 98q-61 -59 -149.5 -88.5t-215.5 -29.5q-147 0 -245.5 76.5t-98.5 219.5zM295 281q0 -74 49 -108 t148 -34q96 0 171.5 33t124.5 92v170h-307q-98 0 -142 -37t-44 -116zM358 1298q0 100 65.5 167t172.5 67q109 0 175.5 -66.5t66.5 -167.5q0 -98 -66.5 -164.5t-175.5 -66.5q-107 0 -172.5 66.5t-65.5 164.5zM475 1298q0 -51 34 -85.5t87 -34.5q55 0 90 34.5t35 85.5t-35 86 t-90 35q-53 0 -87 -34.5t-34 -86.5z" />
<glyph unicode="&#xe6;" horiz-adv-x="1804" d="M88 276q0 143 97.5 226.5t291.5 83.5h311v43q0 72 -21.5 111.5t-78.5 58t-164 18.5q-172 0 -321 -51v166q70 27 164 43t198 16q250 0 355 -129q59 61 149 95t203 34q215 0 329.5 -112.5t114.5 -300.5v-181h-710q16 -139 100 -194.5t264 -55.5q76 0 152.5 13.5t134.5 38.5 v-162q-129 -57 -332 -57q-137 0 -243.5 43t-168.5 127q-84 -82 -190.5 -126t-278.5 -44q-153 0 -254.5 76.5t-101.5 219.5zM295 281q0 -74 49 -108t148 -34q102 0 172.5 31t123.5 90v174h-307q-98 0 -142 -37t-44 -116zM1006 543h514v67q0 104 -57.5 158.5t-184.5 54.5 q-152 0 -212 -65.5t-60 -214.5z" />
<glyph unicode="&#xe7;" horiz-adv-x="1009" d="M88 485q0 250 141.5 378t388.5 128q98 0 167 -14t135 -45v-166q-106 53 -258 53q-174 0 -261.5 -77.5t-87.5 -256.5q0 -176 81 -255.5t263 -79.5q145 0 265 55v-170q-121 -49 -271 -55l-26 -76q109 0 166 -48.5t57 -136.5q0 -211 -303 -211q-33 0 -80 5.5t-70 11.5v121 q59 -16 127 -17q96 0 135 18.5t39 73.5q0 53 -37.5 68.5t-128.5 15.5h-81l55 181q-205 25 -310.5 151.5t-105.5 347.5z" />
<glyph unicode="&#xe8;" horiz-adv-x="1099" d="M88 487q0 240 121 372t358 132q215 0 330 -112.5t115 -300.5v-181h-711q16 -139 100 -193t265 -54q74 0 150.5 14t135.5 37v-164q-129 -57 -331 -57q-259 0 -396 126.5t-137 380.5zM299 1432h195l155 -363h-180zM301 543h514v67q0 104 -57.5 158.5t-184.5 54.5 q-152 0 -212 -65.5t-60 -214.5z" />
<glyph unicode="&#xe9;" horiz-adv-x="1099" d="M88 487q0 240 121 372t358 132q215 0 330 -112.5t115 -300.5v-181h-711q16 -139 100 -193t265 -54q74 0 150.5 14t135.5 37v-164q-129 -57 -331 -57q-259 0 -396 126.5t-137 380.5zM301 543h514v67q0 104 -57.5 158.5t-184.5 54.5q-152 0 -212 -65.5t-60 -214.5z M461 1069l153 363h197l-172 -363h-178z" />
<glyph unicode="&#xea;" horiz-adv-x="1099" d="M88 487q0 240 121 372t358 132q215 0 330 -112.5t115 -300.5v-181h-711q16 -139 100 -193t265 -54q74 0 150.5 14t135.5 37v-164q-129 -57 -331 -57q-259 0 -396 126.5t-137 380.5zM223 1067l256 330h156l256 -330h-178l-156 207l-151 -207h-183zM301 543h514v67 q0 104 -57.5 158.5t-184.5 54.5q-152 0 -212 -65.5t-60 -214.5z" />
<glyph unicode="&#xeb;" horiz-adv-x="1099" d="M88 487q0 240 121 372t358 132q215 0 330 -112.5t115 -300.5v-181h-711q16 -139 100 -193t265 -54q74 0 150.5 14t135.5 37v-164q-129 -57 -331 -57q-259 0 -396 126.5t-137 380.5zM270 1118v176h189v-176h-189zM301 543h514v67q0 104 -57.5 158.5t-184.5 54.5 q-152 0 -212 -65.5t-60 -214.5zM651 1118v176h189v-176h-189z" />
<glyph unicode="&#xec;" horiz-adv-x="630" d="M127 1432h195l155 -363h-180zM129 801l21 170h350v-971h-224v801h-147z" />
<glyph unicode="&#xed;" horiz-adv-x="630" d="M129 801l21 170h350v-971h-224v801h-147zM272 1069l154 363h197l-172 -363h-179z" />
<glyph unicode="&#xee;" horiz-adv-x="630" d="M10 1067l256 330h156l256 -330h-178l-156 207l-151 -207h-183zM129 801l21 170h350v-971h-224v801h-147z" />
<glyph unicode="&#xef;" horiz-adv-x="630" d="M41 1118v176h188v-176h-188zM129 801l21 170h350v-971h-224v801h-147zM422 1118v176h188v-176h-188z" />
<glyph unicode="&#xf0;" horiz-adv-x="1173" d="M88 403q0 207 119 314.5t338 107.5q80 0 170 -27.5t159 -76.5v84q0 156 -40 244l-263 -115v115l195 84q-74 55 -205 55q-154 0 -293 -51v153q137 49 324 49q225 0 352 -127l189 82v-116l-123 -54q76 -137 75 -342v-293q0 -262 -124.5 -385.5t-374.5 -123.5t-374 111.5 t-124 311.5zM289 403q0 -127 74.5 -197.5t220.5 -70.5q147 0 218.5 72t71.5 223v148q-66 45 -141.5 72.5t-146.5 27.5q-158 0 -227.5 -70.5t-69.5 -204.5z" />
<glyph unicode="&#xf1;" horiz-adv-x="1183" d="M129 0v971h205l10 -103q70 55 162 89t196 34q188 0 274.5 -88t86.5 -274v-629h-221v618q0 113 -47 158t-172 45q-76 0 -149 -30.5t-122 -79.5v-711h-223zM272 1106v164q27 27 75 44t99 17q41 0 77 -10t87 -31q47 -18 80 -28.5t70 -10.5q106 0 164 76v-164 q-20 -29 -64.5 -46t-97.5 -17q-39 0 -74 10t-96 33q-51 18 -81 27.5t-60 9.5q-113 0 -179 -74z" />
<glyph unicode="&#xf2;" horiz-adv-x="1189" d="M88 485q0 506 506 506q508 0 508 -506t-508 -505q-506 -1 -506 505zM313 485q0 -170 64.5 -243.5t216.5 -73.5q154 0 218.5 73.5t64.5 243.5q0 168 -64.5 242t-218.5 74q-152 0 -216.5 -74t-64.5 -242zM344 1432h195l155 -363h-180z" />
<glyph unicode="&#xf3;" horiz-adv-x="1189" d="M88 485q0 506 506 506q508 0 508 -506t-508 -505q-506 -1 -506 505zM313 485q0 -170 64.5 -243.5t216.5 -73.5q154 0 218.5 73.5t64.5 243.5q0 168 -64.5 242t-218.5 74q-152 0 -216.5 -74t-64.5 -242zM496 1069l153 363h197l-172 -363h-178z" />
<glyph unicode="&#xf4;" horiz-adv-x="1189" d="M88 485q0 506 506 506q508 0 508 -506t-508 -505q-506 -1 -506 505zM260 1067l256 330h156l256 -330h-178l-156 207l-152 -207h-182zM313 485q0 -170 64.5 -243.5t216.5 -73.5q154 0 218.5 73.5t64.5 243.5q0 168 -64.5 242t-218.5 74q-152 0 -216.5 -74t-64.5 -242z" />
<glyph unicode="&#xf5;" horiz-adv-x="1189" d="M88 485q0 506 506 506q508 0 508 -506t-508 -505q-506 -1 -506 505zM268 1122v164q27 27 75 44.5t99 17.5q41 0 77 -10.5t87 -30.5q47 -18 80 -28.5t70 -10.5q106 0 164 75v-163q-20 -29 -64.5 -46.5t-97.5 -17.5q-39 0 -74 10.5t-96 32.5q-51 18 -81 27.5t-61 9.5 q-113 0 -178 -74zM313 485q0 -170 64.5 -243.5t216.5 -73.5q154 0 218.5 73.5t64.5 243.5q0 168 -64.5 242t-218.5 74q-152 0 -216.5 -74t-64.5 -242z" />
<glyph unicode="&#xf6;" horiz-adv-x="1189" d="M88 485q0 506 506 506q508 0 508 -506t-508 -505q-506 -1 -506 505zM309 1118v176h189v-176h-189zM313 485q0 -170 64.5 -243.5t216.5 -73.5q154 0 218.5 73.5t64.5 243.5q0 168 -64.5 242t-218.5 74q-152 0 -216.5 -74t-64.5 -242zM690 1118v176h189v-176h-189z" />
<glyph unicode="&#xf7;" horiz-adv-x="958" d="M94 465v174h780v-174h-780zM393 135v166h180v-166h-180zM393 813v166h180v-166h-180z" />
<glyph unicode="&#xf8;" horiz-adv-x="1189" d="M88 485q0 506 506 506q59 0 108 -6l37 96h152l-49 -133q260 -102 260 -463q0 -506 -508 -505q-43 0 -113 8l-35 -99h-151l49 131q-256 104 -256 465zM313 485q0 -109 23.5 -175t77.5 -101l219 590l-39 2q-152 0 -216.5 -74t-64.5 -242zM551 170q12 -2 43 -2 q154 0 218.5 73.5t64.5 243.5q0 209 -107 275z" />
<glyph unicode="&#xf9;" horiz-adv-x="1183" d="M119 358v613h223v-613q0 -109 53.5 -160t163.5 -51q80 0 149.5 30t122.5 83v711h222v-971h-203l-10 100q-154 -121 -361 -120q-174 0 -267 97t-93 281zM348 1432h195l155 -363h-180z" />
<glyph unicode="&#xfa;" horiz-adv-x="1183" d="M119 358v613h223v-613q0 -109 53.5 -160t163.5 -51q80 0 149.5 30t122.5 83v711h222v-971h-203l-10 100q-154 -121 -361 -120q-174 0 -267 97t-93 281zM465 1069l153 363h197l-172 -363h-178z" />
<glyph unicode="&#xfb;" horiz-adv-x="1183" d="M119 358v613h223v-613q0 -109 53.5 -160t163.5 -51q80 0 149.5 30t122.5 83v711h222v-971h-203l-10 100q-154 -121 -361 -120q-174 0 -267 97t-93 281zM250 1067l256 330h156l256 -330h-179l-155 207l-152 -207h-182z" />
<glyph unicode="&#xfc;" horiz-adv-x="1183" d="M119 358v613h223v-613q0 -109 53.5 -160t163.5 -51q80 0 149.5 30t122.5 83v711h222v-971h-203l-10 100q-154 -121 -361 -120q-174 0 -267 97t-93 281zM297 1114v176h188v-176h-188zM678 1114v176h188v-176h-188z" />
<glyph unicode="&#xfd;" horiz-adv-x="1224" d="M88 971h231l312 -721l315 721h230l-396 -916q-88 -209 -183 -312t-249 -103q-110 -1 -188 28v166q57 -20 125 -20q61 0 100 19.5t67.5 60t67.5 118.5zM524 1069l154 363h196l-172 -363h-178z" />
<glyph unicode="&#xfe;" horiz-adv-x="1191" d="M129 -442v1876h223v-527q123 84 307 84q213 0 329 -125t116 -381t-118 -380.5t-333 -124.5q-176 0 -301 81v-503h-223zM352 233q98 -86 244 -86q145 0 214 81t69 259q0 174 -64.5 254t-212.5 80q-150 0 -250 -102v-486z" />
<glyph unicode="&#xff;" horiz-adv-x="1224" d="M88 971h231l312 -721l315 721h230l-396 -916q-88 -209 -183 -312t-249 -103q-110 -1 -188 28v166q57 -20 125 -20q61 0 100 19.5t67.5 60t67.5 118.5zM352 1139v176h189v-176h-189zM733 1139v176h189v-176h-189z" />
<glyph unicode="&#x100;" horiz-adv-x="1433" d="M90 0l504 1319h250l499 -1319h-229l-131 340h-530l-131 -340h-232zM410 1452v145h610v-145h-610zM487 512h459l-229 604z" />
<glyph unicode="&#x101;" horiz-adv-x="1120" d="M88 276q0 143 97.5 226.5t291.5 83.5h311v43q0 72 -21.5 111.5t-78.5 58t-164 18.5q-172 0 -321 -51v166q70 27 164 43t198 16q217 0 326.5 -88t109.5 -278v-625h-190l-14 98q-61 -59 -149.5 -88.5t-215.5 -29.5q-147 0 -245.5 76.5t-98.5 219.5zM283 1112v145h610v-145 h-610zM295 281q0 -74 49 -108t148 -34q96 0 171.5 33t124.5 92v170h-307q-98 0 -142 -37t-44 -116z" />
<glyph unicode="&#x102;" horiz-adv-x="1433" d="M90 0l504 1319h250l499 -1319h-229l-131 340h-530l-131 -340h-232zM426 1698h152q0 -72 35.5 -114t101.5 -42q68 0 105.5 42t37.5 114h152q0 -133 -79 -211t-216 -78q-135 0 -212 78t-77 211zM487 512h459l-229 604z" />
<glyph unicode="&#x103;" horiz-adv-x="1120" d="M88 276q0 143 97.5 226.5t291.5 83.5h311v43q0 72 -21.5 111.5t-78.5 58t-164 18.5q-172 0 -321 -51v166q70 27 164 43t198 16q217 0 326.5 -88t109.5 -278v-625h-190l-14 98q-61 -59 -149.5 -88.5t-215.5 -29.5q-147 0 -245.5 76.5t-98.5 219.5zM295 281q0 -74 49 -108 t148 -34q96 0 171.5 33t124.5 92v170h-307q-98 0 -142 -37t-44 -116zM307 1358h152q0 -72 35.5 -114t101.5 -42q68 0 105.5 42t37.5 114h152q0 -133 -79 -211t-216 -78q-135 0 -212 78t-77 211z" />
<glyph unicode="&#x104;" horiz-adv-x="1433" d="M90 0l504 1319h250l499 -1319h-38q-68 -51 -105 -110.5t-37 -118.5q0 -45 23.5 -63.5t73.5 -18.5q26 0 54.5 6t47.5 16v-135q-27 -12 -70 -19.5t-88 -7.5q-94 0 -156.5 46.5t-62.5 136.5q0 78 41 148.5t111 119.5h-23l-131 340h-530l-131 -340h-232zM487 512h459 l-229 604z" />
<glyph unicode="&#x105;" horiz-adv-x="1138" d="M88 276q0 143 97.5 226.5t291.5 83.5h311v43q0 72 -21.5 111.5t-78.5 58t-164 18.5q-172 0 -321 -51v166q70 27 164 43t198 16q217 0 326.5 -88t109.5 -278v-625h-22q-68 -51 -104.5 -110.5t-36.5 -118.5q0 -45 23.5 -63.5t72.5 -18.5q27 0 55.5 6t46.5 16v-135 q-27 -12 -69.5 -19.5t-87.5 -7.5q-94 0 -157 46.5t-63 136.5q0 78 41 148.5t111 119.5l-14 98q-61 -59 -149.5 -88.5t-215.5 -29.5q-147 0 -245.5 76.5t-98.5 219.5zM295 281q0 -74 49 -108t148 -34q96 0 171.5 33t124.5 92v170h-307q-98 0 -142 -37t-44 -116z" />
<glyph unicode="&#x106;" horiz-adv-x="1222" d="M88 639q0 334 164 517t493 183q207 0 388 -63v-195q-174 68 -371 68q-240 0 -344.5 -127t-104.5 -383q0 -233 112 -352t341 -119q203 0 369 63v-196q-176 -55 -387 -55q-320 0 -490 175t-170 484zM618 1409l154 363h197l-172 -363h-179z" />
<glyph unicode="&#x107;" horiz-adv-x="1009" d="M88 485q0 250 141.5 378t388.5 128q98 0 167 -14t135 -45v-166q-106 53 -258 53q-174 0 -261.5 -77.5t-87.5 -256.5q0 -176 81 -255.5t263 -79.5q145 0 265 55v-170q-135 -55 -316 -55q-256 0 -387 129t-131 376zM465 1069l153 363h197l-172 -363h-178z" />
<glyph unicode="&#x108;" horiz-adv-x="1222" d="M88 639q0 334 164 517t493 183q207 0 388 -63v-195q-174 68 -371 68q-240 0 -344.5 -127t-104.5 -383q0 -233 112 -352t341 -119q203 0 369 63v-196q-176 -55 -387 -55q-320 0 -490 175t-170 484zM354 1407l256 330h156l256 -330h-178l-156 207l-151 -207h-183z" />
<glyph unicode="&#x109;" horiz-adv-x="1009" d="M88 485q0 250 141.5 378t388.5 128q98 0 167 -14t135 -45v-166q-106 53 -258 53q-174 0 -261.5 -77.5t-87.5 -256.5q0 -176 81 -255.5t263 -79.5q145 0 265 55v-170q-135 -55 -316 -55q-256 0 -387 129t-131 376zM227 1067l256 330h156l256 -330h-178l-156 207l-151 -207 h-183z" />
<glyph unicode="&#x10a;" horiz-adv-x="1222" d="M88 639q0 334 164 517t493 183q207 0 388 -63v-195q-174 68 -371 68q-240 0 -344.5 -127t-104.5 -383q0 -233 112 -352t341 -119q203 0 369 63v-196q-176 -55 -387 -55q-320 0 -490 175t-170 484zM631 1456v180h188v-180h-188z" />
<glyph unicode="&#x10b;" horiz-adv-x="1009" d="M88 485q0 250 141.5 378t388.5 128q98 0 167 -14t135 -45v-166q-106 53 -258 53q-174 0 -261.5 -77.5t-87.5 -256.5q0 -176 81 -255.5t263 -79.5q145 0 265 55v-170q-135 -55 -316 -55q-256 0 -387 129t-131 376zM481 1116v180h189v-180h-189z" />
<glyph unicode="&#x10c;" horiz-adv-x="1222" d="M88 639q0 334 164 517t493 183q207 0 388 -63v-195q-174 68 -371 68q-240 0 -344.5 -127t-104.5 -383q0 -233 112 -352t341 -119q203 0 369 63v-196q-176 -55 -387 -55q-320 0 -490 175t-170 484zM412 1737h182l151 -207l156 207h178l-256 -330h-155z" />
<glyph unicode="&#x10d;" horiz-adv-x="1011" d="M88 485q0 250 141.5 378t388.5 128q98 0 167 -14t135 -45v-166q-106 53 -258 53q-174 0 -261.5 -77.5t-87.5 -256.5q0 -176 81 -255.5t263 -79.5q145 0 265 55v-170q-135 -55 -316 -55q-256 0 -387 129t-131 376zM231 1397h183l151 -207l156 207h178l-256 -330h-156z" />
<glyph unicode="&#x10e;" horiz-adv-x="1329" d="M129 0v1319h535q297 0 436 -157.5t139 -510.5q0 -338 -139 -494.5t-436 -156.5h-535zM285 1759h182l151 -207l156 207h178l-256 -329h-155zM352 172h277q137 0 220 40t125 144.5t42 294.5q0 193 -39 299.5t-122 150.5t-226 44h-277v-973z" />
<glyph unicode="&#x10f;" horiz-adv-x="1320" d="M88 481q0 254 122 382t331 128q176 0 299 -84v473h223v-1380h-191l-14 96q-68 -61 -145.5 -88.5t-182.5 -27.5q-206 0 -324 123.5t-118 377.5zM313 479q0 -172 66.5 -252t210.5 -80q150 1 250 103v485q-96 86 -242 86q-143 0 -214 -82t-71 -260zM1118 1047l162 378h190 l-178 -378h-174z" />
<glyph unicode="&#x110;" horiz-adv-x="1390" d="M47 561v172h143v586h535q297 0 436 -157.5t139 -510.5q0 -338 -139 -494.5t-436 -156.5h-535v561h-143zM414 172h276q137 0 220 40t125 144.5t42 294.5q0 193 -39 299.5t-121.5 150.5t-226.5 44h-276v-412h338v-172h-338v-389z" />
<glyph unicode="&#x111;" horiz-adv-x="1191" d="M88 481q0 254 122 382t331 128q176 0 299 -84v189h-332v159h332v125h223v-125h100v-159h-100v-1096h-191l-14 96q-68 -61 -145.5 -88.5t-182.5 -27.5q-206 0 -324 123.5t-118 377.5zM313 479q0 -172 66.5 -252t210.5 -80q150 1 250 103v485q-96 86 -242 86 q-143 0 -214 -82t-71 -260z" />
<glyph unicode="&#x112;" horiz-adv-x="1126" d="M129 0v1319h920v-174h-697v-400h621v-172h-621v-401h697v-172h-920zM262 1477v145h610v-145h-610z" />
<glyph unicode="&#x113;" horiz-adv-x="1099" d="M88 487q0 240 121 372t358 132q215 0 330 -112.5t115 -300.5v-181h-711q16 -139 100 -193t265 -54q74 0 150.5 14t135.5 37v-164q-129 -57 -331 -57q-259 0 -396 126.5t-137 380.5zM274 1137v145h611v-145h-611zM301 543h514v67q0 104 -57.5 158.5t-184.5 54.5 q-152 0 -212 -65.5t-60 -214.5z" />
<glyph unicode="&#x114;" horiz-adv-x="1126" d="M129 0v1319h920v-174h-697v-400h621v-172h-621v-401h697v-172h-920zM303 1698h152q0 -72 35.5 -114t101.5 -42q68 0 105.5 42t37.5 114h152q0 -133 -79 -211t-216 -78q-135 0 -212 78t-77 211z" />
<glyph unicode="&#x115;" horiz-adv-x="1099" d="M88 487q0 240 121 372t358 132q215 0 330 -112.5t115 -300.5v-181h-711q16 -139 100 -193t265 -54q74 0 150.5 14t135.5 37v-164q-129 -57 -331 -57q-259 0 -396 126.5t-137 380.5zM274 1358h152q0 -72 36 -114t101 -42q68 0 106 42t38 114h151q0 -133 -79 -211t-216 -78 q-135 0 -212 78t-77 211zM301 543h514v67q0 104 -57.5 158.5t-184.5 54.5q-152 0 -212 -65.5t-60 -214.5z" />
<glyph unicode="&#x116;" horiz-adv-x="1126" d="M129 0v1319h920v-174h-697v-400h621v-172h-621v-401h697v-172h-920zM485 1456v180h189v-180h-189z" />
<glyph unicode="&#x117;" horiz-adv-x="1099" d="M88 487q0 240 121 372t358 132q215 0 330 -112.5t115 -300.5v-181h-711q16 -139 100 -193t265 -54q74 0 150.5 14t135.5 37v-164q-129 -57 -331 -57q-259 0 -396 126.5t-137 380.5zM301 543h514v67q0 104 -57.5 158.5t-184.5 54.5q-152 0 -212 -65.5t-60 -214.5z M467 1116v180h188v-180h-188z" />
<glyph unicode="&#x118;" horiz-adv-x="1126" d="M129 0v1319h920v-174h-697v-400h621v-172h-621v-401h697v-172h-84q-68 -51 -105 -110.5t-37 -118.5q0 -45 23.5 -63.5t73.5 -18.5q27 0 55.5 6t46.5 16v-135q-27 -12 -70 -19.5t-88 -7.5q-94 0 -156.5 46.5t-62.5 136.5q0 78 41 148.5t111 119.5h-668z" />
<glyph unicode="&#x119;" horiz-adv-x="1099" d="M88 487q0 240 121 372t358 132q215 0 330 -112.5t115 -300.5v-181h-711q16 -139 100 -193t265 -54q74 0 150.5 14t135.5 37v-164q-68 -29 -131 -39q-66 -51 -101.5 -109.5t-35.5 -117.5q0 -45 23.5 -63.5t72.5 -18.5q27 0 55.5 6t47.5 16v-135q-27 -12 -70 -19.5 t-88 -7.5q-94 0 -156.5 46.5t-62.5 136.5q0 70 32.5 135t92.5 113h-10q-258 0 -395.5 126.5t-137.5 380.5zM301 543h514v67q0 104 -57.5 158.5t-184.5 54.5q-152 0 -212 -65.5t-60 -214.5z" />
<glyph unicode="&#x11a;" horiz-adv-x="1126" d="M129 0v1319h920v-174h-697v-400h621v-172h-621v-401h697v-172h-920zM262 1737h182l152 -207l156 207h178l-256 -330h-156z" />
<glyph unicode="&#x11b;" horiz-adv-x="1099" d="M88 487q0 240 121 372t358 132q215 0 330 -112.5t115 -300.5v-181h-711q16 -139 100 -193t265 -54q74 0 150.5 14t135.5 37v-164q-129 -57 -331 -57q-259 0 -396 126.5t-137 380.5zM242 1397h182l151 -207l156 207h178l-256 -330h-155zM301 543h514v67q0 104 -57.5 158.5 t-184.5 54.5q-152 0 -212 -65.5t-60 -214.5z" />
<glyph unicode="&#x11c;" horiz-adv-x="1312" d="M88 633q0 334 166 520t496 186q219 0 391 -59v-193q-170 61 -373 62q-244 0 -349.5 -128t-105.5 -388q0 -465 437 -465q176 0 284 41v369h-329v145h520v-635q-74 -47 -194 -77.5t-288 -30.5q-319 0 -487 173t-168 480zM397 1407l256 330h156l256 -330h-178l-156 207 l-151 -207h-183z" />
<glyph unicode="&#x11d;" horiz-adv-x="1134" d="M92 637q0 184 110.5 269t336.5 85q82 0 178 -20h356l-6 -146h-164q76 -68 76 -188q0 -160 -95.5 -247t-283.5 -87q-49 0 -121 10q-66 -6 -113 -33.5t-47 -70.5q0 -31 25 -44t82 -13h272q145 0 224 -62.5t79 -181.5q0 -141 -119.5 -204.5t-359.5 -63.5q-112 0 -219.5 14 t-181.5 39v172q78 -27 184.5 -41t206.5 -14q156 0 219.5 17t63.5 73q0 43 -34 60t-124 17h-262q-129 0 -196.5 48.5t-67.5 138.5q0 63 36.5 113.5t108.5 74.5q-164 80 -164 285zM217 1067l256 330h156l256 -330h-178l-156 207l-152 -207h-182zM299 643q0 -106 54.5 -152.5 t185.5 -46.5q133 0 185 44t52 155t-53 159t-184 48q-127 0 -183.5 -48t-56.5 -159z" />
<glyph unicode="&#x11e;" horiz-adv-x="1312" d="M88 633q0 334 166 520t496 186q219 0 391 -59v-193q-170 61 -373 62q-244 0 -349.5 -128t-105.5 -388q0 -465 437 -465q176 0 284 41v369h-329v145h520v-635q-74 -47 -194 -77.5t-288 -30.5q-319 0 -487 173t-168 480zM444 1698h152q0 -72 36 -114t101 -42q68 0 106 42 t38 114h151q0 -133 -79 -211t-216 -78q-135 0 -212 78t-77 211z" />
<glyph unicode="&#x11f;" horiz-adv-x="1134" d="M92 637q0 184 110.5 269t336.5 85q82 0 178 -20h356l-6 -146h-164q76 -68 76 -188q0 -160 -95.5 -247t-283.5 -87q-49 0 -121 10q-66 -6 -113 -33.5t-47 -70.5q0 -31 25 -44t82 -13h272q145 0 224 -62.5t79 -181.5q0 -141 -119.5 -204.5t-359.5 -63.5q-112 0 -219.5 14 t-181.5 39v172q78 -27 184.5 -41t206.5 -14q156 0 219.5 17t63.5 73q0 43 -34 60t-124 17h-262q-129 0 -196.5 48.5t-67.5 138.5q0 63 36.5 113.5t108.5 74.5q-164 80 -164 285zM258 1358h152q0 -72 35.5 -114t101.5 -42q68 0 105.5 42t37.5 114h152q0 -133 -79 -211 t-216 -78q-135 0 -212 78t-77 211zM299 643q0 -106 54.5 -152.5t185.5 -46.5q133 0 185 44t52 155t-53 159t-184 48q-127 0 -183.5 -48t-56.5 -159z" />
<glyph unicode="&#x120;" horiz-adv-x="1312" d="M88 633q0 334 166 520t496 186q219 0 391 -59v-193q-170 61 -373 62q-244 0 -349.5 -128t-105.5 -388q0 -465 437 -465q176 0 284 41v369h-329v145h520v-635q-74 -47 -194 -77.5t-288 -30.5q-319 0 -487 173t-168 480zM649 1456v180h189v-180h-189z" />
<glyph unicode="&#x121;" horiz-adv-x="1134" d="M92 637q0 184 110.5 269t336.5 85q82 0 178 -20h356l-6 -146h-164q76 -68 76 -188q0 -160 -95.5 -247t-283.5 -87q-49 0 -121 10q-66 -6 -113 -33.5t-47 -70.5q0 -31 25 -44t82 -13h272q145 0 224 -62.5t79 -181.5q0 -141 -119.5 -204.5t-359.5 -63.5q-112 0 -219.5 14 t-181.5 39v172q78 -27 184.5 -41t206.5 -14q156 0 219.5 17t63.5 73q0 43 -34 60t-124 17h-262q-129 0 -196.5 48.5t-67.5 138.5q0 63 36.5 113.5t108.5 74.5q-164 80 -164 285zM299 643q0 -106 54.5 -152.5t185.5 -46.5q133 0 185 44t52 155t-53 159t-184 48 q-127 0 -183.5 -48t-56.5 -159zM440 1100v180h189v-180h-189z" />
<glyph unicode="&#x122;" horiz-adv-x="1312" d="M88 633q0 334 166 520t496 186q219 0 391 -59v-193q-170 61 -373 62q-244 0 -349.5 -128t-105.5 -388q0 -465 437 -465q176 0 284 41v369h-329v145h520v-635q-74 -47 -194 -77.5t-288 -30.5q-319 0 -487 173t-168 480zM616 -473l60 387h184l-94 -387h-150z" />
<glyph unicode="&#x123;" horiz-adv-x="1134" d="M92 637q0 184 110.5 269t336.5 85q82 0 178 -20h356l-6 -146h-164q76 -68 76 -188q0 -160 -95.5 -247t-283.5 -87q-49 0 -121 10q-66 -6 -113 -33.5t-47 -70.5q0 -31 25 -44t82 -13h272q145 0 224 -62.5t79 -181.5q0 -141 -119.5 -204.5t-359.5 -63.5q-112 0 -219.5 14 t-181.5 39v172q78 -27 184.5 -41t206.5 -14q156 0 219.5 17t63.5 73q0 43 -34 60t-124 17h-262q-129 0 -196.5 48.5t-67.5 138.5q0 63 36.5 113.5t108.5 74.5q-164 80 -164 285zM299 643q0 -106 54.5 -152.5t185.5 -46.5q133 0 185 44t52 155t-53 159t-184 48 q-127 0 -183.5 -48t-56.5 -159zM440 1069l95 387h149l-59 -387h-185z" />
<glyph unicode="&#x124;" horiz-adv-x="1339" d="M129 0v1319h223v-574h635v574h223v-1319h-223v573h-635v-573h-223zM334 1407l256 330h155l256 -330h-178l-155 207l-152 -207h-182z" />
<glyph unicode="&#x125;" horiz-adv-x="1183" d="M129 0v1380h223v-503q66 53 155 83.5t195 30.5q184 0 272.5 -88t88.5 -274v-629h-221v618q0 113 -48.5 158t-166.5 45q-74 0 -150 -31.5t-125 -82.5v-707h-223zM139 1438l256 329h156l256 -329h-178l-156 207l-151 -207h-183z" />
<glyph unicode="&#x126;" horiz-adv-x="1339" d="M27 936v174h102v209h223v-209h635v209h223v-209h103v-174h-103v-936h-223v573h-635v-573h-223v936h-102zM352 745h635v191h-635v-191z" />
<glyph unicode="&#x127;" horiz-adv-x="1202" d="M37 1098v162h110v120h222v-120h307v-162h-307v-221q145 115 352 114q184 0 272 -88t88 -274v-629h-223v618q0 113 -48 158t-167 45q-74 0 -148.5 -31.5t-125.5 -82.5v-707h-222v1098h-110z" />
<glyph unicode="&#x128;" horiz-adv-x="481" d="M-86 1432v163q27 27 75 44.5t99 17.5q41 0 77 -10.5t87 -30.5q47 -18 80 -28.5t69 -10.5q106 0 164 76v-164q-20 -29 -64 -46.5t-98 -17.5q-38 0 -73 10.5t-97 32.5q-51 18 -80.5 27.5t-60.5 9.5q-113 0 -178 -73zM129 0v1319h223v-1319h-223z" />
<glyph unicode="&#x129;" horiz-adv-x="630" d="M-8 1090v163q27 27 75 44.5t99 17.5q41 0 77 -10.5t87 -30.5q47 -18 79.5 -28.5t69.5 -10.5q106 0 164 76v-164q-20 -29 -64 -46.5t-98 -17.5q-39 0 -73.5 10.5t-96.5 32.5q-51 18 -80.5 27.5t-60.5 9.5q-113 0 -178 -73zM129 801l21 170h350v-971h-224v801h-147z" />
<glyph unicode="&#x12a;" horiz-adv-x="481" d="M-66 1477v145h611v-145h-611zM129 0v1319h223v-1319h-223z" />
<glyph unicode="&#x12b;" horiz-adv-x="630" d="M12 1157v146h611v-146h-611zM129 801l21 170h350v-971h-224v801h-147z" />
<glyph unicode="&#x12c;" horiz-adv-x="481" d="M-51 1718h151q0 -72 36 -113.5t102 -41.5q68 0 105.5 42t37.5 113h151q0 -133 -78.5 -210.5t-215.5 -77.5q-136 0 -212.5 77.5t-76.5 210.5zM129 0v1319h223v-1319h-223z" />
<glyph unicode="&#x12d;" horiz-adv-x="630" d="M43 1358h152q0 -74 35.5 -116t101.5 -42q68 0 105.5 42t37.5 116h152q0 -133 -79 -212t-216 -79q-135 0 -212 78t-77 213zM129 801l21 170h350v-971h-224v801h-147z" />
<glyph unicode="&#x12e;" horiz-adv-x="481" d="M12 -268q0 78 41 148.5t111 119.5h-35v1319h223v-1319h-20q-68 -51 -105 -110.5t-37 -118.5q0 -45 24 -63.5t73 -18.5q26 0 55 6t47 16v-135q-27 -12 -70 -19.5t-88 -7.5q-94 0 -156.5 46.5t-62.5 136.5z" />
<glyph unicode="&#x12f;" horiz-adv-x="630" d="M129 801l21 170h350v-971h-29q-68 -51 -104.5 -110.5t-36.5 -118.5q0 -45 23.5 -63.5t72.5 -18.5q27 0 55.5 6t46.5 16v-135q-27 -12 -69.5 -19.5t-87.5 -7.5q-94 0 -156.5 46.5t-62.5 136.5q0 78 40.5 148.5t110.5 119.5h-27v801h-147zM258 1174v184h244v-184h-244z" />
<glyph unicode="&#x130;" horiz-adv-x="481" d="M129 0v1319h223v-1319h-223zM145 1462v180h189v-180h-189z" />
<glyph unicode="&#x131;" horiz-adv-x="630" d="M129 801l21 170h350v-971h-224v801h-147z" />
<glyph unicode="&#x132;" horiz-adv-x="1333" d="M129 0v1319h223v-1319h-223zM496 27v188q49 -23 115.5 -35t131.5 -12q135 0 190.5 55.5t55.5 182.5v913h223v-950q0 -190 -108.5 -289.5t-321.5 -99.5q-167 0 -286 47z" />
<glyph unicode="&#x133;" horiz-adv-x="1114" d="M129 801l21 170h350v-971h-224v801h-147zM258 1174v184h244v-184h-244zM465 -285q63 -20 125 -20q96 0 134 33.5t38 115.5v957h-148l21 170h348v-1147q0 -141 -81 -222t-234 -81q-119 0 -203 33v161zM739 1174v184h244v-184h-244z" />
<glyph unicode="&#x134;" horiz-adv-x="882" d="M47 27v188q49 -23 115.5 -35t132.5 -12q135 0 190.5 55.5t55.5 182.5v913h223v-950q0 -190 -108.5 -289.5t-321.5 -99.5q-168 0 -287 47zM317 1407l256 330h156l256 -330h-178l-156 207l-151 -207h-183z" />
<glyph unicode="&#x135;" horiz-adv-x="626" d="M-20 -285q63 -20 124 -20q96 0 134 33.5t38 115.5v957h-147l21 170h348v-1147q0 -141 -81 -222t-235 -81q-118 0 -202 33v161zM14 1067l256 330h156l256 -330h-178l-156 207l-151 -207h-183z" />
<glyph unicode="&#x136;" horiz-adv-x="1280" d="M129 0v1319h223v-606l561 606h258l-485 -533l506 -786h-238l-407 645l-195 -209v-436h-223zM500 -463l59 387h184l-94 -387h-149z" />
<glyph unicode="&#x137;" horiz-adv-x="1126" d="M129 0v1380h223v-798l408 389h256l-395 -391l417 -580h-235l-322 461l-129 -123v-338h-223zM406 -463l59 387h184l-94 -387h-149z" />
<glyph unicode="&#x138;" horiz-adv-x="1126" d="M129 0v971h223v-426l408 426h256l-395 -418l417 -553h-235l-320 432l-131 -135v-297h-223z" />
<glyph unicode="&#x139;" horiz-adv-x="1075" d="M129 0v1319h223v-1147h676v-172h-899zM145 1409l154 363h197l-172 -363h-179z" />
<glyph unicode="&#x13a;" horiz-adv-x="573" d="M129 231v1149h223v-1128q0 -55 19.5 -76.5t62.5 -21.5q49 0 94 12v-162q-68 -25 -157 -24q-123 0 -182.5 59t-59.5 192zM145 1499l154 363h197l-172 -363h-179z" />
<glyph unicode="&#x13b;" horiz-adv-x="1075" d="M129 0v1319h223v-1147h676v-172h-899zM446 -463l60 387h184l-94 -387h-150z" />
<glyph unicode="&#x13c;" horiz-adv-x="573" d="M129 231v1149h223v-1128q0 -55 19.5 -76.5t62.5 -21.5q49 0 94 12v-162q-68 -25 -157 -24q-123 0 -182.5 59t-59.5 192zM213 -463l59 387h185l-95 -387h-149z" />
<glyph unicode="&#x13d;" horiz-adv-x="1075" d="M129 0v1319h223v-1147h676v-172h-899zM637 1159l59 387h185l-95 -387h-149z" />
<glyph unicode="&#x13e;" horiz-adv-x="636" d="M129 231v1149h223v-1128q0 -55 19.5 -76.5t62.5 -21.5q49 0 94 12v-162q-68 -25 -157 -24q-123 0 -182.5 59t-59.5 192zM469 1329l59 387h185l-95 -387h-149z" />
<glyph unicode="&#x13f;" horiz-adv-x="1075" d="M129 0v1319h223v-1147h676v-172h-899zM647 547v180h189v-180h-189z" />
<glyph unicode="&#x140;" horiz-adv-x="624" d="M129 231v1149h223v-1128q0 -55 19.5 -76.5t62.5 -21.5q49 0 94 12v-162q-68 -25 -157 -24q-123 0 -182.5 59t-59.5 192zM483 559v180h189v-180h-189z" />
<glyph unicode="&#x141;" horiz-adv-x="1075" d="M-49 469v172l178 78v600h223v-502l264 117v-172l-264 -117v-473h676v-172h-899v547z" />
<glyph unicode="&#x142;" horiz-adv-x="573" d="M-70 475v172l199 86v647h223v-549l223 99v-172l-223 -99v-407q0 -55 19.5 -76.5t62.5 -21.5q49 0 94 12v-162q-68 -25 -157 -24q-123 0 -182.5 59t-59.5 192v330z" />
<glyph unicode="&#x143;" horiz-adv-x="1366" d="M129 0v1319h197l688 -971v971h221v-1319h-197l-686 969v-969h-223zM580 1409l153 363h197l-172 -363h-178z" />
<glyph unicode="&#x144;" horiz-adv-x="1183" d="M129 0v971h205l10 -103q70 55 162 89t196 34q188 0 274.5 -88t86.5 -274v-629h-221v618q0 113 -47 158t-172 45q-76 0 -149 -30.5t-122 -79.5v-711h-223zM471 1069l154 363h196l-172 -363h-178z" />
<glyph unicode="&#x145;" horiz-adv-x="1366" d="M129 0v1319h197l688 -971v971h221v-1319h-197l-686 969v-969h-223zM551 -463l59 387h185l-95 -387h-149z" />
<glyph unicode="&#x146;" horiz-adv-x="1183" d="M129 0v971h205l10 -103q70 55 162 89t196 34q188 0 274.5 -88t86.5 -274v-629h-221v618q0 113 -47 158t-172 45q-76 0 -149 -30.5t-122 -79.5v-711h-223zM467 -463l59 387h185l-95 -387h-149z" />
<glyph unicode="&#x147;" horiz-adv-x="1366" d="M129 0v1319h197l688 -971v971h221v-1319h-197l-686 969v-969h-223zM365 1737h182l151 -207l156 207h178l-256 -330h-155z" />
<glyph unicode="&#x148;" horiz-adv-x="1183" d="M129 0v971h205l10 -103q70 55 162 89t196 34q188 0 274.5 -88t86.5 -274v-629h-221v618q0 113 -47 158t-172 45q-76 0 -149 -30.5t-122 -79.5v-711h-223zM238 1397h182l151 -207l156 207h178l-256 -330h-155z" />
<glyph unicode="&#x149;" horiz-adv-x="1298" d="M-35 938l60 387h184l-94 -387h-150zM244 0v971h205l10 -103q70 55 162 89t196 34q188 0 274.5 -88t86.5 -274v-629h-222v618q0 113 -47 158t-172 45q-76 0 -148.5 -30.5t-121.5 -79.5v-711h-223z" />
<glyph unicode="&#x14a;" horiz-adv-x="1366" d="M129 0v1319h197l688 -971v971h221v-1495q0 -141 -81 -222t-234 -81q-119 0 -203 33v161q63 -20 125 -20q96 0 134 33.5t38 115.5v191l-662 934v-969h-223z" />
<glyph unicode="&#x14b;" horiz-adv-x="1183" d="M129 0v971h205l10 -103q70 55 162 89t196 34q188 0 274.5 -88t86.5 -274v-805q0 -141 -81 -222t-234 -81q-119 0 -203 33v161q63 -20 125 -20q96 0 134 33.5t38 115.5v774q0 113 -47 158t-172 45q-76 0 -149 -30.5t-122 -79.5v-711h-223z" />
<glyph unicode="&#x14c;" horiz-adv-x="1427" d="M88 655q0 356 153.5 520t471.5 164q317 0 470.5 -163.5t153.5 -520.5q0 -346 -154.5 -510.5t-469.5 -164.5q-316 0 -470.5 164.5t-154.5 510.5zM313 655q0 -256 96.5 -371.5t303.5 -115.5q209 0 305 114.5t96 372.5q0 268 -95 381t-306 113q-209 0 -304.5 -112.5 t-95.5 -381.5zM403 1477v145h611v-145h-611z" />
<glyph unicode="&#x14d;" horiz-adv-x="1189" d="M88 485q0 506 506 506q508 0 508 -506t-508 -505q-506 -1 -506 505zM283 1137v145h610v-145h-610zM313 485q0 -170 64.5 -243.5t216.5 -73.5q154 0 218.5 73.5t64.5 243.5q0 168 -64.5 242t-218.5 74q-152 0 -216.5 -74t-64.5 -242z" />
<glyph unicode="&#x14e;" horiz-adv-x="1427" d="M88 655q0 356 153.5 520t471.5 164q317 0 470.5 -163.5t153.5 -520.5q0 -346 -154.5 -510.5t-469.5 -164.5q-316 0 -470.5 164.5t-154.5 510.5zM313 655q0 -256 96.5 -371.5t303.5 -115.5q209 0 305 114.5t96 372.5q0 268 -95 381t-306 113q-209 0 -304.5 -112.5 t-95.5 -381.5zM422 1698h151q0 -72 36 -114t102 -42q68 0 105.5 42t37.5 114h152q0 -133 -79 -211t-216 -78q-136 0 -212.5 78t-76.5 211z" />
<glyph unicode="&#x14f;" horiz-adv-x="1189" d="M88 485q0 506 506 506q508 0 508 -506t-508 -505q-506 -1 -506 505zM303 1358h152q0 -72 35.5 -114t101.5 -42q68 0 105.5 42t37.5 114h152q0 -133 -79 -211t-216 -78q-135 0 -212 78t-77 211zM313 485q0 -170 64.5 -243.5t216.5 -73.5q154 0 218.5 73.5t64.5 243.5 q0 168 -64.5 242t-218.5 74q-152 0 -216.5 -74t-64.5 -242z" />
<glyph unicode="&#x150;" horiz-adv-x="1427" d="M88 655q0 356 153.5 520t471.5 164q317 0 470.5 -163.5t153.5 -520.5q0 -346 -154.5 -510.5t-469.5 -164.5q-316 0 -470.5 164.5t-154.5 510.5zM313 655q0 -256 96.5 -371.5t303.5 -115.5q209 0 305 114.5t96 372.5q0 268 -95 381t-306 113q-209 0 -304.5 -112.5 t-95.5 -381.5zM348 1407l154 336h203l-177 -336h-180zM793 1407l153 336h203l-176 -336h-180z" />
<glyph unicode="&#x151;" horiz-adv-x="1189" d="M88 485q0 506 506 506q508 0 508 -506t-508 -505q-506 -1 -506 505zM276 1067l154 336h203l-176 -336h-181zM313 485q0 -170 64.5 -243.5t216.5 -73.5q154 0 218.5 73.5t64.5 243.5q0 168 -64.5 242t-218.5 74q-152 0 -216.5 -74t-64.5 -242zM721 1067l153 336h203 l-176 -336h-180z" />
<glyph unicode="&#x152;" horiz-adv-x="2123" d="M88 655q0 356 153.5 520t471.5 164q254 0 401 -102v82h920v-174h-697v-400h621v-172h-621v-401h697v-172h-920v84q-150 -104 -401 -104q-315 0 -470 164.5t-155 510.5zM313 655q0 -256 96.5 -371.5t303.5 -115.5q209 0 305 114.5t96 372.5q0 268 -95 381t-306 113 q-209 0 -304.5 -112.5t-95.5 -381.5z" />
<glyph unicode="&#x153;" horiz-adv-x="1898" d="M88 485q0 506 506 506q274 0 399 -147q125 147 373 147q215 0 329.5 -112.5t114.5 -300.5v-181h-710q16 -139 100 -193t264 -54q74 0 151 14t136 37v-164q-129 -57 -332 -57q-287 0 -420 151q-127 -152 -405 -151q-506 0 -506 505zM313 485q0 -170 64.5 -243.5 t216.5 -73.5q154 0 218.5 73.5t64.5 243.5q0 168 -64.5 242t-218.5 74q-152 0 -216.5 -74t-64.5 -242zM1100 543h514v67q0 104 -57.5 158.5t-184.5 54.5q-150 0 -211 -65.5t-61 -210.5v-4z" />
<glyph unicode="&#x154;" horiz-adv-x="1249" d="M129 0v1319h606q215 0 319.5 -110.5t104.5 -311.5q0 -141 -70.5 -238.5t-199.5 -136.5q35 -25 55.5 -54.5t42.5 -84.5l166 -383h-229l-162 369q-25 55 -57.5 76.5t-104.5 21.5h-248v-467h-223zM352 647h324q260 0 260 250q0 248 -240 248h-344v-498zM489 1409l154 363 h197l-172 -363h-179z" />
<glyph unicode="&#x155;" horiz-adv-x="751" d="M129 0v971h205l12 -113q70 45 166 82t190 51v-170q-88 -16 -190 -50t-160 -71v-700h-223zM141 1069l154 363h197l-173 -363h-178z" />
<glyph unicode="&#x156;" horiz-adv-x="1249" d="M129 0v1319h606q215 0 319.5 -110.5t104.5 -311.5q0 -141 -70.5 -238.5t-199.5 -136.5q35 -25 55.5 -54.5t42.5 -84.5l166 -383h-229l-162 369q-25 55 -57.5 76.5t-104.5 21.5h-248v-467h-223zM352 647h324q260 0 260 250q0 248 -240 248h-344v-498zM446 -463l60 387h184 l-94 -387h-150z" />
<glyph unicode="&#x157;" horiz-adv-x="751" d="M84 -463l59 387h185l-95 -387h-149zM129 0v971h205l12 -113q70 45 166 82t190 51v-170q-88 -16 -190 -50t-160 -71v-700h-223z" />
<glyph unicode="&#x158;" horiz-adv-x="1249" d="M129 0v1319h606q215 0 319.5 -110.5t104.5 -311.5q0 -141 -70.5 -238.5t-199.5 -136.5q35 -25 55.5 -54.5t42.5 -84.5l166 -383h-229l-162 369q-25 55 -57.5 76.5t-104.5 21.5h-248v-467h-223zM268 1737h183l151 -207l156 207h178l-256 -330h-156zM352 647h324 q260 0 260 250q0 248 -240 248h-344v-498z" />
<glyph unicode="&#x159;" horiz-adv-x="751" d="M-55 1397h182l152 -207l155 207h178l-256 -330h-155zM129 0v971h205l12 -113q70 45 166 82t190 51v-170q-88 -16 -190 -50t-160 -71v-700h-223z" />
<glyph unicode="&#x15a;" horiz-adv-x="1136" d="M88 969q0 176 129 273t377 97q109 0 210 -15t165 -38v-196q-156 59 -344 59q-156 0 -234 -41t-78 -139q0 -59 29 -95t95.5 -64t199.5 -60q231 -59 321.5 -153.5t90.5 -244.5q0 -176 -132.5 -274t-388.5 -98q-255 -1 -411 65v197q190 -74 391 -74q166 0 240.5 39t74.5 145 q0 68 -31.5 108t-103.5 68.5t-215 65.5q-213 55 -299 140t-86 235zM444 1415l154 363h197l-172 -363h-179z" />
<glyph unicode="&#x15b;" horiz-adv-x="950" d="M88 713q0 137 98.5 207.5t307.5 70.5q80 0 156.5 -12t131.5 -31v-186q-55 23 -123.5 35t-130.5 12q-113 0 -164 -19.5t-51 -72.5q0 -47 39 -70.5t154 -60.5l45 -15q119 -37 184.5 -74.5t95 -92t29.5 -140.5q0 -285 -407 -284q-99 0 -191 13t-151 36v188q68 -27 150.5 -41 t162.5 -14q119 0 166 20.5t47 79.5q0 53 -43 79t-162 62l-61 21q-147 49 -215 109.5t-68 179.5zM362 1069l154 363h197l-172 -363h-179z" />
<glyph unicode="&#x15c;" horiz-adv-x="1136" d="M88 969q0 176 129 273t377 97q109 0 210 -15t165 -38v-196q-156 59 -344 59q-156 0 -234 -41t-78 -139q0 -59 29 -95t95.5 -64t199.5 -60q231 -59 321.5 -153.5t90.5 -244.5q0 -176 -132.5 -274t-388.5 -98q-255 -1 -411 65v197q190 -74 391 -74q166 0 240.5 39t74.5 145 q0 68 -31.5 108t-103.5 68.5t-215 65.5q-213 55 -299 140t-86 235zM229 1423l256 330h156l256 -330h-178l-156 207l-151 -207h-183z" />
<glyph unicode="&#x15d;" horiz-adv-x="950" d="M88 713q0 137 98.5 207.5t307.5 70.5q80 0 156.5 -12t131.5 -31v-186q-55 23 -123.5 35t-130.5 12q-113 0 -164 -19.5t-51 -72.5q0 -47 39 -70.5t154 -60.5l45 -15q119 -37 184.5 -74.5t95 -92t29.5 -140.5q0 -285 -407 -284q-99 0 -191 13t-151 36v188q68 -27 150.5 -41 t162.5 -14q119 0 166 20.5t47 79.5q0 53 -43 79t-162 62l-61 21q-147 49 -215 109.5t-68 179.5zM150 1077l256 330h155l256 -330h-178l-156 207l-151 -207h-182z" />
<glyph unicode="&#x15e;" horiz-adv-x="1136" d="M88 969q0 176 129 273t377 97q109 0 210 -15t165 -38v-196q-156 59 -344 59q-156 0 -234 -41t-78 -139q0 -59 29 -95t95.5 -64t199.5 -60q231 -59 321.5 -153.5t90.5 -244.5q0 -162 -112 -259t-331 -111l-26 -78q109 0 166 -48.5t57 -136.5q0 -211 -303 -211 q-33 0 -80 5.5t-70 11.5v121q59 -16 127 -17q96 0 135 18.5t39 73.5q0 53 -38 68.5t-128 15.5h-82l54 177q-203 6 -340 63v197q190 -74 391 -74q166 0 240.5 39t74.5 145q0 68 -31.5 108t-103.5 68.5t-215 65.5q-213 55 -299 140t-86 235z" />
<glyph unicode="&#x15f;" horiz-adv-x="950" d="M88 713q0 137 98.5 207.5t307.5 70.5q80 0 156.5 -12t131.5 -31v-186q-55 23 -123.5 35t-130.5 12q-113 0 -164 -19.5t-51 -72.5q0 -47 39 -70.5t154 -60.5l45 -15q119 -37 184.5 -74.5t95 -92t29.5 -140.5q0 -127 -83 -197.5t-242 -82.5l-27 -80q109 0 166 -48.5 t57 -136.5q0 -211 -303 -211q-33 0 -80 5.5t-69 11.5v121q59 -16 127 -17q96 0 135 18.5t39 73.5q0 53 -38 68.5t-128 15.5h-82l53 177q-166 6 -274 47v188q68 -27 150.5 -41t162.5 -14q119 0 166 20.5t47 79.5q0 53 -43 79t-162 62l-61 21q-147 49 -215 109.5t-68 179.5z " />
<glyph unicode="&#x160;" horiz-adv-x="1136" d="M88 969q0 176 129 273t377 97q109 0 210 -15t165 -38v-196q-156 59 -344 59q-156 0 -234 -41t-78 -139q0 -59 29 -95t95.5 -64t199.5 -60q231 -59 321.5 -153.5t90.5 -244.5q0 -176 -132.5 -274t-388.5 -98q-255 -1 -411 65v197q190 -74 391 -74q166 0 240.5 39t74.5 145 q0 68 -31.5 108t-103.5 68.5t-215 65.5q-213 55 -299 140t-86 235zM260 1737h182l152 -207l156 207h178l-256 -330h-156z" />
<glyph unicode="&#x161;" horiz-adv-x="950" d="M88 713q0 137 98.5 207.5t307.5 70.5q80 0 156.5 -12t131.5 -31v-186q-55 23 -123.5 35t-130.5 12q-113 0 -164 -19.5t-51 -72.5q0 -47 39 -70.5t154 -60.5l45 -15q119 -37 184.5 -74.5t95 -92t29.5 -140.5q0 -285 -407 -284q-99 0 -191 13t-151 36v188q68 -27 150.5 -41 t162.5 -14q119 0 166 20.5t47 79.5q0 53 -43 79t-162 62l-61 21q-147 49 -215 109.5t-68 179.5zM145 1397h183l151 -207l156 207h178l-256 -330h-156z" />
<glyph unicode="&#x162;" horiz-adv-x="1163" d="M49 1145v174h1065v-174h-420v-1145h-41l-32 -96q109 0 166 -48.5t57 -136.5q0 -211 -303 -211q-33 0 -80 5.5t-70 11.5v121q59 -16 127 -17q96 0 135 18.5t39 73.5q0 53 -38 68.5t-128 15.5h-82l60 195h-33v1145h-422z" />
<glyph unicode="&#x163;" horiz-adv-x="765" d="M47 797v174h143v223l222 68v-291h258l-15 -174h-243v-496q0 -84 37.5 -117.5t128.5 -33.5q55 0 116 20v-158q-66 -27 -153 -32l-27 -76q109 0 166 -48.5t57 -136.5q0 -211 -303 -211q-33 0 -80 5.5t-69 11.5v121q59 -16 127 -17q96 0 135 18.5t39 73.5q0 53 -38 68.5 t-128 15.5h-82l57 187q-102 25 -153.5 100.5t-51.5 196.5v508h-143z" />
<glyph unicode="&#x164;" horiz-adv-x="1163" d="M49 1145v174h1065v-174h-420v-1145h-223v1145h-422zM248 1753h182l152 -207l155 207h178l-256 -330h-155z" />
<glyph unicode="&#x165;" horiz-adv-x="864" d="M47 797v174h143v223l222 68v-291h258l-15 -174h-243v-496q0 -84 37.5 -117.5t128.5 -33.5q55 0 116 20v-158q-80 -33 -194 -32q-154 0 -232 80.5t-78 228.5v508h-143zM633 1145l59 387h185l-95 -387h-149z" />
<glyph unicode="&#x166;" horiz-adv-x="1163" d="M49 1145v174h1065v-174h-420v-352h244v-166h-244v-627h-223v627h-283v166h283v352h-422z" />
<glyph unicode="&#x167;" horiz-adv-x="755" d="M47 424v154h156v219h-144v174h144v223l221 68v-291h258l-14 -174h-244v-219h246v-154h-246v-123q0 -84 38 -117.5t128 -33.5q55 0 117 20v-158q-80 -33 -195 -32q-154 0 -231.5 80.5t-77.5 228.5v135h-156z" />
<glyph unicode="&#x168;" horiz-adv-x="1380" d="M119 489v830h223v-821q0 -164 90 -247t260 -83q168 0 258 83t90 247v821h222v-830q0 -248 -148.5 -378.5t-421.5 -130.5q-274 0 -423.5 131t-149.5 378zM352 1446v164q27 27 75 44t99 17q41 0 77 -10t87 -31q47 -18 80 -28.5t70 -10.5q106 0 164 76v-164 q-20 -29 -64.5 -46t-97.5 -17q-39 0 -74 10t-96 33q-51 18 -81 27.5t-61 9.5q-113 0 -178 -74z" />
<glyph unicode="&#x169;" horiz-adv-x="1183" d="M119 358v613h223v-613q0 -109 53.5 -160t163.5 -51q80 0 149.5 30t122.5 83v711h222v-971h-203l-10 100q-154 -121 -361 -120q-174 0 -267 97t-93 281zM260 1106v164q27 27 75 44t99 17q41 0 77 -10t87 -31q47 -18 80 -28.5t70 -10.5q106 0 163 76v-164q-20 -29 -64 -46 t-97 -17q-39 0 -74 10t-96 33q-51 18 -81 27.5t-61 9.5q-113 0 -178 -74z" />
<glyph unicode="&#x16a;" horiz-adv-x="1380" d="M119 489v830h223v-821q0 -164 90 -247t260 -83q168 0 258 83t90 247v821h222v-830q0 -248 -148.5 -378.5t-421.5 -130.5q-274 0 -423.5 131t-149.5 378zM373 1477v145h610v-145h-610z" />
<glyph unicode="&#x16b;" horiz-adv-x="1183" d="M119 358v613h223v-613q0 -109 53.5 -160t163.5 -51q80 0 149.5 30t122.5 83v711h222v-971h-203l-10 100q-154 -121 -361 -120q-174 0 -267 97t-93 281zM281 1137v145h610v-145h-610z" />
<glyph unicode="&#x16c;" horiz-adv-x="1380" d="M119 489v830h223v-821q0 -164 90 -247t260 -83q168 0 258 83t90 247v821h222v-830q0 -248 -148.5 -378.5t-421.5 -130.5q-274 0 -423.5 131t-149.5 378zM375 1698h151q0 -72 36 -114t102 -42q68 0 105.5 42t37.5 114h151q0 -133 -78.5 -211t-215.5 -78q-136 0 -212.5 78 t-76.5 211z" />
<glyph unicode="&#x16d;" horiz-adv-x="1183" d="M119 358v613h223v-613q0 -109 53.5 -160t163.5 -51q80 0 149.5 30t122.5 83v711h222v-971h-203l-10 100q-154 -121 -361 -120q-174 0 -267 97t-93 281zM301 1358h152q0 -72 35.5 -114t101.5 -42q68 0 105.5 42t37.5 114h152q0 -133 -79 -211t-216 -78q-135 0 -212 78 t-77 211z" />
<glyph unicode="&#x16e;" horiz-adv-x="1380" d="M119 489v830h223v-821q0 -164 90 -247t260 -83q168 0 258 83t90 247v821h222v-830q0 -248 -148.5 -378.5t-421.5 -130.5q-274 0 -423.5 131t-149.5 378zM438 1638q0 100 65.5 167t172.5 67q109 0 175.5 -66.5t66.5 -167.5q0 -98 -67 -164.5t-175 -66.5 q-107 0 -172.5 66.5t-65.5 164.5zM555 1638q0 -51 34 -85.5t87 -34.5q55 0 90 34.5t35 85.5t-35 86t-90 35q-53 0 -87 -34.5t-34 -86.5z" />
<glyph unicode="&#x16f;" horiz-adv-x="1183" d="M119 358v613h223v-613q0 -109 53.5 -160t163.5 -51q80 0 149.5 30t122.5 83v711h222v-971h-203l-10 100q-154 -121 -361 -120q-174 0 -267 97t-93 281zM338 1298q0 100 65.5 167t171.5 67q109 0 175.5 -66.5t66.5 -167.5q0 -98 -66.5 -164.5t-175.5 -66.5 q-106 0 -171.5 66.5t-65.5 164.5zM455 1298q0 -51 33.5 -85.5t86.5 -34.5q56 0 90.5 34.5t34.5 85.5t-34.5 86t-90.5 35q-53 0 -86.5 -34.5t-33.5 -86.5z" />
<glyph unicode="&#x170;" horiz-adv-x="1380" d="M119 489v830h223v-821q0 -164 90 -247t260 -83q168 0 258 83t90 247v821h222v-830q0 -248 -148.5 -378.5t-421.5 -130.5q-274 0 -423.5 131t-149.5 378zM315 1407l154 336h203l-176 -336h-181zM760 1407l153 336h203l-176 -336h-180z" />
<glyph unicode="&#x171;" horiz-adv-x="1183" d="M119 358v613h223v-613q0 -109 53.5 -160t163.5 -51q80 0 149.5 30t122.5 83v711h222v-971h-203l-10 100q-154 -121 -361 -120q-174 0 -267 97t-93 281zM215 1067l154 336h202l-176 -336h-180zM659 1067l154 336h203l-176 -336h-181z" />
<glyph unicode="&#x172;" horiz-adv-x="1380" d="M119 489v830h223v-821q0 -164 90 -247t260 -83q168 0 258 83t90 247v821h222v-830q0 -217 -116 -345t-329 -156q-125 -104 -125 -217q0 -45 23.5 -63.5t72.5 -18.5q27 0 55.5 6t47.5 16v-135q-27 -12 -70 -19.5t-88 -7.5q-94 0 -156.5 46.5t-62.5 136.5q0 70 34 135 t93 115q-250 12 -386 142t-136 365z" />
<glyph unicode="&#x173;" horiz-adv-x="1185" d="M119 358v613h223v-613q0 -109 53.5 -160t163.5 -51q80 0 149.5 30t122.5 83v711h222v-971h-35q-68 -51 -104.5 -110.5t-36.5 -118.5q0 -45 23.5 -63.5t72.5 -18.5q26 0 55 6t47 16v-135q-27 -12 -69.5 -19.5t-87.5 -7.5q-94 0 -157 46.5t-63 136.5q0 78 41 148.5 t111 119.5l-10 100q-154 -121 -361 -120q-174 0 -267 97t-93 281z" />
<glyph unicode="&#x174;" horiz-adv-x="1779" d="M90 1319h219l223 -989l250 829v160h183l280 -989l228 989h217l-306 -1319h-219l-264 924l-280 -924h-224zM565 1407l256 330h156l256 -330h-178l-156 207l-151 -207h-183z" />
<glyph unicode="&#x175;" horiz-adv-x="1527" d="M88 971h223l168 -707l191 588v119h170l211 -707l168 707h221l-254 -971h-211l-207 635l-211 -635h-213zM432 1067l256 330h156l256 -330h-178l-156 207l-152 -207h-182z" />
<glyph unicode="&#x176;" horiz-adv-x="1343" d="M88 1319h231l353 -641l352 641h231l-473 -830v-489h-221v489zM338 1407l256 330h156l256 -330h-179l-155 207l-152 -207h-182z" />
<glyph unicode="&#x177;" horiz-adv-x="1224" d="M88 971h231l312 -721l315 721h230l-396 -916q-88 -209 -183 -312t-249 -103q-110 -1 -188 28v166q57 -20 125 -20q61 0 100 19.5t67.5 60t67.5 118.5zM299 1067l256 330h156l256 -330h-179l-155 207l-152 -207h-182z" />
<glyph unicode="&#x178;" horiz-adv-x="1343" d="M88 1319h231l353 -641l352 641h231l-473 -830v-489h-221v489zM387 1458v176h188v-176h-188zM768 1458v176h188v-176h-188z" />
<glyph unicode="&#x179;" horiz-adv-x="1177" d="M88 0v119l709 1018h-674v182h960v-137l-702 -1010h713v-172h-1006zM512 1409l154 363h196l-172 -363h-178z" />
<glyph unicode="&#x17a;" horiz-adv-x="997" d="M88 0v117l530 671h-505v183h780v-137l-520 -662h534v-172h-819zM408 1069l153 363h197l-172 -363h-178z" />
<glyph unicode="&#x17b;" horiz-adv-x="1177" d="M88 0v119l709 1018h-674v182h960v-137l-702 -1010h713v-172h-1006zM518 1456v180h189v-180h-189z" />
<glyph unicode="&#x17c;" horiz-adv-x="997" d="M88 0v117l530 671h-505v183h780v-137l-520 -662h534v-172h-819zM410 1116v180h188v-180h-188z" />
<glyph unicode="&#x17d;" horiz-adv-x="1177" d="M88 0v119l709 1018h-674v182h960v-137l-702 -1010h713v-172h-1006zM295 1737h182l152 -207l155 207h179l-256 -330h-156z" />
<glyph unicode="&#x17e;" horiz-adv-x="997" d="M88 0v117l530 671h-505v183h780v-137l-520 -662h534v-172h-819zM154 1397h182l151 -207l156 207h178l-256 -330h-155z" />
<glyph unicode="&#x18f;" horiz-adv-x="1380" d="M88 530v228h999q-8 150 -62 238.5t-167 129.5t-301 41q-94 0 -201.5 -21.5t-187.5 -55.5v170q92 35 208 57t228 22q688 0 688 -696q0 -319 -152.5 -491t-473.5 -172q-285 0 -431.5 148t-146.5 402zM285 487q0 -164 100 -253t281 -89q213 0 317 113t104 340h-802v-111z " />
<glyph unicode="&#x192;" horiz-adv-x="1058" d="M-133 -59q57 -23 123 -23q94 0 139 35t66 127l149 717h-139l37 174h139l27 119q37 160 132 241.5t257 81.5q57 0 95 -8t83 -27v-159q-27 10 -68 16t-76 6q-92 0 -138 -35t-64 -119l-25 -116h254l-47 -174h-244l-153 -727q-33 -160 -126 -241t-255 -81q-105 0 -166 35v158 z" />
<glyph unicode="&#x1a0;" horiz-adv-x="1576" d="M88 655q0 356 153.5 520t471.5 164q309 0 461 -157q113 2 154.5 50t41.5 177h172q0 -184 -65.5 -271t-202.5 -108q63 -145 63 -375q0 -346 -154.5 -510.5t-469.5 -164.5q-316 0 -470.5 164.5t-154.5 510.5zM313 655q0 -256 96.5 -371.5t303.5 -115.5q209 0 305 114.5 t96 372.5q0 268 -95 381t-306 113q-209 0 -304.5 -112.5t-95.5 -381.5z" />
<glyph unicode="&#x1a1;" horiz-adv-x="1384" d="M88 485q0 506 506 506q256 0 385 -133q115 2 157 54.5t42 185.5h172q0 -188 -69 -278.5t-214 -110.5q35 -98 35 -224q0 -506 -508 -505q-506 -1 -506 505zM313 485q0 -170 64.5 -243.5t216.5 -73.5q154 0 218.5 73.5t64.5 243.5q0 168 -64.5 242t-218.5 74 q-152 0 -216.5 -74t-64.5 -242z" />
<glyph unicode="&#x1af;" horiz-adv-x="1681" d="M119 489v830h223v-821q0 -164 90 -247t260 -83q168 0 258 83t90 247v821h222v-143q113 4 155.5 53t42.5 180h172q0 -145 -39 -230t-119.5 -122t-211.5 -39v-529q0 -248 -148.5 -378.5t-421.5 -130.5q-274 0 -423.5 131t-149.5 378z" />
<glyph unicode="&#x1b0;" horiz-adv-x="1437" d="M119 358v613h223v-613q0 -109 53.5 -160t163.5 -51q80 0 149.5 30t122.5 83v711h222v-113q96 8 132 61.5t36 178.5h172q0 -201 -83 -294t-257 -99v-705h-203l-10 100q-154 -121 -361 -120q-174 0 -267 97t-93 281z" />
<glyph unicode="&#x1cd;" horiz-adv-x="1433" d="M90 0l504 1319h250l499 -1319h-229l-131 340h-530l-131 -340h-232zM381 1737h182l152 -207l155 207h179l-256 -330h-156zM487 512h459l-229 604z" />
<glyph unicode="&#x1ce;" horiz-adv-x="1120" d="M88 276q0 143 97.5 226.5t291.5 83.5h311v43q0 72 -21.5 111.5t-78.5 58t-164 18.5q-172 0 -321 -51v166q70 27 164 43t198 16q217 0 326.5 -88t109.5 -278v-625h-190l-14 98q-61 -59 -149.5 -88.5t-215.5 -29.5q-147 0 -245.5 76.5t-98.5 219.5zM246 1397h182l152 -207 l155 207h178l-256 -330h-155zM295 281q0 -74 49 -108t148 -34q96 0 171.5 33t124.5 92v170h-307q-98 0 -142 -37t-44 -116z" />
<glyph unicode="&#x1cf;" horiz-adv-x="481" d="M-92 1737h182l152 -207l155 207h178l-256 -330h-155zM129 0v1319h223v-1319h-223z" />
<glyph unicode="&#x1d0;" horiz-adv-x="630" d="M4 1397h182l152 -207l156 207h178l-256 -330h-156zM129 801l21 170h350v-971h-224v801h-147z" />
<glyph unicode="&#x1d1;" horiz-adv-x="1427" d="M88 655q0 356 153.5 520t471.5 164q317 0 470.5 -163.5t153.5 -520.5q0 -346 -154.5 -510.5t-469.5 -164.5q-316 0 -470.5 164.5t-154.5 510.5zM313 655q0 -256 96.5 -371.5t303.5 -115.5q209 0 305 114.5t96 372.5q0 268 -95 381t-306 113q-209 0 -304.5 -112.5 t-95.5 -381.5zM379 1737h182l152 -207l155 207h179l-256 -330h-156z" />
<glyph unicode="&#x1d2;" horiz-adv-x="1189" d="M88 485q0 506 506 506q508 0 508 -506t-508 -505q-506 -1 -506 505zM260 1397h182l152 -207l156 207h178l-256 -330h-156zM313 485q0 -170 64.5 -243.5t216.5 -73.5q154 0 218.5 73.5t64.5 243.5q0 168 -64.5 242t-218.5 74q-152 0 -216.5 -74t-64.5 -242z" />
<glyph unicode="&#x1d3;" horiz-adv-x="1380" d="M119 489v830h223v-821q0 -164 90 -247t260 -83q168 0 258 83t90 247v821h222v-830q0 -248 -148.5 -378.5t-421.5 -130.5q-274 0 -423.5 131t-149.5 378zM356 1737h183l151 -207l156 207h178l-256 -330h-156z" />
<glyph unicode="&#x1d4;" horiz-adv-x="1183" d="M119 358v613h223v-613q0 -109 53.5 -160t163.5 -51q80 0 149.5 30t122.5 83v711h222v-971h-203l-10 100q-154 -121 -361 -120q-174 0 -267 97t-93 281zM252 1397h182l152 -207l155 207h179l-256 -330h-156z" />
<glyph unicode="&#x1d5;" horiz-adv-x="1380" d="M119 489v830h223v-821q0 -164 90 -247t260 -83q168 0 258 83t90 247v821h222v-830q0 -248 -148.5 -378.5t-421.5 -130.5q-274 0 -423.5 131t-149.5 378zM385 1747v145h610v-145h-610zM406 1440v176h188v-176h-188zM786 1440v176h189v-176h-189z" />
<glyph unicode="&#x1d6;" horiz-adv-x="1183" d="M119 358v613h223v-613q0 -109 53.5 -160t163.5 -51q80 0 149.5 30t122.5 83v711h222v-971h-203l-10 100q-154 -121 -361 -120q-174 0 -267 97t-93 281zM291 1376v146h610v-146h-610zM309 1102v176h189v-176h-189zM690 1102v176h189v-176h-189z" />
<glyph unicode="&#x1d7;" horiz-adv-x="1380" d="M119 489v830h223v-821q0 -164 90 -247t260 -83q168 0 258 83t90 247v821h222v-830q0 -248 -148.5 -378.5t-421.5 -130.5q-274 0 -423.5 131t-149.5 378zM395 1409v172h185v-172h-185zM606 1610l125 260h170l-137 -260h-158zM803 1409v172h182v-172h-182z" />
<glyph unicode="&#x1d8;" horiz-adv-x="1183" d="M119 358v613h223v-613q0 -109 53.5 -160t163.5 -51q80 0 149.5 30t122.5 83v711h222v-971h-203l-10 100q-154 -121 -361 -120q-174 0 -267 97t-93 281zM283 1069v172h184v-172h-184zM494 1270l124 260h170l-137 -260h-157zM690 1069v172h182v-172h-182z" />
<glyph unicode="&#x1d9;" horiz-adv-x="1380" d="M119 489v830h223v-821q0 -164 90 -247t260 -83q168 0 258 83t90 247v821h222v-830q0 -248 -148.5 -378.5t-421.5 -130.5q-274 0 -423.5 131t-149.5 378zM381 1851h174l137 -159l139 159h170l-229 -245h-162zM391 1409v172h184v-172h-184zM799 1409v172h182v-172h-182z " />
<glyph unicode="&#x1da;" horiz-adv-x="1183" d="M119 358v613h223v-613q0 -109 53.5 -160t163.5 -51q80 0 149.5 30t122.5 83v711h222v-971h-203l-10 100q-154 -121 -361 -120q-174 0 -267 97t-93 281zM281 1509h174l137 -159l139 159h170l-229 -245h-162zM291 1067v172h184v-172h-184zM698 1067v172h183v-172h-183z" />
<glyph unicode="&#x1db;" horiz-adv-x="1380" d="M119 489v830h223v-821q0 -164 90 -247t260 -83q168 0 258 83t90 247v821h222v-830q0 -248 -148.5 -378.5t-421.5 -130.5q-274 0 -423.5 131t-149.5 378zM391 1409v172h184v-172h-184zM475 1870h172l123 -260h-158zM799 1409v172h182v-172h-182z" />
<glyph unicode="&#x1dc;" horiz-adv-x="1183" d="M119 358v613h223v-613q0 -109 53.5 -160t163.5 -51q80 0 149.5 30t122.5 83v711h222v-971h-203l-10 100q-154 -121 -361 -120q-174 0 -267 97t-93 281zM297 1069v172h184v-172h-184zM381 1530h172l123 -260h-158zM705 1069v172h182v-172h-182z" />
<glyph unicode="&#x1e6;" horiz-adv-x="1312" d="M88 633q0 334 166 520t496 186q219 0 391 -59v-193q-170 61 -373 62q-244 0 -349.5 -128t-105.5 -388q0 -465 437 -465q176 0 284 41v369h-329v145h520v-635q-74 -47 -194 -77.5t-288 -30.5q-319 0 -487 173t-168 480zM399 1735h183l151 -207l156 207h178l-256 -330h-156 z" />
<glyph unicode="&#x1e7;" horiz-adv-x="1134" d="M92 637q0 184 110.5 269t336.5 85q82 0 178 -20h356l-6 -146h-164q76 -68 76 -188q0 -160 -95.5 -247t-283.5 -87q-49 0 -121 10q-66 -6 -113 -33.5t-47 -70.5q0 -31 25 -44t82 -13h272q145 0 224 -62.5t79 -181.5q0 -141 -119.5 -204.5t-359.5 -63.5q-112 0 -219.5 14 t-181.5 39v172q78 -27 184.5 -41t206.5 -14q156 0 219.5 17t63.5 73q0 43 -34 60t-124 17h-262q-129 0 -196.5 48.5t-67.5 138.5q0 63 36.5 113.5t108.5 74.5q-164 80 -164 285zM252 1397h182l152 -207l155 207h179l-256 -330h-156zM299 643q0 -106 54.5 -152.5t185.5 -46.5 q133 0 185 44t52 155t-53 159t-184 48q-127 0 -183.5 -48t-56.5 -159z" />
<glyph unicode="&#x1fa;" horiz-adv-x="1433" d="M90 0l485 1270q-47 33 -72.5 83t-25.5 109q0 100 65.5 167t172.5 67q109 0 175 -66.5t66 -167.5q0 -59 -25.5 -108t-70.5 -80l483 -1274h-229l-131 340h-530l-131 -340h-232zM487 512h459l-229 604zM594 1462q0 -51 34 -86t87 -35q55 0 90 35t35 86t-35 86t-90 35 q-53 0 -87 -35t-34 -86zM600 1747l154 362h196l-172 -362h-178z" />
<glyph unicode="&#x1fb;" horiz-adv-x="1120" d="M88 276q0 143 97.5 226.5t291.5 83.5h311v43q0 72 -21.5 111.5t-78.5 58t-164 18.5q-172 0 -321 -51v166q70 27 164 43t198 16q217 0 326.5 -88t109.5 -278v-625h-190l-14 98q-61 -59 -149.5 -88.5t-215.5 -29.5q-147 0 -245.5 76.5t-98.5 219.5zM295 281q0 -74 49 -108 t148 -34q96 0 171.5 33t124.5 92v170h-307q-98 0 -142 -37t-44 -116zM340 1290q0 100 65.5 167t172.5 67q109 0 175 -66.5t66 -167.5q0 -98 -66.5 -164.5t-174.5 -66.5q-107 0 -172.5 66.5t-65.5 164.5zM457 1290q0 -51 33.5 -86t87.5 -35q55 0 89.5 35t34.5 86t-34.5 86 t-89.5 35q-53 0 -87 -35t-34 -86zM481 1606l154 288h196l-172 -288h-178z" />
<glyph unicode="&#x1fc;" horiz-adv-x="1730" d="M90 0l504 1319h1048v-174h-587v-400h512v-172h-512v-401h587v-172h-808v342h-373l-131 -342h-240zM518 514h316v635h-80zM874 1409l154 363h197l-172 -363h-179z" />
<glyph unicode="&#x1fd;" horiz-adv-x="1804" d="M88 276q0 143 97.5 226.5t291.5 83.5h311v43q0 72 -21.5 111.5t-78.5 58t-164 18.5q-172 0 -321 -51v166q70 27 164 43t198 16q250 0 355 -129q59 61 149 95t203 34q215 0 329.5 -112.5t114.5 -300.5v-181h-710q16 -139 100 -194.5t264 -55.5q76 0 152.5 13.5t134.5 38.5 v-162q-129 -57 -332 -57q-137 0 -243.5 43t-168.5 127q-84 -82 -190.5 -126t-278.5 -44q-153 0 -254.5 76.5t-101.5 219.5zM295 281q0 -74 49 -108t148 -34q102 0 172.5 31t123.5 90v174h-307q-98 0 -142 -37t-44 -116zM803 1069l153 363h197l-172 -363h-178zM1006 543h514 v67q0 104 -57.5 158.5t-184.5 54.5q-152 0 -212 -65.5t-60 -214.5z" />
<glyph unicode="&#x1fe;" horiz-adv-x="1427" d="M88 655q0 356 153.5 520t471.5 164q86 0 161 -12l35 92h152l-49 -129q166 -66 245.5 -221.5t79.5 -413.5q0 -346 -154.5 -510.5t-469.5 -164.5q-96 0 -185 16l-39 -105h-151l55 146q-154 70 -229.5 223.5t-75.5 394.5zM313 655q0 -162 37 -266t115 -158l340 912 q-43 6 -92 6q-209 0 -304.5 -112.5t-95.5 -381.5zM584 1409l153 363h197l-172 -363h-178zM596 178q57 -10 117 -10q209 0 305 114.5t96 372.5q0 178 -43 287t-131 158z" />
<glyph unicode="&#x1ff;" horiz-adv-x="1189" d="M88 485q0 506 506 506q59 0 108 -6l37 96h152l-49 -133q260 -102 260 -463q0 -506 -508 -505q-43 0 -113 8l-35 -99h-151l49 131q-256 104 -256 465zM313 485q0 -109 23.5 -175t77.5 -101l219 590l-39 2q-152 0 -216.5 -74t-64.5 -242zM465 1069l153 363h197l-172 -363 h-178zM551 170q12 -2 43 -2q154 0 218.5 73.5t64.5 243.5q0 209 -107 275z" />
<glyph unicode="&#x218;" horiz-adv-x="1136" d="M88 969q0 176 129 273t377 97q109 0 210 -15t165 -38v-196q-156 59 -344 59q-156 0 -234 -41t-78 -139q0 -59 29 -95t95.5 -64t199.5 -60q231 -59 321.5 -153.5t90.5 -244.5q0 -176 -132.5 -274t-388.5 -98q-255 -1 -411 65v197q190 -74 391 -74q166 0 240.5 39t74.5 145 q0 68 -31.5 108t-103.5 68.5t-215 65.5q-213 55 -299 140t-86 235zM410 -457l57 355h197l-84 -355h-170z" />
<glyph unicode="&#x219;" horiz-adv-x="950" d="M88 713q0 137 98.5 207.5t307.5 70.5q80 0 156.5 -12t131.5 -31v-186q-55 23 -123.5 35t-130.5 12q-113 0 -164 -19.5t-51 -72.5q0 -47 39 -70.5t154 -60.5l45 -15q119 -37 184.5 -74.5t95 -92t29.5 -140.5q0 -285 -407 -284q-99 0 -191 13t-151 36v188q68 -27 150.5 -41 t162.5 -14q119 0 166 20.5t47 79.5q0 53 -43 79t-162 62l-61 21q-147 49 -215 109.5t-68 179.5zM324 -457l57 355h197l-84 -355h-170z" />
<glyph unicode="&#x21a;" horiz-adv-x="1163" d="M49 1145v174h1065v-174h-420v-1145h-223v1145h-422zM436 -479l60 387h184l-94 -387h-150z" />
<glyph unicode="&#x21b;" horiz-adv-x="743" d="M47 797v174h143v223l222 68v-291h258l-15 -174h-243v-496q0 -84 37.5 -117.5t128.5 -33.5q55 0 116 20v-158q-80 -33 -194 -32q-154 0 -232 80.5t-78 228.5v508h-143zM324 -479l59 387h184l-94 -387h-149z" />
<glyph unicode="&#x237;" horiz-adv-x="626" d="M-20 -285q63 -20 124 -20q96 0 134 33.5t38 115.5v957h-147l21 170h348v-1147q0 -141 -81 -222t-235 -81q-118 0 -202 33v161z" />
<glyph unicode="&#x251;" horiz-adv-x="1193" d="M88 446q0 166 61.5 290t169 189.5t238.5 65.5q88 0 153.5 -20.5t129.5 -67.5v68h223v-971h-191l-14 96q-68 -61 -145.5 -88.5t-182.5 -27.5q-211 0 -326.5 108.5t-115.5 357.5zM313 444q0 -168 64.5 -232.5t212.5 -64.5q150 1 250 103v481q-49 45 -101.5 67.5 t-122.5 22.5q-150 0 -226.5 -97t-76.5 -280z" />
<glyph unicode="&#x259;" horiz-adv-x="1099" d="M88 393v178h711q-16 139 -100.5 193.5t-264.5 54.5q-76 0 -152.5 -13t-134.5 -38v164q135 59 332 59q258 0 395.5 -127t137.5 -383q0 -238 -121 -369.5t-359 -131.5q-215 0 -329.5 112.5t-114.5 300.5zM285 360q0 -104 57 -159.5t184 -55.5q152 0 212.5 67t60.5 214h-514 v-66z" />
<glyph unicode="&#x2bb;" horiz-adv-x="481" d="M88 940l135 399h168l-106 -399h-197z" />
<glyph unicode="&#x2bc;" horiz-adv-x="481" d="M88 940l109 399h194l-135 -399h-168z" />
<glyph unicode="&#x2be;" d="M-778 950v140q78 0 121 44t43 119q0 76 -42 119t-122 43v139q145 0 225 -81.5t80 -219.5q0 -137 -80 -220t-225 -83z" />
<glyph unicode="&#x2bf;" d="M-778 1253q0 135 81 218t224 83v-139q-78 0 -120 -43t-42 -119t42 -119.5t120 -43.5v-140q-143 0 -224 83t-81 220z" />
<glyph unicode="&#x2c6;" horiz-adv-x="706" d="M18 1094l256 329h156l256 -329h-178l-156 206l-151 -206h-183z" />
<glyph unicode="&#x2c7;" horiz-adv-x="706" d="M18 1423h183l151 -206l156 206h178l-256 -329h-156z" />
<glyph unicode="&#x2c8;" d="M-111 987v365h150v-365h-150z" />
<glyph unicode="&#x2c9;" d="M203 1153v145h610v-145h-610z" />
<glyph unicode="&#x2ca;" d="M-209 1069l156 363h194l-170 -363h-180z" />
<glyph unicode="&#x2cb;" d="M-217 1432h194l156 -363h-180z" />
<glyph unicode="&#x2cc;" d="M-111 -84h150v-365h-150v365z" />
<glyph unicode="&#x2d8;" horiz-adv-x="634" d="M25 1391h151q0 -74 36 -116t101 -42q68 0 106 42t38 116h151q0 -133 -78.5 -212t-216.5 -79q-135 0 -211.5 77.5t-76.5 213.5z" />
<glyph unicode="&#x2d9;" horiz-adv-x="296" d="M53 1143v180h189v-180h-189z" />
<glyph unicode="&#x2da;" horiz-adv-x="600" d="M68 1305q0 96 67.5 162.5t167.5 66.5t168 -66.5t68 -162.5q0 -98 -66.5 -163t-169.5 -65q-102 0 -168.5 64.5t-66.5 163.5zM190 1305q0 -47 33 -79t80 -32t79 31.5t32 79.5q0 47 -32 78.5t-79 31.5t-80 -31.5t-33 -78.5z" />
<glyph unicode="&#x2db;" horiz-adv-x="485" d="M59 -268q0 78 40 149.5t112 118.5h168q-70 -51 -106.5 -109.5t-36.5 -119.5q0 -45 24.5 -63.5t73.5 -18.5q61 0 100 22v-135q-27 -12 -69.5 -19.5t-85.5 -7.5q-97 0 -158.5 46.5t-61.5 136.5z" />
<glyph unicode="&#x2dc;" horiz-adv-x="757" d="M51 1161v164q27 27 75 44t99 17q41 0 77 -10t87 -30q47 -18 80 -28.5t70 -10.5q106 0 163 75v-163q-20 -29 -64 -46.5t-97 -17.5q-39 0 -74 10.5t-96 32.5q-51 18 -81 27.5t-61 9.5q-113 0 -178 -74z" />
<glyph unicode="&#x2dd;" horiz-adv-x="833" d="M18 1092l154 335h203l-178 -335h-179zM463 1092l153 335h203l-178 -335h-178z" />
<glyph unicode="&#x300;" d="M-938 1432h195l155 -363h-180z" />
<glyph unicode="&#x301;" d="M-823 1069l153 363h197l-172 -363h-178z" />
<glyph unicode="&#x302;" d="M-393 1094l256 329h155l256 -329h-178l-155 206l-152 -206h-182z" />
<glyph unicode="&#x303;" d="M-997 1161v164q27 27 75 44t99 17q41 0 76.5 -10t87.5 -30q47 -18 79.5 -28.5t69.5 -10.5q106 0 164 75v-163q-20 -29 -64.5 -46.5t-97.5 -17.5q-39 0 -73.5 10.5t-96.5 32.5q-51 18 -80.5 27.5t-60.5 9.5q-113 0 -178 -74z" />
<glyph unicode="&#x304;" d="M-358 1153v145h610v-145h-610z" />
<glyph unicode="&#x306;" d="M-326 1391h152q0 -72 36 -114t101 -42q68 0 105.5 42t37.5 114h152q0 -133 -79 -211t-216 -78q-135 0 -212 77.5t-77 211.5z" />
<glyph unicode="&#x307;" d="M-129 1143v180h188v-180h-188z" />
<glyph unicode="&#x308;" d="M-301 1145v176h188v-176h-188zM80 1145v176h188v-176h-188z" />
<glyph unicode="&#x309;" d="M-842 1372v121q33 12 85 19.5t106 7.5q125 0 191.5 -51.5t66.5 -139.5q0 -86 -41 -132t-139 -60v-97h-175v168q113 6 151 27.5t38 75.5q0 45 -38 65.5t-114 20.5q-31 0 -67.5 -7.5t-63.5 -17.5z" />
<glyph unicode="&#x30a;" d="M-274 1298q0 100 65.5 167t171.5 67q109 0 175.5 -66.5t66.5 -167.5q0 -98 -66.5 -164.5t-175.5 -66.5q-106 0 -171.5 66.5t-65.5 164.5zM-158 1298q0 -51 34 -85.5t87 -34.5q55 0 90 34.5t35 85.5t-35 86t-90 35q-53 0 -87 -34.5t-34 -86.5z" />
<glyph unicode="&#x30b;" d="M-463 1092l154 335h203l-177 -335h-180zM-18 1092l153 335h203l-176 -335h-180z" />
<glyph unicode="&#x30c;" d="M-393 1423h182l152 -206l155 206h178l-256 -329h-155z" />
<glyph unicode="&#x31b;" d="M-242 1071v158q88 0 133.5 18.5t62.5 65.5t17 139h172q0 -147 -40 -229t-122.5 -116t-222.5 -36z" />
<glyph unicode="&#x323;" d="M-745 -174h192v-180h-192v180z" />
<glyph unicode="&#x324;" d="M-317 -174h190v-178h-190v178zM78 -174h188v-178h-188v178z" />
<glyph unicode="&#x326;" d="M-338 -463l59 387h185l-94 -387h-150z" />
<glyph unicode="&#x327;" d="M-215 -354q59 -16 127 -17q96 0 135 18.5t39 73.5q0 53 -38 68.5t-128 15.5h-82l60 195h149l-33 -96q109 0 166.5 -48.5t57.5 -136.5q0 -211 -304 -211q-32 0 -79.5 5.5t-69.5 11.5v121z" />
<glyph unicode="&#x328;" d="M-223 -268q0 78 41 148.5t110 119.5h168q-68 -51 -104.5 -110.5t-36.5 -118.5q0 -45 23.5 -63.5t72.5 -18.5q27 0 55.5 6t47.5 16v-135q-27 -12 -70 -19.5t-88 -7.5q-94 0 -156.5 46.5t-62.5 136.5z" />
<glyph unicode="&#x32e;" d="M-326 -133h152q0 -74 36 -116t101 -42q68 0 105.5 42t37.5 116h152q0 -133 -79 -212t-216 -79q-135 0 -212 78t-77 213z" />
<glyph unicode="&#x331;" d="M-358 -147h610v-146h-610v146z" />
<glyph unicode="&#x394;" horiz-adv-x="1329" d="M88 0v123l471 1196h205l475 -1198v-121h-1151zM303 172h717l-358 909z" />
<glyph unicode="&#x3a9;" horiz-adv-x="1564" d="M88 745q0 199 83 352.5t239.5 239.5t371.5 86q213 0 370 -86t240 -239.5t83 -352.5q0 -195 -81 -341t-227 -236h293v-168h-563v172q352 190 352 565q0 147 -57 259t-162.5 174.5t-247.5 62.5q-141 0 -246.5 -62.5t-164 -175t-58.5 -258.5q0 -373 353 -565v-172h-564v168 h295q-145 92 -227 238.5t-82 338.5z" />
<glyph unicode="&#x3bc;" horiz-adv-x="1193" d="M129 -293v1264h223v-613q0 -109 53.5 -160t163.5 -51q80 0 149.5 30t123.5 83v711h221v-971h-203l-10 100q-154 -121 -361 -120q-82 0 -137 30v-303h-223z" />
<glyph unicode="&#x3c0;" horiz-adv-x="1376" d="M68 799v172h1101v-172h-135v-498q0 -84 36 -115.5t124 -31.5q55 0 119 20v-162q-84 -33 -197 -32q-149 0 -227 82.5t-78 230.5v506h-385v-799h-221v799h-137z" />
<glyph unicode="&#xe01;" horiz-adv-x="1255" d="M88 709v229q92 82 228.5 135t301.5 53q252 0 379 -104t127 -336v-686h-223v692q0 141 -65.5 197.5t-225.5 56.5q-100 0 -189 -28.5t-140 -75.5v-37l233 -60v-147q-80 -20 -112.5 -65.5t-32.5 -135.5v-397h-222v399q0 205 162 254z" />
<glyph unicode="&#xe02;" horiz-adv-x="1189" d="M84 938l18 168h258q156 0 156 -150q0 -63 -23.5 -112t-70.5 -123q-45 -66 -68.5 -115t-23.5 -106v-125q0 -111 65.5 -164t188.5 -53q252 0 252 223v725h223v-711q0 -197 -126 -306t-349 -109q-232 0 -353.5 107.5t-121.5 305.5v109q0 66 28.5 122t83.5 130 q37 49 53.5 76.5t16.5 54.5q0 31 -14.5 42t-51.5 11h-141z" />
<glyph unicode="&#xe03;" horiz-adv-x="1181" d="M84 829v277h156v-57q33 27 68.5 42t86.5 15q76 0 116 -40t40 -118q0 -63 -28.5 -117.5t-84.5 -134.5q-53 -78 -79.5 -128t-26.5 -107v-86q0 -217 248 -217q123 0 185 54t62 169v725h224v-711q0 -197 -124 -306t-347 -109q-232 0 -351.5 102t-119.5 299v74q0 68 38.5 135 t106.5 151q47 61 68.5 95t21.5 61q0 45 -41 45q-37 0 -67 -31v-82h-152z" />
<glyph unicode="&#xe04;" horiz-adv-x="1259" d="M129 0v700q0 205 124 315.5t378 110.5t375.5 -110.5t121.5 -315.5v-700h-223v721q0 225 -274 225q-139 0 -209 -55t-70 -170v-227q90 74 215 73h133l9 -178h-148q-125 0 -209 -70v-319h-223z" />
<glyph unicode="&#xe05;" horiz-adv-x="1259" d="M129 0v809q0 154 68.5 235.5t201.5 81.5q150 0 230 -106q41 53 106.5 79.5t134.5 26.5q141 0 199.5 -76.5t58.5 -242.5v-807h-221v811q0 61 -20.5 93t-73.5 32q-43 0 -73.5 -21.5t-57.5 -62.5h-107q-20 41 -44.5 62.5t-61.5 21.5q-59 0 -89 -33t-30 -92v-317 q90 74 215 73h135l9 -178h-148q-123 0 -211 -70v-319h-221z" />
<glyph unicode="&#xe06;" horiz-adv-x="1230" d="M96 829v277h156v-57q33 27 68.5 42t87.5 15q76 0 115.5 -40t39.5 -118q0 -61 -27.5 -118.5t-84.5 -147.5q-53 -84 -80 -137t-27 -111v-143q57 -59 137 -96t168 -37q117 0 173.5 55t56.5 178v715h221v-725q0 -190 -99.5 -295.5t-277.5 -105.5q-121 0 -214 35.5t-173 105.5 l-12 -121h-203v428q0 68 38 138.5t107 164.5q49 70 69.5 104.5t20.5 61.5q0 45 -41 45q-37 0 -67 -31v-82h-152z" />
<glyph unicode="&#xe07;" horiz-adv-x="1155" d="M47 764h217l252 -614q174 -8 255 100t81 338q0 135 -24.5 210.5t-82 107.5t-161.5 32h-78v168h106q236 0 345.5 -126t109.5 -390q0 -311 -136 -460.5t-368 -149.5q-131 -1 -205 26z" />
<glyph unicode="&#xe08;" horiz-adv-x="1165" d="M88 442l10 168h273l170 -454q145 -6 233 92t88 315q0 145 -38 228t-124 119t-237 36q-188 0 -350 -53v172q193 61 409 61q287 0 421 -142t134 -421q0 -184 -68.5 -316t-184 -199.5t-255.5 -67.5q-43 0 -94 7t-82 19l-164 436h-141z" />
<glyph unicode="&#xe09;" horiz-adv-x="1193" d="M88 885v172q92 31 215 50t242 19q268 0 393 -110.5t125 -341.5v-674h-203l-12 121q-78 -68 -172 -104.5t-219 -36.5q-174 0 -264.5 97t-90.5 285v252h222v-231q0 -121 48 -173t171 -52q176 0 297 135v383q0 104 -34 162.5t-109.5 83t-209.5 24.5q-86 0 -200.5 -17.5 t-198.5 -43.5z" />
<glyph unicode="&#xe0a;" horiz-adv-x="1191" d="M86 938l18 168h258q156 0 156 -150q0 -63 -23.5 -112t-70.5 -123q-45 -66 -68.5 -115t-23.5 -106v-125q0 -217 252 -217q254 0 254 223v135q0 96 -32 134t-114 38h-57l10 162h41q84 0 118 40t34 132v104h223v-100q0 -104 -32 -163.5t-116 -92.5q88 -37 118 -97.5 t30 -162.5v-115q0 -197 -127 -306t-350 -109q-232 0 -352.5 107.5t-120.5 305.5v109q0 66 28.5 122t83.5 130q37 49 53.5 76.5t16.5 54.5q0 31 -14.5 42t-51.5 11h-141z" />
<glyph unicode="&#xe0b;" horiz-adv-x="1191" d="M86 829v277h156v-57q33 27 68.5 42t86.5 15q76 0 116 -40t40 -118q0 -63 -28.5 -117.5t-84.5 -134.5q-53 -78 -79.5 -128t-26.5 -107v-86q0 -111 64.5 -164t185.5 -53q256 0 256 223v135q0 96 -33 134t-115 38h-57l10 162h41q84 0 119 41t35 131v104h221v-100 q0 -102 -31 -162.5t-115 -93.5q86 -37 116 -97.5t30 -162.5v-115q0 -197 -126 -306t-351 -109q-230 0 -351.5 103t-121.5 296v82q0 68 38.5 134.5t106.5 147.5q49 63 69.5 95t20.5 59q0 45 -41 45q-37 0 -67 -31v-82h-152z" />
<glyph unicode="&#xe0c;" horiz-adv-x="1959" d="M88 709v229q92 82 226.5 135t297.5 53q242 0 363 -104t121 -336v-395q57 -61 133 -97t160 -36q115 0 167 54t52 179v715h221v-725q0 -193 -95.5 -297t-271.5 -104q-116 0 -204.5 35.5t-170.5 105.5l-12 -121h-196v692q0 141 -62.5 197.5t-212.5 56.5q-98 0 -185 -28.5 t-138 -75.5v-37l233 -60v-147q-80 -20 -112.5 -65.5t-32.5 -135.5v-133q0 -47 20.5 -67.5t65.5 -20.5h112v-176h-221q-92 0 -145.5 57.5t-53.5 149.5v192q0 205 162 254z" />
<glyph unicode="&#xe0d;" horiz-adv-x="1986" d="M88 709v229q92 82 226.5 135t297.5 53q242 0 363 -104t121 -336v-70q0 -137 64.5 -200.5t203.5 -63.5t203.5 63.5t64.5 200.5v490h221v-481q0 -172 -75 -275q78 -74 77 -190q0 -137 -124.5 -211t-358.5 -74q-110 0 -220 21.5t-191 66.5v178q82 -43 196.5 -65.5 t210.5 -22.5q141 0 218 32t77 87q0 39 -29 68q-111 -66 -270 -66q-240 0 -362.5 112.5t-122.5 338.5v67q0 141 -62.5 197.5t-212.5 56.5q-98 0 -185 -28.5t-138 -75.5v-37l233 -60v-147q-80 -20 -112.5 -65.5t-32.5 -135.5v-133q0 -47 20.5 -67.5t65.5 -20.5h112v-176h-221 q-92 0 -145.5 57.5t-53.5 149.5v192q0 205 162 254z" />
<glyph unicode="&#xe0e;" horiz-adv-x="1325" d="M98 0v176h76q43 0 60.5 19.5t17.5 66.5v137q0 98 30.5 161t114.5 93l-225 56v229q90 80 226.5 134t301.5 54q244 0 369 -106.5t125 -333.5v-1083h-221q-125 68 -303 67q-84 0 -170 -19.5t-156 -53.5v178q158 74 348 73q84 0 158 -15t123 -44v903q0 139 -63.5 196.5 t-215.5 57.5q-102 0 -191 -28.5t-138 -75.5v-37l239 -60v-147q-76 -23 -101.5 -64.5t-25.5 -136.5v-147q0 -250 -241 -250h-138z" />
<glyph unicode="&#xe0f;" horiz-adv-x="1325" d="M98 0v176h76q43 0 60.5 19.5t17.5 66.5v137q0 98 30.5 161t114.5 93l-225 56v229q90 80 226.5 134t301.5 54q244 0 369 -106.5t125 -333.5v-801q0 -135 -80 -209.5t-221 -74.5q-72 0 -134.5 25.5t-94.5 68.5q-51 -92 -187 -92h-198l12 178h145q59 0 93 19.5t57 68.5h145 q18 -47 48 -71.5t81 -24.5q59 0 86 30.5t27 94.5v794q0 139 -63.5 196.5t-215.5 57.5q-102 0 -191 -28.5t-138 -75.5v-37l239 -60v-147q-76 -23 -101.5 -64.5t-25.5 -136.5v-147q0 -250 -241 -250h-138z" />
<glyph unicode="&#xe10;" horiz-adv-x="1236" d="M78 442l10 168h272l170 -454q145 -6 233.5 92t88.5 315q0 145 -38 228t-124 119t-237 36q-188 0 -351 -53v172q193 61 410 61q98 0 197 -20h456l-10 -174h-190q102 -129 102 -369q0 -184 -68.5 -316t-184.5 -199.5t-255 -67.5q-43 0 -94 7t-82 19l-164 436h-141z M115 -397l12 178h145q59 0 93 19.5t57 68.5h145q18 -47 48 -71.5t81 -24.5q59 0 86 30.5t27 94.5v18h221v-31q0 -135 -80 -209.5t-221 -74.5q-72 0 -134.5 25.5t-94.5 68.5q-51 -92 -187 -92h-198z" />
<glyph unicode="&#xe11;" horiz-adv-x="1230" d="M86 829v277h156v-57q33 27 66.5 42t84.5 15q82 0 121 -62q49 37 115.5 59.5t138.5 22.5q174 0 253 -93t79 -288v-745h-221v743q0 111 -36 157t-134 46q-41 0 -89.5 -17.5t-76.5 -43.5q0 -47 -16.5 -89t-53.5 -114q-43 -78 -63.5 -132t-20.5 -122v-428h-223v436 q0 63 27.5 128t76.5 153q39 66 57.5 106.5t18.5 73.5q0 45 -41 45q-37 0 -67 -31v-82h-152z" />
<glyph unicode="&#xe12;" horiz-adv-x="2025" d="M88 537q0 283 92 436t258 153q80 0 129 -26.5t90 -79.5q43 49 110 77.5t138 28.5q129 0 191.5 -76.5t62.5 -220.5v-538q57 -59 133 -96t162 -37q113 0 165 54t52 179v715h223v-725q0 -193 -95 -297t-271 -104q-117 0 -207 35.5t-170 105.5l-10 -121h-197v797 q0 82 -20.5 115.5t-81.5 33.5q-43 0 -76 -23.5t-49 -70.5h-123q-27 51 -52.5 72.5t-72.5 21.5q-94 0 -130 -104.5t-36 -304.5q0 -203 68.5 -291t208.5 -88q94 0 141 16v-170q-70 -25 -180 -24q-207 0 -330 138t-123 419z" />
<glyph unicode="&#xe13;" horiz-adv-x="1966" d="M88 709v229q92 82 226.5 135t297.5 53q242 0 363 -104t121 -336v-295q0 -125 54 -179t169 -54q84 0 159.5 35.5t133.5 97.5v815h223v-1106h-203l-12 121q-78 -70 -167 -105.5t-208 -35.5q-176 0 -271 104t-95 297v311q0 141 -62.5 197.5t-212.5 56.5q-98 0 -185 -28.5 t-138 -75.5v-37l233 -60v-147q-80 -20 -112.5 -65.5t-32.5 -135.5v-133q0 -47 20.5 -67.5t65.5 -20.5h112v-176h-221q-92 0 -145.5 57.5t-53.5 149.5v192q0 205 162 254z" />
<glyph unicode="&#xe14;" horiz-adv-x="1316" d="M88 537q0 281 143.5 435t421.5 154q180 0 300 -62.5t176.5 -163.5t56.5 -224v-676h-223v666q0 133 -73 206.5t-241 73.5q-178 0 -262 -102.5t-84 -306.5q0 -203 68.5 -291t208.5 -88q94 0 141 16v-170q-70 -25 -180 -24q-207 0 -330 138t-123 419z" />
<glyph unicode="&#xe15;" horiz-adv-x="1323" d="M88 537q0 285 95.5 437t269.5 152q80 0 130 -26.5t91 -79.5q43 47 112.5 76.5t141.5 29.5q129 0 196.5 -77.5t67.5 -219.5v-829h-223v797q0 82 -22.5 115.5t-86.5 33.5q-43 0 -76.5 -23.5t-50.5 -70.5h-123q-27 51 -53.5 72.5t-73.5 21.5q-100 0 -140 -104.5t-40 -304.5 q0 -203 68.5 -291t208.5 -88q94 0 141 16v-170q-70 -25 -180 -24q-207 0 -330 138t-123 419z" />
<glyph unicode="&#xe16;" horiz-adv-x="1255" d="M88 709v229q92 82 228.5 135t301.5 53q252 0 379 -104t127 -336v-686h-223v692q0 141 -65.5 197.5t-225.5 56.5q-100 0 -189 -28.5t-140 -75.5v-37l233 -60v-147q-80 -20 -112.5 -65.5t-32.5 -135.5v-133q0 -47 20.5 -67.5t65.5 -20.5h112v-176h-221q-92 0 -145.5 57.5 t-53.5 149.5v192q0 205 162 254z" />
<glyph unicode="&#xe17;" horiz-adv-x="1239" d="M129 0v1106h203l12 -121q166 141 393 141q174 0 272.5 -104t98.5 -293v-729h-221v719q0 119 -56.5 173t-173.5 54q-88 0 -167.5 -37t-137.5 -96v-813h-223z" />
<glyph unicode="&#xe18;" horiz-adv-x="1077" d="M88 836q0 143 123 216.5t352 73.5q109 0 217.5 -15t169.5 -38v-184q-68 27 -166 42t-190 15q-137 0 -216 -20.5t-79 -83.5q0 -55 52 -81t173 -52q27 -6 57.5 -13.5t65.5 -17.5q125 -35 199 -70t117 -100.5t43 -177.5q0 -172 -120 -261t-331 -89q-127 0 -244.5 22.5 t-201.5 58.5v416h204v-282q100 -37 228 -37q129 0 190.5 37.5t61.5 134.5q0 72 -37 109.5t-95.5 56t-207.5 53.5q-119 27 -194 55.5t-123 83.5t-48 148z" />
<glyph unicode="&#xe19;" horiz-adv-x="1239" d="M129 381v725h223v-715q0 -123 54.5 -178t173.5 -55q88 0 169.5 36.5t137.5 96.5v815h221v-1106h-203l-10 121q-164 -141 -389 -141q-178 0 -277.5 105t-99.5 296z" />
<glyph unicode="&#xe1a;" horiz-adv-x="1271" d="M129 430v676h223v-684q0 -135 71 -199.5t212 -64.5t213 64.5t72 199.5v684h221v-676q0 -223 -131 -336.5t-375 -113.5q-242 0 -374 113.5t-132 336.5z" />
<glyph unicode="&#xe1b;" horiz-adv-x="1271" d="M129 430v676h223v-684q0 -135 71 -199.5t212 -64.5t213 64.5t72 199.5v1012h221v-1004q0 -223 -131 -336.5t-375 -113.5q-242 0 -374 113.5t-132 336.5z" />
<glyph unicode="&#xe1c;" horiz-adv-x="1318" d="M129 0v899q0 92 51 149.5t144 57.5h211l10 -172h-107q-51 0 -72.5 -23.5t-21.5 -76.5v-535l270 469h91l270 -469v807h213v-1106h-219l-310 547l-311 -547h-219z" />
<glyph unicode="&#xe1d;" horiz-adv-x="1318" d="M129 0v899q0 92 51 149.5t144 57.5h211l10 -172h-107q-51 0 -72.5 -23.5t-21.5 -76.5v-535l270 469h91l270 -469v1135h213v-1434h-219l-310 547l-311 -547h-219z" />
<glyph unicode="&#xe1e;" horiz-adv-x="1486" d="M72 1106h219l164 -791l200 633v158h160l223 -791l160 791h217l-254 -1106h-205l-204 705l-222 -705h-202z" />
<glyph unicode="&#xe1f;" horiz-adv-x="1486" d="M72 1106h219l164 -791l200 633v158h160l223 -791l224 1119h217l-318 -1434h-205l-204 705l-222 -705h-202z" />
<glyph unicode="&#xe20;" horiz-adv-x="1325" d="M98 0v176h76q43 0 60.5 19.5t17.5 66.5v137q0 98 30.5 161t114.5 93l-225 56v229q90 80 226.5 134t301.5 54q244 0 369 -106.5t125 -333.5v-686h-221v692q0 139 -63.5 196.5t-215.5 57.5q-102 0 -191 -28.5t-138 -75.5v-37l239 -60v-147q-76 -23 -101.5 -64.5 t-25.5 -136.5v-147q0 -250 -241 -250h-138z" />
<glyph unicode="&#xe21;" horiz-adv-x="1239" d="M129 0v1106h223v-815q57 -59 137 -96t168 -37q117 0 173.5 55t56.5 178v715h221v-725q0 -190 -99.5 -295.5t-277.5 -105.5q-121 0 -214 35.5t-173 105.5l-12 -121h-203z" />
<glyph unicode="&#xe22;" horiz-adv-x="1222" d="M82 326q0 84 40 148.5t114 100.5q-68 25 -108 85.5t-40 146.5q0 154 94 236.5t252 82.5q104 0 180 -26v-170q-59 16 -139 16q-172 0 -172 -139q0 -145 193 -145h116l11 -166h-131q-195 0 -195 -170q0 -84 69.5 -126t215.5 -42q145 0 216.5 58t71.5 177v713h222v-686 q0 -223 -125 -331.5t-375 -108.5q-236 0 -373 83.5t-137 262.5z" />
<glyph unicode="&#xe23;" horiz-adv-x="1032" d="M88 811q0 150 112.5 232.5t331.5 82.5q90 0 182.5 -14t155.5 -35v-184q-66 25 -148.5 39t-156.5 14q-129 0 -195.5 -27.5t-66.5 -101.5q0 -43 27.5 -71.5t75 -48t145.5 -52.5l59 -18q176 -59 254 -130t78 -206q0 -158 -118.5 -234.5t-331.5 -76.5q-111 0 -212.5 14 t-164.5 41v186q76 -31 166 -47t170 -16q150 0 213 26.5t63 106.5q0 49 -24.5 78.5t-67.5 48t-133 47.5l-80 27q-168 57 -251 125.5t-83 193.5z" />
<glyph unicode="&#xe24;" horiz-adv-x="1255" d="M88 709v229q92 82 228.5 135t301.5 53q252 0 379 -104t127 -336v-1014h-223v1020q0 141 -65.5 197.5t-225.5 56.5q-100 0 -189 -28.5t-140 -75.5v-37l233 -60v-147q-80 -20 -112.5 -65.5t-32.5 -135.5v-133q0 -47 20.5 -67.5t65.5 -20.5h112v-176h-221q-92 0 -145.5 57.5 t-53.5 149.5v192q0 205 162 254z" />
<glyph unicode="&#xe25;" horiz-adv-x="1216" d="M94 317q0 164 110.5 253t319.5 89h338v70q0 82 -26.5 129t-88 67.5t-169.5 20.5q-195 0 -361 -53v172q84 27 189.5 44t207.5 17q242 0 356.5 -101t114.5 -316v-709h-223v487h-323q-119 0 -175.5 -38.5t-56.5 -131.5q0 -88 51.5 -123.5t171.5 -35.5q82 0 142 16v-170 q-88 -25 -201 -24q-170 0 -273.5 82.5t-103.5 254.5z" />
<glyph unicode="&#xe26;" horiz-adv-x="1325" d="M98 0v176h76q43 0 60.5 19.5t17.5 66.5v137q0 98 30.5 161t114.5 93l-225 56v229q90 80 226.5 134t301.5 54q244 0 369 -106.5t125 -333.5v-1014h-221v1020q0 139 -63.5 196.5t-215.5 57.5q-102 0 -191 -28.5t-138 -75.5v-37l239 -60v-147q-76 -23 -101.5 -64.5 t-25.5 -136.5v-147q0 -250 -241 -250h-138z" />
<glyph unicode="&#xe27;" horiz-adv-x="1017" d="M72 41v176q139 -59 278 -59q141 0 222 39t117 125t36 231q0 213 -87 303t-290 90q-141 0 -276 -59v178q145 61 325 61q272 0 407.5 -145t135.5 -428t-131 -428t-406 -145q-190 0 -331 61z" />
<glyph unicode="&#xe28;" horiz-adv-x="1302" d="M129 0v700q0 205 124 315.5t378 110.5q100 0 192 -20h408l-10 -174h-154q35 -47 48 -102.5t13 -129.5v-700h-223v721q0 225 -274 225q-139 0 -209 -55t-70 -170v-227q90 74 215 73h133l9 -178h-148q-125 0 -209 -70v-319h-223z" />
<glyph unicode="&#xe29;" horiz-adv-x="1300" d="M129 430v676h221v-684q0 -135 72 -199.5t213 -64.5t212 64.5t71 199.5v145h-265v170h265v369h223v-369h121l-17 -170h-104v-137q0 -223 -132 -336.5t-374 -113.5q-244 0 -375 113.5t-131 336.5z" />
<glyph unicode="&#xe2a;" horiz-adv-x="1247" d="M94 317q0 164 109.5 253t320.5 89h338v70q0 121 -62.5 169t-224.5 48q-195 0 -360 -53v172q84 27 190.5 44t208.5 17q98 0 191 -20h371l-13 -174h-129q27 -43 38 -97.5t11 -125.5v-709h-221v487h-325q-117 0 -173.5 -38.5t-56.5 -131.5q0 -88 51.5 -123.5t171.5 -35.5 q84 0 140 16v-170q-84 -25 -199 -24q-170 0 -273.5 81.5t-103.5 255.5z" />
<glyph unicode="&#xe2b;" horiz-adv-x="1236" d="M129 0v1106h223v-348h320q117 0 165 49t48 156v143h221v-137q0 -233 -166 -293q88 -31 122 -98.5t34 -169.5v-408h-222v381q0 119 -45 163t-165 44h-312v-588h-223z" />
<glyph unicode="&#xe2c;" horiz-adv-x="1486" d="M72 1106h219l166 -791l198 551v158h158l221 -709l127 578q8 39 8 76q0 55 -26.5 77.5t-83.5 22.5h-82l27 166h90q78 0 115.5 27.5t52.5 97.5l16 74h199l-21 -101q-16 -84 -55 -128t-105 -58q76 -43 76 -150q0 -49 -10 -90l-203 -907h-203l-204 639l-222 -639h-202z" />
<glyph unicode="&#xe2d;" horiz-adv-x="1177" d="M102 61v570h439l10 -170h-234v-268q94 -35 226 -35q123 0 194.5 37.5t104 122.5t32.5 231q0 154 -36.5 238.5t-119.5 121.5t-233 37q-201 0 -366 -53v172q86 29 197.5 45t224.5 16q285 0 417 -144t132 -433q0 -285 -132.5 -427t-414.5 -142q-125 0 -241 22.5t-200 58.5z " />
<glyph unicode="&#xe2e;" horiz-adv-x="1234" d="M102 61v570h439l10 -170h-234v-268q94 -35 226 -35q123 0 194.5 37.5t104 122.5t32.5 231q0 154 -36.5 238.5t-119.5 121.5t-233 37q-201 0 -366 -53v172q86 29 197.5 45t224.5 16q96 0 192 -20h430l-10 -174h-164q100 -131 101 -383q0 -285 -132.5 -427t-414.5 -142 q-125 0 -241 22.5t-200 58.5z" />
<glyph unicode="&#xe2f;" horiz-adv-x="1138" d="M102 846q0 133 58 260h219q-61 -123 -62 -250q0 -188 211 -188q158 0 256 73v365h224v-1106h-224v569q-55 -35 -128.5 -55t-153.5 -20q-182 0 -291 93t-109 259z" />
<glyph unicode="&#xe30;" horiz-adv-x="663" d="M88 121v266h191v-102h301l-9 -164h-483zM88 678v266h191v-100h301l-9 -166h-483z" />
<glyph unicode="&#xe31;" d="M-616 1274v299h184v-143h530l-10 -156h-704z" />
<glyph unicode="&#xe32;" horiz-adv-x="901" d="M27 893v172q63 27 151 44t172 17q221 0 320.5 -96t99.5 -305v-725h-223v696q0 90 -18.5 142.5t-70.5 80t-151 27.5q-66 0 -142.5 -14t-137.5 -39z" />
<glyph unicode="&#xe33;" horiz-adv-x="901" d="M-475 1446q0 96 66.5 159.5t164.5 63.5q96 0 163 -63.5t67 -159.5q0 -94 -66.5 -157.5t-163.5 -63.5q-98 0 -164.5 63.5t-66.5 157.5zM-342 1446q0 -37 29.5 -65.5t68.5 -28.5t66.5 28.5t27.5 65.5q0 41 -27.5 69.5t-66.5 28.5q-41 0 -69.5 -28.5t-28.5 -69.5zM27 893 v172q63 27 151 44t172 17q221 0 320.5 -96t99.5 -305v-725h-223v696q0 90 -18.5 142.5t-70.5 80t-151 27.5q-66 0 -142.5 -14t-137.5 -39z" />
<glyph unicode="&#xe34;" d="M-985 1274l10 156h844v-156h-854z" />
<glyph unicode="&#xe35;" d="M-985 1274l10 156h660v169h184v-325h-854z" />
<glyph unicode="&#xe36;" d="M-985 1274l10 156h508q-4 20 -4 45q0 63 49 110t133 47q92 0 139.5 -51t47.5 -123q0 -80 -51.5 -132t-143.5 -52h-688zM-367 1456q0 -33 22.5 -55.5t57.5 -22.5q37 0 58.5 22.5t21.5 55.5q0 35 -22.5 58.5t-57.5 23.5q-33 0 -56.5 -22.5t-23.5 -59.5z" />
<glyph unicode="&#xe37;" d="M-985 1274l10 156h397v169h162v-169h123v169h162v-325h-854z" />
<glyph unicode="&#xe38;" d="M-451 -262l11 145h309v-399h-191v254h-129z" />
<glyph unicode="&#xe39;" d="M-731 -256l8 139h262v-207q0 -33 21.5 -50t60.5 -17q41 0 62.5 17.5t21.5 49.5v207h162v-221q0 -84 -64.5 -140.5t-181.5 -56.5q-110 0 -176 49.5t-66 125.5v104h-110z" />
<glyph unicode="&#xe3a;" d="M-358 -219q0 51 34.5 85t85.5 34t86 -34t35 -85t-34.5 -85t-86.5 -34q-51 0 -85.5 34t-34.5 85z" />
<glyph unicode="&#xe3f;" horiz-adv-x="1292" d="M129 0v1319h412v176h166v-176h61q193 0 289 -91t96 -261q0 -104 -42 -177t-116 -112q100 -29 154.5 -99.5t54.5 -197.5q0 -190 -103.5 -285.5t-303.5 -95.5h-90v-176h-166v176h-412zM352 164h189v428h-189v-428zM352 756h189v395h-189v-395zM707 164h43q121 0 175 51 t54 174q0 104 -56.5 153.5t-195.5 49.5h-20v-428zM707 756h30q209 0 209 192q0 106 -51 154.5t-182 48.5h-6v-395z" />
<glyph unicode="&#xe40;" horiz-adv-x="628" d="M133 213v893h221v-838q0 -47 21.5 -69.5t68.5 -22.5h95v-176h-191q-215 0 -215 213z" />
<glyph unicode="&#xe41;" horiz-adv-x="1110" d="M129 213v893h223v-838q0 -47 21.5 -69.5t68.5 -22.5h82v-176h-180q-215 0 -215 213zM627 213v893h221v-838q0 -47 21.5 -69.5t68.5 -22.5h84v-176h-180q-215 0 -215 213z" />
<glyph unicode="&#xe42;" horiz-adv-x="645" d="M-4 1251v170h608v-176h-328q82 -47 117 -118.5t35 -200.5v-658q0 -55 17.5 -73.5t72.5 -18.5h94v-176h-190q-123 0 -169 64.5t-46 195.5v686q0 127 -49 195.5t-162 109.5z" />
<glyph unicode="&#xe43;" horiz-adv-x="602" d="M-14 1188v164q59 37 140 56t159 19q143 0 215.5 -61t72.5 -174q0 -70 -29.5 -121t-88.5 -115q-66 -78 -98.5 -134t-32.5 -142v-412q0 -55 17 -73.5t73 -18.5h94v-176h-191q-215 0 -215 213v473q0 109 42 180.5t116 147.5q45 47 64.5 74.5t19.5 60.5q0 57 -31.5 78.5 t-103.5 21.5q-111 0 -223 -61z" />
<glyph unicode="&#xe44;" horiz-adv-x="616" d="M-4 1245v176h592v-168q-111 -43 -158 -130t-47 -236v-619q0 -55 17.5 -73.5t72.5 -18.5h94v-176h-190q-215 0 -215 213v707q0 221 155 325h-321z" />
<glyph unicode="&#xe45;" horiz-adv-x="901" d="M27 893v172q63 27 151 44t172 17q221 0 320.5 -96t99.5 -305v-1053h-223v1024q0 90 -18.5 142.5t-70.5 80t-151 27.5q-66 0 -142.5 -14t-137.5 -39z" />
<glyph unicode="&#xe46;" horiz-adv-x="1218" d="M102 750q0 158 80 267t221 109q72 0 119 -23.5t86 -78.5q86 102 230 102q129 0 189 -75.5t60 -231.5v-819h-223v834q0 53 -17.5 82.5t-66.5 29.5q-78 0 -121 -98h-104q-20 53 -40.5 75.5t-61.5 22.5q-119 0 -119 -196q0 -96 44 -139.5t134 -43.5q92 0 141 17v-172 q-74 -25 -182 -25q-174 0 -271.5 93t-97.5 270z" />
<glyph unicode="&#xe47;" d="M-989 1507q0 115 71.5 181.5t200.5 66.5h504l-10 -131h-473q-70 0 -104 -27.5t-34 -89.5q0 -109 117 -108q109 0 109 86v43h137v-43q0 -43 22.5 -61.5t71.5 -18.5h129v-129h-143q-53 0 -93 15.5t-57 47.5q-20 -33 -75.5 -50t-114.5 -17q-121 0 -189.5 61.5t-68.5 173.5z " />
<glyph unicode="&#xe48;" d="M-354 1276v336h223v-336h-223z" />
<glyph unicode="&#xe49;" d="M-762 1462v154h316v-186h442l-8 -156h-588v188h-162z" />
<glyph unicode="&#xe4a;" d="M-942 1470q0 102 53 160t141 58q104 0 138 -80h2q14 37 53 58.5t88 21.5q92 0 136 -44.5t44 -119.5v-138h23q27 0 37 13.5t10 46.5v231h129v-241q0 -74 -44 -118t-122 -44h-164v211q0 45 -13 63.5t-52 18.5q-43 0 -56.5 -21.5t-13.5 -66.5v-27h-109v27q0 43 -14 65.5 t-53 22.5q-41 0 -58.5 -23.5t-17.5 -77.5q0 -57 25.5 -78.5t87.5 -21.5h57v-111h-76q-110 0 -170.5 53.5t-60.5 161.5z" />
<glyph unicode="&#xe4b;" d="M-604 1362v164h133v100h205v-100h135v-164h-135v-88h-205v88h-133z" />
<glyph unicode="&#xe4c;" d="M-616 1274v299h602l-9 -156h-409v-143h-184z" />
<glyph unicode="&#xe4d;" d="M-475 1446q0 96 66.5 159.5t164.5 63.5q96 0 163 -63.5t67 -159.5q0 -94 -66.5 -157.5t-163.5 -63.5q-98 0 -164.5 63.5t-66.5 157.5zM-342 1446q0 -37 29.5 -65.5t68.5 -28.5t66.5 28.5t27.5 65.5q0 41 -27.5 69.5t-66.5 28.5q-41 0 -69.5 -28.5t-28.5 -69.5z" />
<glyph unicode="&#xe4e;" d="M-596 1425q0 74 47 117t117 51q-31 31 -31 84q0 57 53.5 93t151.5 36q31 0 64.5 -6t54.5 -16v-101q-20 10 -50 17.5t-53 7.5q-86 0 -86 -49q0 -25 19.5 -37t64.5 -23v-98q-33 16 -86 17q-117 0 -116 -72q0 -33 25.5 -47.5t76.5 -14.5q80 0 125 31v-108q-49 -33 -152 -33 q-110 0 -167.5 38t-57.5 113z" />
<glyph unicode="&#xe4f;" horiz-adv-x="1236" d="M88 508q0 143 71.5 264t193.5 192.5t265 71.5t264.5 -71.5t193 -192.5t71.5 -264q0 -145 -71.5 -266t-192.5 -191.5t-265 -70.5q-143 0 -265 70.5t-193.5 191t-71.5 266.5zM244 508q0 -102 50 -188.5t136 -136.5t188 -50q101 0 187 50t137 136.5t51 188.5q0 100 -51 186 t-137 137.5t-187 51.5q-102 0 -188 -51.5t-136 -137.5t-50 -186zM356 508q0 70 35 130t95.5 95t131.5 35q70 0 130.5 -35t95.5 -95t35 -130q0 -72 -35 -132.5t-95.5 -95t-130.5 -34.5q-108 0 -185 76.5t-77 185.5zM487 508q0 -55 38 -94t93 -39q56 0 94 39t38 94 q0 53 -38 92t-94 39q-55 0 -93 -38t-38 -93z" />
<glyph unicode="&#xe50;" horiz-adv-x="1253" d="M88 485q0 246 145.5 376t393.5 130q246 0 391 -130t145 -376q0 -250 -143 -377.5t-393 -127.5t-394.5 128t-144.5 377zM303 485q0 -170 82 -248.5t242 -78.5q161 0 241 78.5t80 248.5t-80 248t-241 78q-160 0 -242 -79t-82 -247z" />
<glyph unicode="&#xe51;" horiz-adv-x="1304" d="M88 520q0 227 144.5 349t418.5 122q283 0 424.5 -141t141.5 -406q0 -248 -156 -423t-453 -236v188q207 49 300 164t93 314q0 178 -82.5 269t-267.5 91q-180 0 -264 -70.5t-84 -220.5q0 -125 58.5 -182t179.5 -57q49 0 102 12t84 33v-170q-90 -53 -233 -54 q-195 0 -300.5 108.5t-105.5 309.5z" />
<glyph unicode="&#xe52;" horiz-adv-x="1439" d="M129 479v627h201v-623q0 -332 407 -331q174 0 272.5 71.5t98.5 216.5v269q0 63 -19.5 91.5t-66.5 28.5q-82 0 -104 -110h-127q-18 57 -38 83.5t-63 26.5q-55 0 -78.5 -44t-23.5 -144q0 -86 39 -120t127 -34q74 0 125 19v-139q-74 -27 -160 -27q-139 0 -220 74.5 t-81 226.5q0 180 63.5 265t177.5 85q68 0 113 -23.5t82 -76.5q78 100 217 100q119 0 178.5 -68.5t59.5 -193.5v-270q0 -229 -154 -354t-418 -125q-282 0 -445 128t-163 371z" />
<glyph unicode="&#xe53;" horiz-adv-x="1312" d="M88 461q0 266 93 398t257 132q150 0 230 -110q45 55 107.5 82.5t129.5 27.5q125 0 204 -69.5t79 -196.5v-725h-217v686q0 70 -24.5 97.5t-86.5 27.5q-49 0 -79.5 -28.5t-30.5 -80.5v-176l-170 2v177q0 51 -33 78.5t-80 27.5q-92 0 -130 -82t-38 -270q0 -121 29.5 -186.5 t87 -90t153.5 -24.5q92 0 142 16v-170q-70 -25 -183 -24q-213 0 -326.5 111.5t-113.5 369.5z" />
<glyph unicode="&#xe54;" horiz-adv-x="1288" d="M88 457q0 256 172 395t488 139q170 0 271 17.5t183 68.5v-180q-74 -45 -182.5 -63.5t-263.5 -18.5q-236 0 -346.5 -86t-110.5 -272q0 -301 285 -301q53 0 92 18q-33 59 -33 150q0 131 88 205.5t234 74.5q127 0 202 -39v-153q-59 33 -145 32q-94 0 -138 -27.5t-44 -97.5 q0 -68 36.5 -98.5t96 -36.5t178.5 -6h88v-178h-156q-162 0 -264 45q-109 -66 -254 -65q-223 0 -350 121.5t-127 355.5z" />
<glyph unicode="&#xe55;" horiz-adv-x="1282" d="M88 442q0 162 92 285t250 172q-35 6 -71.5 19.5t-57.5 25.5v168q51 -45 192.5 -83t254.5 -38q170 0 271 17.5t183 68.5v-180q-74 -45 -182.5 -63.5t-263.5 -18.5q-209 0 -333 -95t-124 -278q0 -154 72.5 -220t212.5 -66q53 0 92 18q-33 59 -33 150q0 131 88 205.5 t234 74.5q127 0 202 -39v-153q-59 33 -145 32q-94 0 -138 -27.5t-44 -97.5q0 -68 36.5 -98.5t96 -36.5t178.5 -6h88v-178h-156q-162 0 -264 45q-109 -66 -254 -65q-225 0 -351 115.5t-126 346.5z" />
<glyph unicode="&#xe56;" horiz-adv-x="1323" d="M47 1106h197l106 -324q55 98 160.5 153.5t241.5 55.5q246 0 363.5 -137t117.5 -371q0 -236 -146.5 -369.5t-402.5 -133.5q-235 0 -389 106v178q86 -57 177 -81.5t196 -24.5q176 0 264 79.5t88 245.5q0 168 -71.5 248t-229.5 80q-125 0 -208 -65.5t-116 -194.5h-157z" />
<glyph unicode="&#xe57;" horiz-adv-x="1744" d="M88 461q0 268 88 399t250 131q80 0 133 -26.5t94 -83.5q92 111 240 110q133 0 202.5 -68.5t69.5 -201.5v-555h35q121 0 168 50t47 181v709h199v-670q0 -156 -43 -251t-138.5 -140t-254.5 -45h-207v686q0 72 -25.5 99.5t-89.5 27.5q-47 0 -81 -28.5t-34 -79.5v-177h-184 v174q0 53 -29.5 82t-76.5 29q-90 0 -123 -86t-33 -268q0 -127 31.5 -193.5t90 -90t156.5 -23.5q92 0 142 16v-164q-70 -25 -187 -24q-215 0 -327.5 111.5t-112.5 369.5z" />
<glyph unicode="&#xe58;" horiz-adv-x="1286" d="M88 465q0 264 159 395t462 131q182 0 293.5 17.5t195.5 68.5v-180q-76 -45 -195.5 -63.5t-289.5 -18.5q-219 0 -316.5 -76.5t-97.5 -273.5q0 -174 41 -241.5t129 -67.5q55 0 93 28.5t38 79.5v158h158v-160q0 -51 41 -78.5t92 -27.5q43 0 70.5 8t54.5 29v270h-133l12 139 h301v-528q-57 -49 -118.5 -71.5t-151.5 -22.5q-78 0 -141.5 26.5t-104.5 79.5q-78 -106 -244 -106q-168 0 -258 120.5t-90 364.5z" />
<glyph unicode="&#xe59;" horiz-adv-x="1523" d="M88 463q0 528 358 528q86 0 137.5 -27.5t82.5 -82.5q35 53 96 81.5t137 28.5q109 0 183.5 -57t74.5 -156v-35h12q78 0 106 33t28 133v156h174v-111q0 -143 -34 -223t-108.5 -113.5t-204.5 -33.5h-126v86q0 78 -24 110.5t-89 32.5q-49 0 -78 -22.5t-29 -63.5q0 -18 7 -43 l200 -684h-192l-209 707q-16 55 -45 80.5t-90 25.5q-86 0 -122 -84t-36 -272q0 -170 52 -237.5t161 -67.5q68 0 115 16v-174q-59 -14 -152 -14q-176 0 -280.5 119.5t-104.5 363.5z" />
<glyph unicode="&#xe5a;" horiz-adv-x="1802" d="M102 846q0 133 58 260h219q-61 -123 -62 -250q0 -188 211 -188q158 0 256 73v365h224v-369q29 -33 78 -51t106 -18q158 0 256 73v365h223v-1106h-223v569q-55 -35 -129 -55t-154 -20q-102 0 -157 41v-535h-224v569q-55 -35 -128.5 -55t-153.5 -20q-182 0 -291 93 t-109 259z" />
<glyph unicode="&#xe5b;" horiz-adv-x="2406" d="M88 594q0 154 55.5 274.5t163 189t254.5 68.5q209 0 315.5 -101t106.5 -280q0 -145 -78 -242t-225 -145v166q76 39 105.5 89.5t29.5 127.5q0 236 -248 236q-145 0 -221 -101.5t-76 -273.5q0 -199 98.5 -299t282.5 -100q227 0 343 129t116 360q0 147 -23 266h193 q49 -82 90 -185t62 -198h4q25 74 44 177.5t17 167.5h143q31 -63 65 -153.5t52 -168.5h4q18 55 37 140t23 151h123q27 -47 56.5 -130t41.5 -143h4q16 45 27.5 107.5t11.5 122.5h113q4 -66 -5 -121h123l-8 -123h-143q-18 -80 -70 -170h-113q-6 43 -31.5 122t-47.5 122h-5 q-4 -49 -26.5 -145.5t-40.5 -143.5h-145q-10 72 -39 161t-62 152h-4q-6 -68 -30.5 -174t-51.5 -184h-143q-4 84 -33 190.5t-63 184.5h-5q8 -203 -60.5 -354.5t-207.5 -234.5t-336 -83q-262 0 -412.5 145.5t-150.5 403.5z" />
<glyph unicode="&#x1e0c;" horiz-adv-x="1329" d="M129 0v1319h535q297 0 436 -157.5t139 -510.5q0 -338 -139 -494.5t-436 -156.5h-535zM352 172h277q137 0 220 40t125 144.5t42 294.5q0 193 -39 299.5t-122 150.5t-226 44h-277v-973zM555 -174h193v-180h-193v180z" />
<glyph unicode="&#x1e0d;" horiz-adv-x="1191" d="M88 455q0 170 59.5 290.5t164 183t239.5 62.5q86 0 155.5 -20.5t133.5 -63.5v473h223v-1380h-191l-14 96q-68 -61 -145.5 -88.5t-182.5 -27.5q-211 0 -326.5 111.5t-115.5 363.5zM313 453q0 -170 64.5 -238t212.5 -68q150 1 250 103v485q-96 86 -242 86q-141 0 -213 -94 t-72 -274zM510 -174h192v-180h-192v180z" />
<glyph unicode="&#x1e0e;" horiz-adv-x="1329" d="M129 0v1319h535q297 0 436 -157.5t139 -510.5q0 -338 -139 -494.5t-436 -156.5h-535zM268 -190h611v-146h-611v146zM352 172h277q137 0 220 40t125 144.5t42 294.5q0 193 -39 299.5t-122 150.5t-226 44h-277v-973z" />
<glyph unicode="&#x1e0f;" horiz-adv-x="1191" d="M88 455q0 170 59.5 290.5t164 183t239.5 62.5q86 0 155.5 -20.5t133.5 -63.5v473h223v-1380h-191l-14 96q-68 -61 -145.5 -88.5t-182.5 -27.5q-211 0 -326.5 111.5t-115.5 363.5zM309 -190h611v-146h-611v146zM313 453q0 -170 64.5 -238t212.5 -68q150 1 250 103v485 q-96 86 -242 86q-141 0 -213 -94t-72 -274z" />
<glyph unicode="&#x1e20;" horiz-adv-x="1312" d="M88 633q0 334 166 520t496 186q219 0 391 -59v-193q-170 61 -373 62q-244 0 -349.5 -128t-105.5 -388q0 -465 437 -465q176 0 284 41v369h-329v145h520v-635q-74 -47 -194 -77.5t-288 -30.5q-319 0 -487 173t-168 480zM434 1468v146h610v-146h-610z" />
<glyph unicode="&#x1e21;" horiz-adv-x="1134" d="M92 637q0 184 110.5 269t336.5 85q82 0 178 -20h356l-6 -146h-164q76 -68 76 -188q0 -160 -95.5 -247t-283.5 -87q-49 0 -121 10q-66 -6 -113 -33.5t-47 -70.5q0 -31 25 -44t82 -13h272q145 0 224 -62.5t79 -181.5q0 -141 -119.5 -204.5t-359.5 -63.5q-112 0 -219.5 14 t-181.5 39v172q78 -27 184.5 -41t206.5 -14q156 0 219.5 17t63.5 73q0 43 -34 60t-124 17h-262q-129 0 -196.5 48.5t-67.5 138.5q0 63 36.5 113.5t108.5 74.5q-164 80 -164 285zM268 1128v146h611v-146h-611zM299 643q0 -106 54.5 -152.5t185.5 -46.5q133 0 185 44t52 155 t-53 159t-184 48q-127 0 -183.5 -48t-56.5 -159z" />
<glyph unicode="&#x1e24;" horiz-adv-x="1339" d="M129 0v1319h223v-574h635v574h223v-1319h-223v573h-635v-573h-223zM573 -174h193v-180h-193v180z" />
<glyph unicode="&#x1e25;" horiz-adv-x="1183" d="M129 0v1380h223v-503q66 53 155 83.5t195 30.5q184 0 272.5 -88t88.5 -274v-629h-221v618q0 113 -48.5 158t-166.5 45q-74 0 -150 -31.5t-125 -82.5v-707h-223zM508 -174h192v-180h-192v180z" />
<glyph unicode="&#x1e2a;" horiz-adv-x="1339" d="M129 0v1319h223v-574h635v574h223v-1319h-223v573h-635v-573h-223zM377 -133h151q0 -74 36 -116t102 -42q68 0 105.5 42t37.5 116h152q0 -133 -79 -212t-216 -79q-136 0 -212.5 78t-76.5 213z" />
<glyph unicode="&#x1e2b;" horiz-adv-x="1183" d="M129 0v1380h223v-503q66 53 155 83.5t195 30.5q184 0 272.5 -88t88.5 -274v-629h-221v618q0 113 -48.5 158t-166.5 45q-74 0 -150 -31.5t-125 -82.5v-707h-223zM319 -133h152q0 -74 36 -116t101 -42q68 0 106 42t38 116h151q0 -133 -79 -212t-216 -79q-135 0 -212 78 t-77 213z" />
<glyph unicode="&#x1e36;" horiz-adv-x="1075" d="M129 0v1319h223v-1147h676v-172h-899zM467 -174h192v-180h-192v180z" />
<glyph unicode="&#x1e37;" horiz-adv-x="573" d="M129 231v1149h223v-1128q0 -55 19.5 -76.5t62.5 -21.5q49 0 94 12v-162q-68 -25 -157 -24q-123 0 -182.5 59t-59.5 192zM203 -174h192v-180h-192v180z" />
<glyph unicode="&#x1e38;" horiz-adv-x="1075" d="M-27 1468v146h611v-146h-611zM129 0v1319h223v-1147h676v-172h-899zM467 -174h192v-180h-192v180z" />
<glyph unicode="&#x1e39;" horiz-adv-x="573" d="M-63 1479v145h610v-145h-610zM129 231v1149h223v-1128q0 -55 19.5 -76.5t62.5 -21.5q49 0 94 12v-162q-68 -25 -157 -24q-123 0 -182.5 59t-59.5 192zM203 -174h192v-180h-192v180z" />
<glyph unicode="&#x1e3a;" horiz-adv-x="1075" d="M129 0v1319h223v-1147h676v-172h-899zM250 -154h610v-145h-610v145z" />
<glyph unicode="&#x1e3b;" horiz-adv-x="573" d="M-10 -154h610v-145h-610v145zM129 231v1149h223v-1128q0 -55 19.5 -76.5t62.5 -21.5q49 0 94 12v-162q-68 -25 -157 -24q-123 0 -182.5 59t-59.5 192z" />
<glyph unicode="&#x1e42;" horiz-adv-x="1550" d="M129 0v1319h229l418 -854l416 854h229v-1319h-221v956l-356 -729h-135l-359 729v-956h-221zM682 -174h192v-180h-192v180z" />
<glyph unicode="&#x1e43;" horiz-adv-x="1753" d="M129 0v971h205l10 -103q156 123 342 123q100 0 159.5 -31.5t92.5 -95.5q74 59 163 93t204 34q168 0 247.5 -86t79.5 -264v-641h-219v618q0 111 -47 157t-154 46q-70 0 -133 -24.5t-106 -73.5q10 -39 10 -100v-623h-207v616q0 111 -38 158t-138 47q-129 0 -252 -114v-707 h-219zM778 -174h193v-180h-193v180z" />
<glyph unicode="&#x1e44;" horiz-adv-x="1366" d="M129 0v1319h197l688 -971v971h221v-1319h-197l-686 969v-969h-223zM610 1456v180h189v-180h-189z" />
<glyph unicode="&#x1e45;" horiz-adv-x="1183" d="M129 0v971h205l10 -103q70 55 162 89t196 34q188 0 274.5 -88t86.5 -274v-629h-221v618q0 113 -47 158t-172 45q-76 0 -149 -30.5t-122 -79.5v-711h-223zM498 1116v180h188v-180h-188z" />
<glyph unicode="&#x1e46;" horiz-adv-x="1366" d="M129 0v1319h197l688 -971v971h221v-1319h-197l-686 969v-969h-223zM588 -174h192v-180h-192v180z" />
<glyph unicode="&#x1e47;" horiz-adv-x="1183" d="M129 0v971h205l10 -103q70 55 162 89t196 34q188 0 274.5 -88t86.5 -274v-629h-221v618q0 113 -47 158t-172 45q-76 0 -149 -30.5t-122 -79.5v-711h-223zM506 -174h192v-180h-192v180z" />
<glyph unicode="&#x1e48;" horiz-adv-x="1366" d="M129 0v1319h197l688 -971v971h221v-1319h-197l-686 969v-969h-223zM385 -147h610v-146h-610v146z" />
<glyph unicode="&#x1e49;" horiz-adv-x="1183" d="M129 0v971h205l10 -103q70 55 162 89t196 34q188 0 274.5 -88t86.5 -274v-629h-221v618q0 113 -47 158t-172 45q-76 0 -149 -30.5t-122 -79.5v-711h-223zM293 -147h610v-146h-610v146z" />
<glyph unicode="&#x1e5a;" horiz-adv-x="1249" d="M129 0v1319h606q215 0 319.5 -110.5t104.5 -311.5q0 -141 -70.5 -238.5t-199.5 -136.5q35 -25 55.5 -54.5t42.5 -84.5l166 -383h-229l-162 369q-25 55 -57.5 76.5t-104.5 21.5h-248v-467h-223zM352 647h324q260 0 260 250q0 248 -240 248h-344v-498zM530 -174h193v-180 h-193v180z" />
<glyph unicode="&#x1e5b;" horiz-adv-x="751" d="M129 0v971h205l12 -113q70 45 166 82t190 51v-170q-88 -16 -190 -50t-160 -71v-700h-223zM141 -174h193v-180h-193v180z" />
<glyph unicode="&#x1e5c;" horiz-adv-x="1249" d="M129 0v1319h606q215 0 319.5 -110.5t104.5 -311.5q0 -141 -70.5 -238.5t-199.5 -136.5q35 -25 55.5 -54.5t42.5 -84.5l166 -383h-229l-162 369q-25 55 -57.5 76.5t-104.5 21.5h-248v-467h-223zM295 1468v146h610v-146h-610zM352 647h324q260 0 260 250q0 248 -240 248 h-344v-498zM530 -174h193v-180h-193v180z" />
<glyph unicode="&#x1e5d;" horiz-adv-x="759" d="M23 1128v146h610v-146h-610zM137 0v971h205l12 -113q70 45 166 82t191 51v-170q-88 -16 -190.5 -50t-160.5 -71v-700h-223zM152 -174h192v-180h-192v180z" />
<glyph unicode="&#x1e5e;" horiz-adv-x="1249" d="M129 0v1319h606q215 0 319.5 -110.5t104.5 -311.5q0 -141 -70.5 -238.5t-199.5 -136.5q35 -25 55.5 -54.5t42.5 -84.5l166 -383h-229l-162 369q-25 55 -57.5 76.5t-104.5 21.5h-248v-467h-223zM297 -147h610v-146h-610v146zM352 647h324q260 0 260 250q0 248 -240 248 h-344v-498z" />
<glyph unicode="&#x1e5f;" horiz-adv-x="751" d="M-47 -147h610v-146h-610v146zM129 0v971h205l12 -113q70 45 166 82t190 51v-170q-88 -16 -190 -50t-160 -71v-700h-223z" />
<glyph unicode="&#x1e60;" horiz-adv-x="1136" d="M88 969q0 176 129 273t377 97q109 0 210 -15t165 -38v-196q-156 59 -344 59q-156 0 -234 -41t-78 -139q0 -59 29 -95t95.5 -64t199.5 -60q231 -59 321.5 -153.5t90.5 -244.5q0 -176 -132.5 -274t-388.5 -98q-255 -1 -411 65v197q190 -74 391 -74q166 0 240.5 39t74.5 145 q0 68 -31.5 108t-103.5 68.5t-215 65.5q-213 55 -299 140t-86 235zM469 1456v180h188v-180h-188z" />
<glyph unicode="&#x1e61;" horiz-adv-x="950" d="M88 713q0 137 98.5 207.5t307.5 70.5q80 0 156.5 -12t131.5 -31v-186q-55 23 -123.5 35t-130.5 12q-113 0 -164 -19.5t-51 -72.5q0 -47 39 -70.5t154 -60.5l45 -15q119 -37 184.5 -74.5t95 -92t29.5 -140.5q0 -285 -407 -284q-99 0 -191 13t-151 36v188q68 -27 150.5 -41 t162.5 -14q119 0 166 20.5t47 79.5q0 53 -43 79t-162 62l-61 21q-147 49 -215 109.5t-68 179.5zM387 1116v180h188v-180h-188z" />
<glyph unicode="&#x1e62;" horiz-adv-x="1136" d="M88 969q0 176 129 273t377 97q109 0 210 -15t165 -38v-196q-156 59 -344 59q-156 0 -234 -41t-78 -139q0 -59 29 -95t95.5 -64t199.5 -60q231 -59 321.5 -153.5t90.5 -244.5q0 -176 -132.5 -274t-388.5 -98q-255 -1 -411 65v197q190 -74 391 -74q166 0 240.5 39t74.5 145 q0 68 -31.5 108t-103.5 68.5t-215 65.5q-213 55 -299 140t-86 235zM455 -174h192v-180h-192v180z" />
<glyph unicode="&#x1e63;" horiz-adv-x="950" d="M88 713q0 137 98.5 207.5t307.5 70.5q80 0 156.5 -12t131.5 -31v-186q-55 23 -123.5 35t-130.5 12q-113 0 -164 -19.5t-51 -72.5q0 -47 39 -70.5t154 -60.5l45 -15q119 -37 184.5 -74.5t95 -92t29.5 -140.5q0 -285 -407 -284q-99 0 -191 13t-151 36v188q68 -27 150.5 -41 t162.5 -14q119 0 166 20.5t47 79.5q0 53 -43 79t-162 62l-61 21q-147 49 -215 109.5t-68 179.5zM395 -174h193v-180h-193v180z" />
<glyph unicode="&#x1e6c;" horiz-adv-x="1163" d="M49 1145v174h1065v-174h-420v-1145h-223v1145h-422zM485 -160h193v-180h-193v180z" />
<glyph unicode="&#x1e6d;" horiz-adv-x="743" d="M47 797v174h143v223l222 68v-291h258l-15 -174h-243v-496q0 -84 37.5 -117.5t128.5 -33.5q55 0 116 20v-158q-80 -33 -194 -32q-154 0 -232 80.5t-78 228.5v508h-143zM365 -160h192v-180h-192v180z" />
<glyph unicode="&#x1e6e;" horiz-adv-x="1163" d="M49 1145v174h1065v-174h-420v-1145h-223v1145h-422zM276 -133h611v-146h-611v146z" />
<glyph unicode="&#x1e6f;" horiz-adv-x="743" d="M47 797v174h143v223l222 68v-291h258l-15 -174h-243v-496q0 -84 37.5 -117.5t128.5 -33.5q55 0 116 20v-158q-80 -33 -194 -32q-154 0 -232 80.5t-78 228.5v508h-143zM104 -133h611v-146h-611v146z" />
<glyph unicode="&#x1e80;" horiz-adv-x="1779" d="M90 1319h219l223 -989l250 829v160h183l280 -989l228 989h217l-306 -1319h-219l-264 924l-280 -924h-224zM600 1772h195l155 -363h-180z" />
<glyph unicode="&#x1e81;" horiz-adv-x="1527" d="M88 971h223l168 -707l191 588v119h170l211 -707l168 707h221l-254 -971h-211l-207 635l-211 -635h-213zM489 1432h195l156 -363h-181z" />
<glyph unicode="&#x1e82;" horiz-adv-x="1779" d="M90 1319h219l223 -989l250 829v160h183l280 -989l228 989h217l-306 -1319h-219l-264 924l-280 -924h-224zM795 1409l153 363h197l-172 -363h-178z" />
<glyph unicode="&#x1e83;" horiz-adv-x="1527" d="M88 971h223l168 -707l191 588v119h170l211 -707l168 707h221l-254 -971h-211l-207 635l-211 -635h-213zM664 1069l153 363h197l-172 -363h-178z" />
<glyph unicode="&#x1e84;" horiz-adv-x="1779" d="M90 1319h219l223 -989l250 829v160h183l280 -989l228 989h217l-306 -1319h-219l-264 924l-280 -924h-224zM616 1454v176h189v-176h-189zM997 1454v176h189v-176h-189z" />
<glyph unicode="&#x1e85;" horiz-adv-x="1527" d="M88 971h223l168 -707l191 588v119h170l211 -707l168 707h221l-254 -971h-211l-207 635l-211 -635h-213zM483 1114v176h189v-176h-189zM864 1114v176h189v-176h-189z" />
<glyph unicode="&#x1e8e;" horiz-adv-x="1343" d="M88 1319h231l353 -641l352 641h231l-473 -830v-489h-221v489zM578 1456v180h188v-180h-188z" />
<glyph unicode="&#x1e8f;" horiz-adv-x="1224" d="M88 971h231l312 -721l315 721h230l-396 -916q-88 -209 -183 -312t-249 -103q-110 -1 -188 28v166q57 -20 125 -20q61 0 100 19.5t67.5 60t67.5 118.5zM537 1116v180h188v-180h-188z" />
<glyph unicode="&#x1e92;" horiz-adv-x="1177" d="M88 0v119l709 1018h-674v182h960v-137l-702 -1010h713v-172h-1006zM524 -174h193v-180h-193v180z" />
<glyph unicode="&#x1e93;" horiz-adv-x="997" d="M88 0v117l530 671h-505v183h780v-137l-520 -662h534v-172h-819zM399 -174h193v-180h-193v180z" />
<glyph unicode="&#x1e97;" horiz-adv-x="743" d="M47 797v174h143v223l222 68v-291h258l-15 -174h-243v-496q0 -84 37.5 -117.5t128.5 -33.5q55 0 116 20v-158q-80 -33 -194 -32q-154 0 -232 80.5t-78 228.5v508h-143zM49 1317v176h189v-176h-189zM430 1317v176h188v-176h-188z" />
<glyph unicode="&#x1e9e;" horiz-adv-x="1280" d="M119 0v872q0 223 134 345t384 122q252 0 377 -119.5t125 -310.5l-348 -211h73q147 0 236.5 -89t89.5 -234q0 -178 -107.5 -286.5t-294.5 -108.5q-173 0 -294 45v188q49 -23 117.5 -34t136.5 -11q229 0 229 209q0 94 -53.5 134t-163.5 40h-197v188l365 228q0 84 -73 136 t-218 52q-156 0 -229.5 -67.5t-73.5 -208.5v-879h-215z" />
<glyph unicode="&#x1ea0;" horiz-adv-x="1433" d="M90 0l504 1319h250l499 -1319h-229l-131 340h-530l-131 -340h-232zM487 512h459l-229 604zM621 -174h192v-180h-192v180z" />
<glyph unicode="&#x1ea1;" horiz-adv-x="1120" d="M88 276q0 143 97.5 226.5t291.5 83.5h311v43q0 72 -21.5 111.5t-78.5 58t-164 18.5q-172 0 -321 -51v166q70 27 164 43t198 16q217 0 326.5 -88t109.5 -278v-625h-190l-14 98q-61 -59 -149.5 -88.5t-215.5 -29.5q-147 0 -245.5 76.5t-98.5 219.5zM295 281q0 -74 49 -108 t148 -34q96 0 171.5 33t124.5 92v170h-307q-98 0 -142 -37t-44 -116zM494 -174h192v-180h-192v180z" />
<glyph unicode="&#x1ea2;" horiz-adv-x="1433" d="M90 0l504 1319h250l499 -1319h-229l-131 340h-530l-131 -340h-232zM487 512h459l-229 604zM537 1741v121q33 12 85 19t105 7q125 0 191.5 -51t66.5 -139q0 -86 -41 -132t-139 -61v-96h-174v168q113 6 150.5 27.5t37.5 74.5q0 45 -38 65.5t-113 20.5q-31 0 -68 -7t-63 -17 z" />
<glyph unicode="&#x1ea3;" horiz-adv-x="1120" d="M88 276q0 143 97.5 226.5t291.5 83.5h311v43q0 72 -21.5 111.5t-78.5 58t-164 18.5q-172 0 -321 -51v166q70 27 164 43t198 16q217 0 326.5 -88t109.5 -278v-625h-190l-14 98q-61 -59 -149.5 -88.5t-215.5 -29.5q-147 0 -245.5 76.5t-98.5 219.5zM295 281q0 -74 49 -108 t148 -34q96 0 171.5 33t124.5 92v170h-307q-98 0 -142 -37t-44 -116zM385 1399v121q33 12 85 19t105 7q125 0 192 -51t67 -139q0 -86 -41 -132t-140 -61v-96h-174v168q113 6 151 27.5t38 74.5q0 45 -38 65.5t-114 20.5q-31 0 -67.5 -7t-63.5 -17z" />
<glyph unicode="&#x1ea4;" horiz-adv-x="1433" d="M90 0l504 1319h250l499 -1319h-229l-131 340h-530l-131 -340h-232zM377 1407l244 260h172l243 -260h-182l-147 168l-144 -168h-186zM487 512h459l-229 604zM893 1638l131 273h170l-143 -273h-158z" />
<glyph unicode="&#x1ea5;" horiz-adv-x="1120" d="M88 276q0 143 97.5 226.5t291.5 83.5h311v43q0 72 -21.5 111.5t-78.5 58t-164 18.5q-172 0 -321 -51v166q70 27 164 43t198 16q217 0 326.5 -88t109.5 -278v-625h-190l-14 98q-61 -59 -149.5 -88.5t-215.5 -29.5q-147 0 -245.5 76.5t-98.5 219.5zM258 1067l244 260h172 l244 -260h-183l-147 168l-144 -168h-186zM295 281q0 -74 49 -108t148 -34q96 0 171.5 33t124.5 92v170h-307q-98 0 -142 -37t-44 -116zM774 1298l131 273h170l-143 -273h-158z" />
<glyph unicode="&#x1ea6;" horiz-adv-x="1433" d="M90 0l504 1319h250l499 -1319h-229l-131 340h-530l-131 -340h-232zM223 1911h172l131 -273h-157zM383 1407l242 260h174l241 -260h-184l-145 168l-146 -168h-182zM487 512h459l-229 604z" />
<glyph unicode="&#x1ea7;" horiz-adv-x="1120" d="M78 1571h172l131 -273h-158zM88 276q0 143 97.5 226.5t291.5 83.5h311v43q0 72 -21.5 111.5t-78.5 58t-164 18.5q-172 0 -321 -51v166q70 27 164 43t198 16q217 0 326.5 -88t109.5 -278v-625h-190l-14 98q-61 -59 -149.5 -88.5t-215.5 -29.5q-147 0 -245.5 76.5 t-98.5 219.5zM238 1067l241 260h174l242 -260h-184l-146 168l-145 -168h-182zM295 281q0 -74 49 -108t148 -34q96 0 171.5 33t124.5 92v170h-307q-98 0 -142 -37t-44 -116z" />
<glyph unicode="&#x1ea8;" horiz-adv-x="1433" d="M90 0l504 1319h250l499 -1319h-229l-131 340h-530l-131 -340h-232zM385 1407l242 260h174l241 -260h-182l-145 168l-146 -168h-184zM487 512h459l-229 604zM864 1849v109q70 25 158 24q98 0 154.5 -43t56.5 -116q0 -68 -38 -107t-120 -51v-70h-157v136q94 4 125.5 22.5 t31.5 56.5q0 33 -23.5 48.5t-72.5 15.5q-59 0 -115 -25z" />
<glyph unicode="&#x1ea9;" horiz-adv-x="1120" d="M88 276q0 143 97.5 226.5t291.5 83.5h311v43q0 72 -21.5 111.5t-78.5 58t-164 18.5q-172 0 -321 -51v166q70 27 164 43t198 16q217 0 326.5 -88t109.5 -278v-625h-190l-14 98q-61 -59 -149.5 -88.5t-215.5 -29.5q-147 0 -245.5 76.5t-98.5 219.5zM244 1065l241 260h174 l242 -260h-182l-146 168l-145 -168h-184zM295 281q0 -74 49 -108t148 -34q96 0 171.5 33t124.5 92v170h-307q-98 0 -142 -37t-44 -116zM723 1507v109q70 25 158 24q98 0 154.5 -43t56.5 -116q0 -68 -38 -107t-120 -51v-70h-158v136q94 4 126 22.5t32 56.5q0 33 -23.5 48.5 t-72.5 15.5q-59 0 -115 -25z" />
<glyph unicode="&#x1eaa;" horiz-adv-x="1433" d="M90 0l504 1319h250l499 -1319h-229l-131 340h-530l-131 -340h-232zM387 1407l242 260h174l241 -260h-182l-145 168l-146 -168h-184zM414 1690v145q27 27 72.5 43t95.5 16q39 0 70.5 -9t86.5 -30q49 -18 79 -27t65 -9q104 0 157 71v-145q-20 -27 -62 -44.5t-93 -17.5 q-39 0 -75 10.5t-89 30.5q-49 18 -78 27.5t-59 9.5q-106 0 -170 -71zM487 512h459l-229 604z" />
<glyph unicode="&#x1eab;" horiz-adv-x="1120" d="M88 276q0 143 97.5 226.5t291.5 83.5h311v43q0 72 -21.5 111.5t-78.5 58t-164 18.5q-172 0 -321 -51v166q70 27 164 43t198 16q217 0 326.5 -88t109.5 -278v-625h-190l-14 98q-61 -59 -149.5 -88.5t-215.5 -29.5q-147 0 -245.5 76.5t-98.5 219.5zM254 1067l242 260h174 l241 -260h-182l-145 168l-146 -168h-184zM281 1350v145q27 27 72.5 43t95.5 16q39 0 70.5 -9t86.5 -29q49 -18 79 -27.5t65 -9.5q104 0 157 71v-145q-20 -27 -62 -44.5t-93 -17.5q-39 0 -75 10.5t-89 30.5q-49 18 -78 27.5t-59 9.5q-106 0 -170 -71zM295 281q0 -74 49 -108 t148 -34q96 0 171.5 33t124.5 92v170h-307q-98 0 -142 -37t-44 -116z" />
<glyph unicode="&#x1eac;" horiz-adv-x="1433" d="M90 0l504 1319h250l499 -1319h-229l-131 340h-530l-131 -340h-232zM381 1407l256 330h156l256 -330h-179l-155 207l-152 -207h-182zM487 512h459l-229 604zM621 -174h192v-180h-192v180z" />
<glyph unicode="&#x1ead;" horiz-adv-x="1120" d="M88 276q0 143 97.5 226.5t291.5 83.5h311v43q0 72 -21.5 111.5t-78.5 58t-164 18.5q-172 0 -321 -51v166q70 27 164 43t198 16q217 0 326.5 -88t109.5 -278v-625h-190l-14 98q-61 -59 -149.5 -88.5t-215.5 -29.5q-147 0 -245.5 76.5t-98.5 219.5zM246 1067l256 330h155 l256 -330h-178l-155 207l-152 -207h-182zM295 281q0 -74 49 -108t148 -34q96 0 171.5 33t124.5 92v170h-307q-98 0 -142 -37t-44 -116zM483 -174h193v-180h-193v180z" />
<glyph unicode="&#x1eae;" horiz-adv-x="1433" d="M90 0l504 1319h250l499 -1319h-229l-131 340h-530l-131 -340h-232zM397 1712h135q0 -88 49.5 -135t135.5 -47t135 47t49 135h135q0 -156 -88 -229.5t-231 -73.5q-144 0 -232 73.5t-88 229.5zM487 512h459l-229 604zM621 1649l131 272h172l-146 -272h-157z" />
<glyph unicode="&#x1eaf;" horiz-adv-x="1120" d="M88 276q0 143 97.5 226.5t291.5 83.5h311v43q0 72 -21.5 111.5t-78.5 58t-164 18.5q-172 0 -321 -51v166q70 27 164 43t198 16q217 0 326.5 -88t109.5 -278v-625h-190l-14 98q-61 -59 -149.5 -88.5t-215.5 -29.5q-147 0 -245.5 76.5t-98.5 219.5zM283 1372h135 q0 -88 49 -135t135 -47t135 47t49 135h136q0 -156 -88.5 -229.5t-231.5 -73.5t-231 74t-88 229zM295 281q0 -74 49 -108t148 -34q96 0 171.5 33t124.5 92v170h-307q-98 0 -142 -37t-44 -116zM506 1309l131 272h172l-145 -272h-158z" />
<glyph unicode="&#x1eb0;" horiz-adv-x="1433" d="M90 0l504 1319h250l499 -1319h-229l-131 340h-530l-131 -340h-232zM397 1712h135q0 -88 49.5 -135t135.5 -47t135 47t49 135h135q0 -156 -88 -229.5t-231 -73.5q-144 0 -232 73.5t-88 229.5zM487 512h459l-229 604zM510 1921h172l131 -272h-158z" />
<glyph unicode="&#x1eb1;" horiz-adv-x="1120" d="M88 276q0 143 97.5 226.5t291.5 83.5h311v43q0 72 -21.5 111.5t-78.5 58t-164 18.5q-172 0 -321 -51v166q70 27 164 43t198 16q217 0 326.5 -88t109.5 -278v-625h-190l-14 98q-61 -59 -149.5 -88.5t-215.5 -29.5q-147 0 -245.5 76.5t-98.5 219.5zM250 1372h135 q0 -88 49 -135t135 -47t135.5 47t49.5 135h135q0 -156 -88 -229.5t-232 -73.5q-143 0 -231 74t-88 229zM295 281q0 -74 49 -108t148 -34q96 0 171.5 33t124.5 92v170h-307q-98 0 -142 -37t-44 -116zM362 1581h173l131 -272h-158z" />
<glyph unicode="&#x1eb2;" horiz-adv-x="1433" d="M90 0l504 1319h250l499 -1319h-229l-131 340h-530l-131 -340h-232zM397 1712h135q0 -88 49.5 -135t135.5 -47t135 47t49 135h135q0 -156 -88 -229.5t-231 -73.5q-144 0 -232 73.5t-88 229.5zM487 512h459l-229 604zM573 1911v104q70 25 166 25t149.5 -42t53.5 -116 q0 -68 -37 -104.5t-123 -51.5v-67h-155v121q94 4 130 24.5t36 63.5q0 39 -26 53t-81 14q-57 0 -113 -24z" />
<glyph unicode="&#x1eb3;" horiz-adv-x="1120" d="M88 276q0 143 97.5 226.5t291.5 83.5h311v43q0 72 -21.5 111.5t-78.5 58t-164 18.5q-172 0 -321 -51v166q70 27 164 43t198 16q217 0 326.5 -88t109.5 -278v-625h-190l-14 98q-61 -59 -149.5 -88.5t-215.5 -29.5q-147 0 -245.5 76.5t-98.5 219.5zM250 1372h135 q0 -88 49 -135t135 -47t135.5 47t49.5 135h135q0 -156 -88 -229.5t-232 -73.5q-143 0 -231 74t-88 229zM295 281q0 -74 49 -108t148 -34q96 0 171.5 33t124.5 92v170h-307q-98 0 -142 -37t-44 -116zM426 1571v104q70 25 166 25t149.5 -42t53.5 -116q0 -68 -37 -104.5 t-123 -51.5v-67h-156v121q94 4 130 24.5t36 63.5q0 39 -25.5 53t-80.5 14q-57 0 -113 -24z" />
<glyph unicode="&#x1eb4;" horiz-adv-x="1433" d="M90 0l504 1319h250l499 -1319h-229l-131 340h-530l-131 -340h-232zM397 1712h135q0 -88 49.5 -135t135.5 -47t135 47t49 135h135q0 -156 -88 -229.5t-231 -73.5q-144 0 -232 73.5t-88 229.5zM406 1761v146q27 27 72.5 43t94.5 16q39 0 74 -10t84 -31q49 -18 79 -27.5 t64 -9.5q106 0 158 74v-147q-20 -27 -62 -43.5t-93 -16.5q-39 0 -75 10.5t-89 30.5q-10 4 -54.5 19.5t-83.5 15.5q-106 0 -169 -70zM487 512h459l-229 604z" />
<glyph unicode="&#x1eb5;" horiz-adv-x="1120" d="M88 276q0 143 97.5 226.5t291.5 83.5h311v43q0 72 -21.5 111.5t-78.5 58t-164 18.5q-172 0 -321 -51v166q70 27 164 43t198 16q217 0 326.5 -88t109.5 -278v-625h-190l-14 98q-61 -59 -149.5 -88.5t-215.5 -29.5q-147 0 -245.5 76.5t-98.5 219.5zM252 1372h135 q0 -88 49 -135t135 -47t135.5 47t49.5 135h135q0 -156 -88 -229.5t-232 -73.5q-143 0 -231 74t-88 229zM260 1421v146q27 27 73 43t95 16q39 0 74 -10t84 -31q49 -18 78.5 -27.5t64.5 -9.5q106 0 158 74v-147q-20 -27 -62.5 -43.5t-93.5 -16.5q-39 0 -74.5 10.5t-89.5 30.5 q-10 4 -54 19.5t-83 15.5q-106 0 -170 -70zM295 281q0 -74 49 -108t148 -34q96 0 171.5 33t124.5 92v170h-307q-98 0 -142 -37t-44 -116z" />
<glyph unicode="&#x1eb6;" horiz-adv-x="1433" d="M90 0l504 1319h250l499 -1319h-229l-131 340h-530l-131 -340h-232zM424 1698h151q0 -72 36 -114t102 -42q68 0 105.5 42t37.5 114h152q0 -133 -79 -211t-216 -78q-135 0 -212 78t-77 211zM487 512h459l-229 604zM621 -174h192v-180h-192v180z" />
<glyph unicode="&#x1eb7;" horiz-adv-x="1120" d="M88 276q0 143 97.5 226.5t291.5 83.5h311v43q0 72 -21.5 111.5t-78.5 58t-164 18.5q-172 0 -321 -51v166q70 27 164 43t198 16q217 0 326.5 -88t109.5 -278v-625h-190l-14 98q-61 -59 -149.5 -88.5t-215.5 -29.5q-147 0 -245.5 76.5t-98.5 219.5zM295 281q0 -74 49 -108 t148 -34q96 0 171.5 33t124.5 92v170h-307q-98 0 -142 -37t-44 -116zM303 1358h152q0 -72 35.5 -114t101.5 -42q68 0 105.5 42t37.5 114h152q0 -133 -79 -211t-216 -78q-135 0 -212 78t-77 211zM498 -174h192v-180h-192v180z" />
<glyph unicode="&#x1eb8;" horiz-adv-x="1126" d="M129 0v1319h920v-174h-697v-400h621v-172h-621v-401h697v-172h-920zM477 -174h193v-180h-193v180z" />
<glyph unicode="&#x1eb9;" horiz-adv-x="1099" d="M88 487q0 240 121 372t358 132q215 0 330 -112.5t115 -300.5v-181h-711q16 -139 100 -193t265 -54q74 0 150.5 14t135.5 37v-164q-129 -57 -331 -57q-259 0 -396 126.5t-137 380.5zM301 543h514v67q0 104 -57.5 158.5t-184.5 54.5q-152 0 -212 -65.5t-60 -214.5z M467 -174h192v-180h-192v180z" />
<glyph unicode="&#x1eba;" horiz-adv-x="1126" d="M129 0v1319h920v-174h-697v-400h621v-172h-621v-401h697v-172h-920zM391 1739v121q33 12 85 19t106 7q125 0 191.5 -51t66.5 -139q0 -86 -41 -132t-140 -61v-96h-174v168q113 6 151 27.5t38 74.5q0 45 -38 65.5t-114 20.5q-31 0 -67.5 -7t-63.5 -17z" />
<glyph unicode="&#x1ebb;" horiz-adv-x="1099" d="M88 487q0 240 121 372t358 132q215 0 330 -112.5t115 -300.5v-181h-711q16 -139 100 -193t265 -54q74 0 150.5 14t135.5 37v-164q-129 -57 -331 -57q-259 0 -396 126.5t-137 380.5zM301 543h514v67q0 104 -57.5 158.5t-184.5 54.5q-152 0 -212 -65.5t-60 -214.5z M383 1399v121q33 12 85 19t105 7q125 0 191.5 -51t66.5 -139q0 -86 -40.5 -132t-139.5 -61v-96h-174v168q113 6 151 27.5t38 74.5q0 45 -38 65.5t-114 20.5q-31 0 -67.5 -7t-63.5 -17z" />
<glyph unicode="&#x1ebc;" horiz-adv-x="1126" d="M129 0v1319h920v-174h-697v-400h621v-172h-621v-401h697v-172h-920zM252 1446v164q27 27 75 44t99 17q41 0 77 -10t87 -31q47 -18 79.5 -28.5t69.5 -10.5q106 0 164 76v-164q-20 -29 -64 -46t-98 -17q-39 0 -73.5 10t-96.5 33q-51 18 -80.5 27.5t-60.5 9.5 q-113 0 -178 -74z" />
<glyph unicode="&#x1ebd;" horiz-adv-x="1099" d="M88 487q0 240 121 372t358 132q215 0 330 -112.5t115 -300.5v-181h-711q16 -139 100 -193t265 -54q74 0 150.5 14t135.5 37v-164q-129 -57 -331 -57q-259 0 -396 126.5t-137 380.5zM238 1106v164q27 27 74.5 44t99.5 17q41 0 76.5 -10t86.5 -31q47 -18 80 -28.5t70 -10.5 q106 0 164 76v-164q-20 -29 -64.5 -46t-97.5 -17q-39 0 -74 10t-96 33q-51 18 -81 27.5t-60 9.5q-113 0 -178 -74zM301 543h514v67q0 104 -57.5 158.5t-184.5 54.5q-152 0 -212 -65.5t-60 -214.5z" />
<glyph unicode="&#x1ebe;" horiz-adv-x="1126" d="M129 0v1319h920v-174h-697v-400h621v-172h-621v-401h697v-172h-920zM248 1405l244 260h172l243 -260h-182l-147 168l-144 -168h-186zM764 1636l131 273h170l-143 -273h-158z" />
<glyph unicode="&#x1ebf;" horiz-adv-x="1099" d="M88 487q0 240 121 372t358 132q215 0 330 -112.5t115 -300.5v-181h-711q16 -139 100 -193t265 -54q74 0 150.5 14t135.5 37v-164q-129 -57 -331 -57q-259 0 -396 126.5t-137 380.5zM238 1065l243 260h172l244 -260h-182l-148 168l-143 -168h-186zM301 543h514v67 q0 104 -57.5 158.5t-184.5 54.5q-152 0 -212 -65.5t-60 -214.5zM754 1296l131 273h170l-144 -273h-157z" />
<glyph unicode="&#x1ec0;" horiz-adv-x="1126" d="M109 1909h172l131 -273h-158zM129 0v1319h920v-174h-697v-400h621v-172h-621v-401h697v-172h-920zM268 1405l242 260h174l242 -260h-185l-145 168l-145 -168h-183z" />
<glyph unicode="&#x1ec1;" horiz-adv-x="1099" d="M88 487q0 240 121 372t358 132q215 0 330 -112.5t115 -300.5v-181h-711q16 -139 100 -193t265 -54q74 0 150.5 14t135.5 37v-164q-129 -57 -331 -57q-259 0 -396 126.5t-137 380.5zM92 1595h172l131 -272h-157zM252 1092l242 260h174l241 -260h-184l-145 168l-146 -168 h-182zM301 543h514v67q0 104 -57.5 158.5t-184.5 54.5q-152 0 -212 -65.5t-60 -214.5z" />
<glyph unicode="&#x1ec2;" horiz-adv-x="1126" d="M129 0v1319h920v-174h-697v-400h621v-172h-621v-401h697v-172h-920zM254 1405l242 260h174l241 -260h-182l-145 168l-146 -168h-184zM733 1847v109q70 25 158 24q98 0 154.5 -43t56.5 -116q0 -68 -38 -107t-120 -51v-70h-158v136q94 4 126 22t32 57q0 33 -23.5 48.5 t-72.5 15.5q-59 0 -115 -25z" />
<glyph unicode="&#x1ec3;" horiz-adv-x="1099" d="M88 487q0 240 121 372t358 132q215 0 330 -112.5t115 -300.5v-181h-711q16 -139 100 -193t265 -54q74 0 150.5 14t135.5 37v-164q-129 -57 -331 -57q-259 0 -396 126.5t-137 380.5zM229 1065l242 260h174l242 -260h-182l-146 168l-145 -168h-185zM301 543h514v67 q0 104 -57.5 158.5t-184.5 54.5q-152 0 -212 -65.5t-60 -214.5zM709 1507v109q70 25 157 24q98 0 154.5 -43t56.5 -116q0 -68 -38 -107t-119 -51v-70h-158v136q94 4 126 22.5t32 56.5q0 33 -24 48.5t-73 15.5q-59 0 -114 -25z" />
<glyph unicode="&#x1ec4;" horiz-adv-x="1126" d="M129 0v1319h920v-174h-697v-400h621v-172h-621v-401h697v-172h-920zM256 1407l242 260h174l241 -260h-182l-145 168l-146 -168h-184zM283 1690v145q27 27 72.5 43t95.5 16q39 0 70.5 -9t86.5 -30q49 -18 79 -27t65 -9q104 0 157 71v-145q-20 -27 -62 -44.5t-93 -17.5 q-39 0 -75 10.5t-89 30.5q-49 18 -78 27.5t-59 9.5q-106 0 -170 -71z" />
<glyph unicode="&#x1ec5;" horiz-adv-x="1099" d="M88 487q0 240 121 372t358 132q215 0 330 -112.5t115 -300.5v-181h-711q16 -139 100 -193t265 -54q74 0 150.5 14t135.5 37v-164q-129 -57 -331 -57q-259 0 -396 126.5t-137 380.5zM238 1067l241 260h174l242 -260h-182l-146 168l-145 -168h-184zM264 1350v145 q27 27 73 43t95 16q39 0 71 -9t87 -29q49 -18 78.5 -27.5t64.5 -9.5q104 0 158 71v-145q-20 -27 -62.5 -44.5t-93.5 -17.5q-39 0 -74.5 10.5t-89.5 30.5q-49 18 -77.5 27.5t-59.5 9.5q-106 0 -170 -71zM301 543h514v67q0 104 -57.5 158.5t-184.5 54.5q-152 0 -212 -65.5 t-60 -214.5z" />
<glyph unicode="&#x1ec6;" horiz-adv-x="1126" d="M129 0v1319h920v-174h-697v-400h621v-172h-621v-401h697v-172h-920zM231 1407l256 330h156l256 -330h-178l-156 207l-151 -207h-183zM469 -174h193v-180h-193v180z" />
<glyph unicode="&#x1ec7;" horiz-adv-x="1099" d="M88 487q0 240 121 372t358 132q215 0 330 -112.5t115 -300.5v-181h-711q16 -139 100 -193t265 -54q74 0 150.5 14t135.5 37v-164q-129 -57 -331 -57q-259 0 -396 126.5t-137 380.5zM227 1067l256 330h156l256 -330h-178l-156 207l-151 -207h-183zM301 543h514v67 q0 104 -57.5 158.5t-184.5 54.5q-152 0 -212 -65.5t-60 -214.5zM467 -174h192v-180h-192v180z" />
<glyph unicode="&#x1ec8;" horiz-adv-x="481" d="M57 1739v121q33 12 85.5 19t105.5 7q125 0 191.5 -51t66.5 -139q0 -86 -41 -132t-139 -61v-96h-174v168q113 6 150.5 27.5t37.5 74.5q0 45 -38 65.5t-114 20.5q-31 0 -67.5 -7t-63.5 -17zM129 0v1319h223v-1319h-223z" />
<glyph unicode="&#x1ec9;" horiz-adv-x="630" d="M129 801l21 170h350v-971h-224v801h-147zM147 1399v121q33 12 85.5 19t105.5 7q125 0 191.5 -51t66.5 -139q0 -86 -41 -132t-139 -61v-96h-174v168q113 6 150.5 27.5t37.5 74.5q0 45 -38 65.5t-113 20.5q-31 0 -68 -7t-64 -17z" />
<glyph unicode="&#x1eca;" horiz-adv-x="481" d="M129 0v1319h223v-1319h-223zM143 -174h193v-180h-193v180z" />
<glyph unicode="&#x1ecb;" horiz-adv-x="630" d="M129 801l21 170h350v-971h-224v801h-147zM258 1174v184h244v-184h-244zM293 -174h192v-180h-192v180z" />
<glyph unicode="&#x1ecc;" horiz-adv-x="1427" d="M88 655q0 356 153.5 520t471.5 164q317 0 470.5 -163.5t153.5 -520.5q0 -346 -154.5 -510.5t-469.5 -164.5q-316 0 -470.5 164.5t-154.5 510.5zM313 655q0 -256 96.5 -371.5t303.5 -115.5q209 0 305 114.5t96 372.5q0 268 -95 381t-306 113q-209 0 -304.5 -112.5 t-95.5 -381.5zM616 -174h193v-180h-193v180z" />
<glyph unicode="&#x1ecd;" horiz-adv-x="1189" d="M88 485q0 506 506 506q508 0 508 -506t-508 -505q-506 -1 -506 505zM313 485q0 -170 64.5 -243.5t216.5 -73.5q154 0 218.5 73.5t64.5 243.5q0 168 -64.5 242t-218.5 74q-152 0 -216.5 -74t-64.5 -242zM498 -174h192v-180h-192v180z" />
<glyph unicode="&#x1ece;" horiz-adv-x="1427" d="M88 655q0 356 153.5 520t471.5 164q317 0 470.5 -163.5t153.5 -520.5q0 -346 -154.5 -510.5t-469.5 -164.5q-316 0 -470.5 164.5t-154.5 510.5zM313 655q0 -256 96.5 -371.5t303.5 -115.5q209 0 305 114.5t96 372.5q0 268 -95 381t-306 113q-209 0 -304.5 -112.5 t-95.5 -381.5zM535 1739v121q33 12 85 19t105 7q125 0 191.5 -51t66.5 -139q0 -86 -41 -132t-139 -61v-96h-174v168q113 6 150.5 27.5t37.5 74.5q0 45 -38 65.5t-113 20.5q-31 0 -68 -7t-63 -17z" />
<glyph unicode="&#x1ecf;" horiz-adv-x="1189" d="M88 485q0 506 506 506q508 0 508 -506t-508 -505q-506 -1 -506 505zM313 485q0 -170 64.5 -243.5t216.5 -73.5q154 0 218.5 73.5t64.5 243.5q0 168 -64.5 242t-218.5 74q-152 0 -216.5 -74t-64.5 -242zM416 1399v121q33 12 85 19t105 7q125 0 191.5 -51t66.5 -139 q0 -86 -41 -132t-139 -61v-96h-174v168q113 6 150.5 27.5t37.5 74.5q0 45 -37.5 65.5t-113.5 20.5q-31 0 -68 -7t-63 -17z" />
<glyph unicode="&#x1ed0;" horiz-adv-x="1427" d="M88 655q0 356 153.5 520t471.5 164q317 0 470.5 -163.5t153.5 -520.5q0 -346 -154.5 -510.5t-469.5 -164.5q-316 0 -470.5 164.5t-154.5 510.5zM313 655q0 -256 96.5 -371.5t303.5 -115.5q209 0 305 114.5t96 372.5q0 268 -95 381t-306 113q-209 0 -304.5 -112.5 t-95.5 -381.5zM389 1407l244 260h172l244 -260h-183l-147 168l-144 -168h-186zM905 1638l131 273h170l-143 -273h-158z" />
<glyph unicode="&#x1ed1;" horiz-adv-x="1189" d="M88 485q0 506 506 506q508 0 508 -506t-508 -505q-506 -1 -506 505zM266 1067l244 260h172l244 -260h-183l-147 168l-143 -168h-187zM313 485q0 -170 64.5 -243.5t216.5 -73.5q154 0 218.5 73.5t64.5 243.5q0 168 -64.5 242t-218.5 74q-152 0 -216.5 -74t-64.5 -242z M782 1298l131 273h170l-143 -273h-158z" />
<glyph unicode="&#x1ed2;" horiz-adv-x="1427" d="M88 655q0 356 153.5 520t471.5 164q317 0 470.5 -163.5t153.5 -520.5q0 -346 -154.5 -510.5t-469.5 -164.5q-316 0 -470.5 164.5t-154.5 510.5zM223 1911h172l131 -273h-157zM313 655q0 -256 96.5 -371.5t303.5 -115.5q209 0 305 114.5t96 372.5q0 268 -95 381t-306 113 q-209 0 -304.5 -112.5t-95.5 -381.5zM383 1407l242 260h174l241 -260h-184l-145 168l-146 -168h-182z" />
<glyph unicode="&#x1ed3;" horiz-adv-x="1189" d="M88 485q0 506 506 506q508 0 508 -506t-508 -505q-506 -1 -506 505zM96 1571h172l131 -273h-157zM256 1067l242 260h174l241 -260h-184l-145 168l-146 -168h-182zM313 485q0 -170 64.5 -243.5t216.5 -73.5q154 0 218.5 73.5t64.5 243.5q0 168 -64.5 242t-218.5 74 q-152 0 -216.5 -74t-64.5 -242z" />
<glyph unicode="&#x1ed4;" horiz-adv-x="1427" d="M88 655q0 356 153.5 520t471.5 164q317 0 470.5 -163.5t153.5 -520.5q0 -346 -154.5 -510.5t-469.5 -164.5q-316 0 -470.5 164.5t-154.5 510.5zM313 655q0 -256 96.5 -371.5t303.5 -115.5q209 0 305 114.5t96 372.5q0 268 -95 381t-306 113q-209 0 -304.5 -112.5 t-95.5 -381.5zM379 1407l242 260h174l241 -260h-182l-145 168l-146 -168h-184zM858 1849v109q70 25 158 24q98 0 154.5 -43t56.5 -116q0 -68 -38 -107t-120 -51v-70h-158v136q94 4 126 22.5t32 56.5q0 33 -23.5 48.5t-72.5 15.5q-59 0 -115 -25z" />
<glyph unicode="&#x1ed5;" horiz-adv-x="1189" d="M88 485q0 506 506 506q508 0 508 -506t-508 -505q-506 -1 -506 505zM283 1067l241 260h174l242 -260h-182l-146 168l-145 -168h-184zM313 485q0 -170 64.5 -243.5t216.5 -73.5q154 0 218.5 73.5t64.5 243.5q0 168 -64.5 242t-218.5 74q-152 0 -216.5 -74t-64.5 -242z M762 1509v109q70 25 158 24q98 0 154 -43t56 -116q0 -68 -37.5 -107t-119.5 -51v-70h-158v136q94 4 126 22.5t32 56.5q0 33 -23.5 48.5t-72.5 15.5q-59 0 -115 -25z" />
<glyph unicode="&#x1ed6;" horiz-adv-x="1427" d="M88 655q0 356 153.5 520t471.5 164q317 0 470.5 -163.5t153.5 -520.5q0 -346 -154.5 -510.5t-469.5 -164.5q-316 0 -470.5 164.5t-154.5 510.5zM313 655q0 -256 96.5 -371.5t303.5 -115.5q209 0 305 114.5t96 372.5q0 268 -95 381t-306 113q-209 0 -304.5 -112.5 t-95.5 -381.5zM393 1712h135q0 -88 49.5 -135t135.5 -47t135 47t49 135h135q0 -156 -88 -229.5t-231 -73.5q-144 0 -232 73.5t-88 229.5zM401 1761v146q27 27 73 43t95 16q39 0 74 -10t84 -31q49 -18 79 -27.5t64 -9.5q106 0 158 74v-147q-20 -27 -62 -43.5t-94 -16.5 q-38 0 -74 10.5t-89 30.5q-10 4 -54.5 19.5t-83.5 15.5q-106 0 -170 -70z" />
<glyph unicode="&#x1ed7;" horiz-adv-x="1189" d="M88 485q0 506 506 506q508 0 508 -506t-508 -505q-506 -1 -506 505zM274 1372h136q0 -88 49 -135t135 -47t135 47t49 135h135q0 -156 -88 -229.5t-231 -73.5t-231.5 74t-88.5 229zM283 1421v146q27 27 72.5 43t95.5 16q39 0 73.5 -10t83.5 -31q49 -18 79 -27.5t65 -9.5 q106 0 157 74v-147q-20 -27 -62 -43.5t-93 -16.5q-39 0 -75 10.5t-89 30.5q-10 4 -54 19.5t-83 15.5q-106 0 -170 -70zM313 485q0 -170 64.5 -243.5t216.5 -73.5q154 0 218.5 73.5t64.5 243.5q0 168 -64.5 242t-218.5 74q-152 0 -216.5 -74t-64.5 -242z" />
<glyph unicode="&#x1ed8;" horiz-adv-x="1427" d="M88 655q0 356 153.5 520t471.5 164q317 0 470.5 -163.5t153.5 -520.5q0 -346 -154.5 -510.5t-469.5 -164.5q-316 0 -470.5 164.5t-154.5 510.5zM313 655q0 -256 96.5 -371.5t303.5 -115.5q209 0 305 114.5t96 372.5q0 268 -95 381t-306 113q-209 0 -304.5 -112.5 t-95.5 -381.5zM379 1417l256 330h156l256 -330h-179l-155 207l-152 -207h-182zM616 -174h193v-180h-193v180z" />
<glyph unicode="&#x1ed9;" horiz-adv-x="1189" d="M88 485q0 506 506 506q508 0 508 -506t-508 -505q-506 -1 -506 505zM260 1067l256 330h156l256 -330h-178l-156 207l-152 -207h-182zM313 485q0 -170 64.5 -243.5t216.5 -73.5q154 0 218.5 73.5t64.5 243.5q0 168 -64.5 242t-218.5 74q-152 0 -216.5 -74t-64.5 -242z M498 -174h192v-180h-192v180z" />
<glyph unicode="&#x1eda;" horiz-adv-x="1576" d="M88 655q0 356 153.5 520t471.5 164q309 0 461 -157q113 2 154.5 50t41.5 177h172q0 -184 -65.5 -271t-202.5 -108q63 -145 63 -375q0 -346 -154.5 -510.5t-469.5 -164.5q-316 0 -470.5 164.5t-154.5 510.5zM313 655q0 -256 96.5 -371.5t303.5 -115.5q209 0 305 114.5 t96 372.5q0 268 -95 381t-306 113q-209 0 -304.5 -112.5t-95.5 -381.5zM645 1409l154 363h196l-172 -363h-178z" />
<glyph unicode="&#x1edb;" horiz-adv-x="1384" d="M88 485q0 506 506 506q256 0 385 -133q115 2 157 54.5t42 185.5h172q0 -188 -69 -278.5t-214 -110.5q35 -98 35 -224q0 -506 -508 -505q-506 -1 -506 505zM313 485q0 -170 64.5 -243.5t216.5 -73.5q154 0 218.5 73.5t64.5 243.5q0 168 -64.5 242t-218.5 74 q-152 0 -216.5 -74t-64.5 -242zM518 1069l154 363h196l-172 -363h-178z" />
<glyph unicode="&#x1edc;" horiz-adv-x="1576" d="M88 655q0 356 153.5 520t471.5 164q309 0 461 -157q113 2 154.5 50t41.5 177h172q0 -184 -65.5 -271t-202.5 -108q63 -145 63 -375q0 -346 -154.5 -510.5t-469.5 -164.5q-316 0 -470.5 164.5t-154.5 510.5zM313 655q0 -256 96.5 -371.5t303.5 -115.5q209 0 305 114.5 t96 372.5q0 268 -95 381t-306 113q-209 0 -304.5 -112.5t-95.5 -381.5zM496 1772h194l156 -363h-180z" />
<glyph unicode="&#x1edd;" horiz-adv-x="1384" d="M88 485q0 506 506 506q256 0 385 -133q115 2 157 54.5t42 185.5h172q0 -188 -69 -278.5t-214 -110.5q35 -98 35 -224q0 -506 -508 -505q-506 -1 -506 505zM313 485q0 -170 64.5 -243.5t216.5 -73.5q154 0 218.5 73.5t64.5 243.5q0 168 -64.5 242t-218.5 74 q-152 0 -216.5 -74t-64.5 -242zM365 1432h194l156 -363h-180z" />
<glyph unicode="&#x1ede;" horiz-adv-x="1576" d="M88 655q0 356 153.5 520t471.5 164q309 0 461 -157q113 2 154.5 50t41.5 177h172q0 -184 -65.5 -271t-202.5 -108q63 -145 63 -375q0 -346 -154.5 -510.5t-469.5 -164.5q-316 0 -470.5 164.5t-154.5 510.5zM313 655q0 -256 96.5 -371.5t303.5 -115.5q209 0 305 114.5 t96 372.5q0 268 -95 381t-306 113q-209 0 -304.5 -112.5t-95.5 -381.5zM545 1739v121q33 12 85 19t105 7q125 0 191.5 -51t66.5 -139q0 -86 -41 -132t-139 -61v-96h-174v168q113 6 150.5 27.5t37.5 74.5q0 45 -37.5 65.5t-113.5 20.5q-31 0 -68 -7t-63 -17z" />
<glyph unicode="&#x1edf;" horiz-adv-x="1384" d="M88 485q0 506 506 506q256 0 385 -133q115 2 157 54.5t42 185.5h172q0 -188 -69 -278.5t-214 -110.5q35 -98 35 -224q0 -506 -508 -505q-506 -1 -506 505zM313 485q0 -170 64.5 -243.5t216.5 -73.5q154 0 218.5 73.5t64.5 243.5q0 168 -64.5 242t-218.5 74 q-152 0 -216.5 -74t-64.5 -242zM410 1399v121q33 12 85 19t105 7q125 0 191.5 -51t66.5 -139q0 -86 -41 -132t-139 -61v-96h-174v168q113 6 150.5 27.5t37.5 74.5q0 45 -38 65.5t-113 20.5q-31 0 -68 -7t-63 -17z" />
<glyph unicode="&#x1ee0;" horiz-adv-x="1576" d="M88 655q0 356 153.5 520t471.5 164q309 0 461 -157q113 2 154.5 50t41.5 177h172q0 -184 -65.5 -271t-202.5 -108q63 -145 63 -375q0 -346 -154.5 -510.5t-469.5 -164.5q-316 0 -470.5 164.5t-154.5 510.5zM313 655q0 -256 96.5 -371.5t303.5 -115.5q209 0 305 114.5 t96 372.5q0 268 -95 381t-306 113q-209 0 -304.5 -112.5t-95.5 -381.5zM416 1442v164q27 27 75 44t99 17q41 0 76.5 -10t87.5 -31q47 -18 79.5 -28.5t69.5 -10.5q106 0 164 76v-164q-20 -29 -64.5 -46t-97.5 -17q-39 0 -73.5 10t-96.5 33q-51 18 -80.5 27.5t-60.5 9.5 q-113 0 -178 -74z" />
<glyph unicode="&#x1ee1;" horiz-adv-x="1384" d="M88 485q0 506 506 506q256 0 385 -133q115 2 157 54.5t42 185.5h172q0 -188 -69 -278.5t-214 -110.5q35 -98 35 -224q0 -506 -508 -505q-506 -1 -506 505zM281 1102v164q27 27 74.5 44t99.5 17q41 0 76.5 -10t86.5 -31q47 -18 80 -28.5t70 -10.5q106 0 164 76v-164 q-20 -29 -64.5 -46t-97.5 -17q-39 0 -73.5 10t-96.5 33q-51 18 -81 27.5t-60 9.5q-113 0 -178 -74zM313 485q0 -170 64.5 -243.5t216.5 -73.5q154 0 218.5 73.5t64.5 243.5q0 168 -64.5 242t-218.5 74q-152 0 -216.5 -74t-64.5 -242z" />
<glyph unicode="&#x1ee2;" horiz-adv-x="1576" d="M88 655q0 356 153.5 520t471.5 164q309 0 461 -157q113 2 154.5 50t41.5 177h172q0 -184 -65.5 -271t-202.5 -108q63 -145 63 -375q0 -346 -154.5 -510.5t-469.5 -164.5q-316 0 -470.5 164.5t-154.5 510.5zM313 655q0 -256 96.5 -371.5t303.5 -115.5q209 0 305 114.5 t96 372.5q0 268 -95 381t-306 113q-209 0 -304.5 -112.5t-95.5 -381.5zM625 -174h192v-180h-192v180z" />
<glyph unicode="&#x1ee3;" horiz-adv-x="1384" d="M88 485q0 506 506 506q256 0 385 -133q115 2 157 54.5t42 185.5h172q0 -188 -69 -278.5t-214 -110.5q35 -98 35 -224q0 -506 -508 -505q-506 -1 -506 505zM313 485q0 -170 64.5 -243.5t216.5 -73.5q154 0 218.5 73.5t64.5 243.5q0 168 -64.5 242t-218.5 74 q-152 0 -216.5 -74t-64.5 -242zM508 -174h192v-180h-192v180z" />
<glyph unicode="&#x1ee4;" horiz-adv-x="1380" d="M119 489v830h223v-821q0 -164 90 -247t260 -83q168 0 258 83t90 247v821h222v-830q0 -248 -148.5 -378.5t-421.5 -130.5q-274 0 -423.5 131t-149.5 378zM594 -174h192v-180h-192v180z" />
<glyph unicode="&#x1ee5;" horiz-adv-x="1183" d="M119 358v613h223v-613q0 -109 53.5 -160t163.5 -51q80 0 149.5 30t122.5 83v711h222v-971h-203l-10 100q-154 -121 -361 -120q-174 0 -267 97t-93 281zM477 -174h193v-180h-193v180z" />
<glyph unicode="&#x1ee6;" horiz-adv-x="1380" d="M119 489v830h223v-821q0 -164 90 -247t260 -83q168 0 258 83t90 247v821h222v-830q0 -248 -148.5 -378.5t-421.5 -130.5q-274 0 -423.5 131t-149.5 378zM504 1739v121q33 12 85 19t105 7q125 0 191.5 -51t66.5 -139q0 -86 -41 -132t-139 -61v-96h-174v168 q113 6 150.5 27.5t37.5 74.5q0 45 -37.5 65.5t-113.5 20.5q-31 0 -68 -7t-63 -17z" />
<glyph unicode="&#x1ee7;" horiz-adv-x="1183" d="M119 358v613h223v-613q0 -109 53.5 -160t163.5 -51q80 0 149.5 30t122.5 83v711h222v-971h-203l-10 100q-154 -121 -361 -120q-174 0 -267 97t-93 281zM401 1399v121q33 12 85.5 19t105.5 7q125 0 191.5 -51t66.5 -139q0 -86 -41 -132t-139 -61v-96h-174v168 q113 6 150.5 27.5t37.5 74.5q0 45 -38 65.5t-114 20.5q-31 0 -67.5 -7t-63.5 -17z" />
<glyph unicode="&#x1ee8;" horiz-adv-x="1681" d="M119 489v830h223v-821q0 -164 90 -247t260 -83q168 0 258 83t90 247v821h222v-143q113 4 155.5 53t42.5 180h172q0 -145 -39 -230t-119.5 -122t-211.5 -39v-529q0 -248 -148.5 -378.5t-421.5 -130.5q-274 0 -423.5 131t-149.5 378zM616 1409l154 363h197l-172 -363h-179z " />
<glyph unicode="&#x1ee9;" horiz-adv-x="1437" d="M119 358v613h223v-613q0 -109 53.5 -160t163.5 -51q80 0 149.5 30t122.5 83v711h222v-113q96 8 132 61.5t36 178.5h172q0 -201 -83 -294t-257 -99v-705h-203l-10 100q-154 -121 -361 -120q-174 0 -267 97t-93 281zM506 1069l153 363h197l-172 -363h-178z" />
<glyph unicode="&#x1eea;" horiz-adv-x="1681" d="M119 489v830h223v-821q0 -164 90 -247t260 -83q168 0 258 83t90 247v821h222v-143q113 4 155.5 53t42.5 180h172q0 -145 -39 -230t-119.5 -122t-211.5 -39v-529q0 -248 -148.5 -378.5t-421.5 -130.5q-274 0 -423.5 131t-149.5 378zM451 1772h194l156 -363h-180z" />
<glyph unicode="&#x1eeb;" horiz-adv-x="1437" d="M119 358v613h223v-613q0 -109 53.5 -160t163.5 -51q80 0 149.5 30t122.5 83v711h222v-113q96 8 132 61.5t36 178.5h172q0 -201 -83 -294t-257 -99v-705h-203l-10 100q-154 -121 -361 -120q-174 0 -267 97t-93 281zM350 1432h195l155 -363h-180z" />
<glyph unicode="&#x1eec;" horiz-adv-x="1681" d="M119 489v830h223v-821q0 -164 90 -247t260 -83q168 0 258 83t90 247v821h222v-143q113 4 155.5 53t42.5 180h172q0 -145 -39 -230t-119.5 -122t-211.5 -39v-529q0 -248 -148.5 -378.5t-421.5 -130.5q-274 0 -423.5 131t-149.5 378zM520 1739v121q33 12 85 19t106 7 q125 0 191.5 -51t66.5 -139q0 -86 -41 -132t-140 -61v-96h-174v168q113 6 151 27.5t38 74.5q0 45 -38 65.5t-114 20.5q-31 0 -67.5 -7t-63.5 -17z" />
<glyph unicode="&#x1eed;" horiz-adv-x="1437" d="M119 358v613h223v-613q0 -109 53.5 -160t163.5 -51q80 0 149.5 30t122.5 83v711h222v-113q96 8 132 61.5t36 178.5h172q0 -201 -83 -294t-257 -99v-705h-203l-10 100q-154 -121 -361 -120q-174 0 -267 97t-93 281zM414 1399v121q33 12 85 19t105 7q125 0 191.5 -51 t66.5 -139q0 -86 -41 -132t-139 -61v-96h-174v168q113 6 150.5 27.5t37.5 74.5q0 45 -37.5 65.5t-113.5 20.5q-31 0 -68 -7t-63 -17z" />
<glyph unicode="&#x1eee;" horiz-adv-x="1681" d="M119 489v830h223v-821q0 -164 90 -247t260 -83q168 0 258 83t90 247v821h222v-143q113 4 155.5 53t42.5 180h172q0 -145 -39 -230t-119.5 -122t-211.5 -39v-529q0 -248 -148.5 -378.5t-421.5 -130.5q-274 0 -423.5 131t-149.5 378zM365 1442v164q27 27 74.5 44t99.5 17 q41 0 76.5 -10t86.5 -31q47 -18 80 -28.5t70 -10.5q106 0 164 76v-164q-20 -29 -64.5 -46t-97.5 -17q-39 0 -74 10t-96 33q-51 18 -81 27.5t-60 9.5q-113 0 -178 -74z" />
<glyph unicode="&#x1eef;" horiz-adv-x="1437" d="M119 358v613h223v-613q0 -109 53.5 -160t163.5 -51q80 0 149.5 30t122.5 83v711h222v-113q96 8 132 61.5t36 178.5h172q0 -201 -83 -294t-257 -99v-705h-203l-10 100q-154 -121 -361 -120q-174 0 -267 97t-93 281zM276 1102v164q27 27 75 44t100 17q41 0 76.5 -10 t86.5 -31q47 -18 80 -28.5t70 -10.5q106 0 164 76v-164q-20 -29 -64.5 -46t-97.5 -17q-39 0 -74 10t-96 33q-51 18 -81 27.5t-60 9.5q-113 0 -179 -74z" />
<glyph unicode="&#x1ef0;" horiz-adv-x="1681" d="M119 489v830h223v-821q0 -164 90 -247t260 -83q168 0 258 83t90 247v821h222v-143q113 4 155.5 53t42.5 180h172q0 -145 -39 -230t-119.5 -122t-211.5 -39v-529q0 -248 -148.5 -378.5t-421.5 -130.5q-274 0 -423.5 131t-149.5 378zM590 -174h192v-180h-192v180z" />
<glyph unicode="&#x1ef1;" horiz-adv-x="1437" d="M119 358v613h223v-613q0 -109 53.5 -160t163.5 -51q80 0 149.5 30t122.5 83v711h222v-113q96 8 132 61.5t36 178.5h172q0 -201 -83 -294t-257 -99v-705h-203l-10 100q-154 -121 -361 -120q-174 0 -267 97t-93 281zM487 -174h193v-180h-193v180z" />
<glyph unicode="&#x1ef2;" horiz-adv-x="1343" d="M88 1319h231l353 -641l352 641h231l-473 -830v-489h-221v489zM434 1772h195l155 -363h-180z" />
<glyph unicode="&#x1ef3;" horiz-adv-x="1224" d="M88 971h231l312 -721l315 721h230l-396 -916q-88 -209 -183 -312t-249 -103q-110 -1 -188 28v166q57 -20 125 -20q61 0 100 19.5t67.5 60t67.5 118.5zM381 1432h194l156 -363h-180z" />
<glyph unicode="&#x1ef4;" horiz-adv-x="1343" d="M88 1319h231l353 -641l352 641h231l-473 -830v-489h-221v489zM575 -150h193v-180h-193v180z" />
<glyph unicode="&#x1ef5;" horiz-adv-x="1224" d="M88 971h231l312 -721l315 721h230l-396 -916q-88 -209 -183 -312t-249 -103q-110 -1 -188 28v166q57 -20 125 -20q61 0 100 19.5t67.5 60t67.5 118.5zM827 -150h193v-180h-193v180z" />
<glyph unicode="&#x1ef6;" horiz-adv-x="1343" d="M88 1319h231l353 -641l352 641h231l-473 -830v-489h-221v489zM475 1739v121q33 12 85 19t106 7q125 0 191.5 -51t66.5 -139q0 -86 -41 -132t-140 -61v-96h-174v168q113 6 151 27.5t38 74.5q0 45 -38 65.5t-114 20.5q-31 0 -67.5 -7t-63.5 -17z" />
<glyph unicode="&#x1ef7;" horiz-adv-x="1224" d="M88 971h231l312 -721l315 721h230l-396 -916q-88 -209 -183 -312t-249 -103q-110 -1 -188 28v166q57 -20 125 -20q61 0 100 19.5t67.5 60t67.5 118.5zM453 1399v121q33 12 85 19t105 7q125 0 191.5 -51t66.5 -139q0 -86 -41 -132t-139 -61v-96h-174v168q113 6 150.5 27.5 t37.5 74.5q0 45 -38 65.5t-113 20.5q-31 0 -68 -7t-63 -17z" />
<glyph unicode="&#x1ef8;" horiz-adv-x="1343" d="M88 1319h231l353 -641l352 641h231l-473 -830v-489h-221v489zM346 1446v164q27 27 75 44t99 17q41 0 77 -10t87 -31q47 -18 80 -28.5t70 -10.5q106 0 163 76v-164q-20 -29 -64 -46t-97 -17q-39 0 -74 10t-96 33q-51 18 -81 27.5t-61 9.5q-113 0 -178 -74z" />
<glyph unicode="&#x1ef9;" horiz-adv-x="1224" d="M88 971h231l312 -721l315 721h230l-396 -916q-88 -209 -183 -312t-249 -103q-110 -1 -188 28v166q57 -20 125 -20q61 0 100 19.5t67.5 60t67.5 118.5zM303 1106v164q27 27 75 44t99 17q41 0 77 -10t87 -31q47 -18 80 -28.5t70 -10.5q106 0 163 76v-164q-20 -29 -64 -46 t-97 -17q-39 0 -74 10t-96 33q-51 18 -81 27.5t-61 9.5q-113 0 -178 -74z" />
<glyph unicode="&#x2000;" horiz-adv-x="1086" />
<glyph unicode="&#x2001;" horiz-adv-x="2173" />
<glyph unicode="&#x2002;" horiz-adv-x="1086" />
<glyph unicode="&#x2003;" horiz-adv-x="2173" />
<glyph unicode="&#x2004;" horiz-adv-x="724" />
<glyph unicode="&#x2005;" horiz-adv-x="543" />
<glyph unicode="&#x2006;" horiz-adv-x="362" />
<glyph unicode="&#x2007;" />
<glyph unicode="&#x2008;" horiz-adv-x="271" />
<glyph unicode="&#x2009;" horiz-adv-x="434" />
<glyph unicode="&#x200a;" horiz-adv-x="120" />
<glyph unicode="&#x2010;" horiz-adv-x="1030" d="M88 465v174h852v-174h-852z" />
<glyph unicode="&#x2011;" horiz-adv-x="958" d="M88 465v174h782v-174h-782z" />
<glyph unicode="&#x2012;" horiz-adv-x="1234" d="M88 465v174h1057v-174h-1057z" />
<glyph unicode="&#x2013;" horiz-adv-x="1177" d="M88 465v174h1002v-174h-1002z" />
<glyph unicode="&#x2014;" horiz-adv-x="1757" d="M88 465v174h1579v-174h-1579z" />
<glyph unicode="&#x2015;" horiz-adv-x="1849" d="M88 465v174h1673v-174h-1673z" />
<glyph unicode="&#x2018;" horiz-adv-x="481" d="M88 940l135 399h168l-106 -399h-197z" />
<glyph unicode="&#x2019;" horiz-adv-x="481" d="M88 940l109 399h194l-135 -399h-168z" />
<glyph unicode="&#x201a;" horiz-adv-x="481" d="M88 -332l109 400h194l-135 -400h-168z" />
<glyph unicode="&#x201c;" horiz-adv-x="765" d="M88 940l135 399h154l-109 -399h-180zM389 940l135 399h152l-107 -399h-180z" />
<glyph unicode="&#x201d;" horiz-adv-x="765" d="M88 940l109 399h180l-135 -399h-154zM389 940l107 399h180l-135 -399h-152z" />
<glyph unicode="&#x201e;" horiz-adv-x="765" d="M88 -236l109 400h180l-135 -400h-154zM389 -236l107 400h180l-135 -400h-152z" />
<glyph unicode="&#x2020;" horiz-adv-x="1136" d="M88 854v172l379 -6l-10 414h225l-10 -414l375 6v-172l-375 6l8 -860h-221l8 860z" />
<glyph unicode="&#x2021;" horiz-adv-x="1136" d="M88 377v168l379 -4l-10 176l10 174l-379 -2v166l379 -4l-10 383h225l-10 -383l375 4v-166l-375 2l10 -174l-10 -176l375 4v-168l-375 2l8 -379h-221l8 379z" />
<glyph unicode="&#x2022;" horiz-adv-x="684" d="M88 588q0 104 74 179t178 75q106 0 180 -75t74 -179q0 -106 -74 -179t-180 -73q-104 0 -178 72.5t-74 179.5z" />
<glyph unicode="&#x2026;" horiz-adv-x="1171" d="M88 0v172h186v-172h-186zM494 0v172h184v-172h-184zM897 0v172h184v-172h-184z" />
<glyph unicode="&#x202f;" horiz-adv-x="434" />
<glyph unicode="&#x2030;" horiz-adv-x="2136" d="M88 1024q0 150 74 232.5t217 82.5q141 0 215 -82.5t74 -232.5q0 -131 -75 -209t-214 -78q-141 0 -216 78t-75 209zM229 1028q0 -156 150 -156q149 0 149 156q0 90 -35.5 132t-113.5 42t-114 -42t-36 -132zM289 0l698 1319h209l-698 -1319h-209zM821 266q0 150 74 233 t217 83q141 0 215 -83t74 -233q0 -131 -75 -208.5t-214 -77.5q-141 0 -216 77.5t-75 208.5zM963 270q0 -156 149 -155q150 -1 150 155q0 90 -36 132t-114 42t-113.5 -42t-35.5 -132zM1466 266q0 150 74 233t217 83q141 0 215 -83t74 -233q0 -131 -75 -208.5t-214 -77.5 q-141 0 -216 77.5t-75 208.5zM1608 270q0 -156 149 -155q150 -1 150 155q0 90 -36 132t-114 42t-113.5 -42t-35.5 -132z" />
<glyph unicode="&#x2032;" horiz-adv-x="370" d="M88 932v387h193l-27 -387h-166z" />
<glyph unicode="&#x2033;" horiz-adv-x="698" d="M88 932v387h193l-27 -387h-166zM416 932v387h192l-26 -387h-166z" />
<glyph unicode="&#x2039;" horiz-adv-x="794" d="M88 539v94l528 389l89 -127l-418 -311l418 -310l-89 -124z" />
<glyph unicode="&#x203a;" horiz-adv-x="794" d="M88 274l418 310l-418 311l88 127l529 -389v-94l-529 -389z" />
<glyph unicode="&#x2044;" horiz-adv-x="313" d="M-281 0l650 1356h223l-645 -1356h-228z" />
<glyph unicode="&#x205f;" horiz-adv-x="543" />
<glyph unicode="&#x2070;" horiz-adv-x="737" d="M84 1030q0 309 285 309q283 0 282 -309q0 -137 -70.5 -213t-211.5 -76q-142 0 -213.5 76t-71.5 213zM233 1030q0 -86 31 -127t105 -41q73 0 103 41t30 127q0 100 -28 143.5t-105 43.5q-76 0 -106 -44.5t-30 -142.5z" />
<glyph unicode="&#x2074;" horiz-adv-x="608" d="M47 868v107l287 364h162v-362h63v-109h-63v-110h-152v110h-297zM197 979h180v233z" />
<glyph unicode="&#x2075;" horiz-adv-x="620" d="M88 766v117q61 -27 148 -27q76 0 109.5 17.5t33.5 60.5q0 45 -26.5 61.5t-96.5 16.5h-166v92l14 215h385l-8 -113h-243l-7 -94h91q209 0 208 -180q0 -88 -67.5 -139.5t-196.5 -51.5q-49 0 -99 6.5t-79 18.5z" />
<glyph unicode="&#x2076;" horiz-adv-x="657" d="M88 967v127q0 115 71.5 180t196.5 65q98 0 156 -22v-113q-57 20 -147 21q-70 0 -108 -30t-38 -79v-24q61 47 146 47q109 0 156.5 -49.5t47.5 -149.5q0 -94 -58 -146.5t-177 -52.5q-117 0 -181.5 55.5t-64.5 170.5zM219 948q0 -51 26.5 -75.5t84.5 -24.5q57 0 79.5 22.5 t22.5 69.5q0 49 -20.5 69.5t-77.5 20.5t-115 -43v-39z" />
<glyph unicode="&#x2077;" horiz-adv-x="591" d="M68 1198v121h454v-102l-196 -459h-160l188 440h-286z" />
<glyph unicode="&#x2078;" horiz-adv-x="677" d="M88 907q0 98 96 140q-80 39 -80 129q0 76 63.5 119.5t172.5 43.5t171 -44t62 -119q0 -45 -17 -78t-64 -58q53 -20 75.5 -53t22.5 -80q0 -80 -68.5 -123t-181.5 -43q-115 0 -183.5 43t-68.5 123zM229 911q0 -76 111 -75q53 0 82 18t29 55q0 33 -17.5 49.5t-64.5 26.5 l-60 14q-43 -14 -61.5 -31.5t-18.5 -56.5zM242 1171q0 -31 14 -48t49 -25l55 -13q46 15 61 32.5t15 53.5q0 72 -96 72q-98 0 -98 -72z" />
<glyph unicode="&#x2079;" horiz-adv-x="657" d="M88 1141q0 94 58.5 146t177.5 52q246 0 245 -225v-129q0 -113 -71.5 -178.5t-196.5 -65.5q-95 1 -156 21v115q49 -20 148 -21q70 0 107.5 28.5t37.5 80.5v24q-61 -47 -141 -47q-111 0 -160 48t-49 151zM225 1139q0 -49 20.5 -68.5t78.5 -19.5q59 0 114 41v38 q0 53 -26.5 77t-83.5 24t-80 -22.5t-23 -69.5z" />
<glyph unicode="&#x207d;" horiz-adv-x="450" d="M88 1053q0 92 29.5 183t85.5 148h157q-66 -66 -96.5 -151.5t-30.5 -179.5q0 -96 31 -182.5t96 -149.5h-157q-56 57 -85.5 147t-29.5 185z" />
<glyph unicode="&#x207e;" horiz-adv-x="450" d="M88 721q66 63 97.5 149t31.5 183q0 94 -31.5 180t-97.5 151h160q55 -57 83.5 -147t28.5 -184q0 -96 -28.5 -186.5t-83.5 -145.5h-160z" />
<glyph unicode="&#x207f;" horiz-adv-x="733" d="M98 791v536h131l4 -55q92 66 213 65q92 0 144.5 -49t52.5 -145v-352h-137v325q0 63 -24.5 88t-88.5 25q-41 0 -84 -17.5t-71 -44.5v-376h-140z" />
<glyph unicode="&#x2080;" horiz-adv-x="737" d="M84 27q0 309 285 309q283 0 282 -309q0 -137 -70.5 -213t-211.5 -76q-142 0 -213.5 75.5t-71.5 213.5zM233 27q0 -86 31 -127t105 -41q73 0 103 41t30 127q0 100 -28 143t-105 43q-76 0 -106 -44t-30 -142z" />
<glyph unicode="&#x2081;" horiz-adv-x="438" d="M66 156v120l301 60v-582h-154v432z" />
<glyph unicode="&#x2082;" horiz-adv-x="616" d="M88 -168q27 43 59.5 74t96.5 84q74 61 98.5 90t24.5 61q0 39 -26 55.5t-87 16.5q-72 0 -150 -31v121q39 12 93.5 22.5t105.5 10.5q102 0 160.5 -49t58.5 -125q0 -55 -23.5 -94t-82.5 -95l-43 -36q-43 -37 -66 -62h219v-121h-438v78z" />
<glyph unicode="&#x2083;" horiz-adv-x="622" d="M88 -125q70 -29 150 -29q74 0 104.5 16.5t30.5 55.5q0 72 -121 72h-80l8 98h66q59 0 86.5 18.5t27.5 57.5q0 33 -29.5 46t-90.5 13q-74 0 -142 -26v112q31 10 81 18.5t100 8.5q244 0 243 -164q0 -45 -20.5 -81t-63.5 -52q96 -27 97 -127q0 -174 -261 -174q-49 0 -103 7 t-83 19v111z" />
<glyph unicode="&#x2084;" horiz-adv-x="608" d="M47 -29l287 365h162v-363h63v-108h-63v-111h-152v111h-297v106zM197 -25h180v234z" />
<glyph unicode="&#x2085;" horiz-adv-x="620" d="M88 -121q61 -27 148 -26q76 0 109.5 17t33.5 60q0 45 -26.5 61.5t-96.5 16.5h-166v92l14 215h385l-8 -112h-243l-7 -94h91q209 0 208 -181q0 -88 -67.5 -139t-196.5 -51q-49 0 -99 6t-79 18v117z" />
<glyph unicode="&#x2086;" horiz-adv-x="657" d="M88 -37v127q0 115 71.5 180.5t196.5 65.5q98 0 156 -23v-112q-57 20 -147 20q-70 0 -108 -29.5t-38 -78.5v-25q61 47 146 47q109 0 156.5 -49t47.5 -149q0 -94 -58 -146.5t-177 -52.5q-117 0 -181.5 55t-64.5 170zM219 -16v-39q0 -51 26.5 -76t84.5 -25q57 0 79.5 22.5 t22.5 70.5q0 49 -20.5 69.5t-77.5 20.5t-115 -43z" />
<glyph unicode="&#x2087;" horiz-adv-x="591" d="M68 195v120h454v-102l-196 -459h-160l188 441h-286z" />
<glyph unicode="&#x2088;" horiz-adv-x="677" d="M88 -96q0 98 96 139q-80 39 -80 129q0 76 63.5 120t172.5 44t171 -44t62 -120q0 -45 -17 -78t-64 -57q53 -20 75.5 -53t22.5 -80q0 -80 -68.5 -123t-181.5 -43q-115 0 -183.5 43t-68.5 123zM229 -92q0 -76 111 -76q53 0 82 18.5t29 55.5q0 31 -17.5 47t-64.5 29l-60 14 q-43 -14 -61.5 -31.5t-18.5 -56.5zM242 168q0 -31 14 -48.5t49 -25.5l55 -12q46 14 61 31.5t15 54.5q0 72 -96 72q-98 0 -98 -72z" />
<glyph unicode="&#x2089;" horiz-adv-x="657" d="M88 137q0 94 58.5 146.5t177.5 52.5q246 0 245 -225v-129q0 -113 -71.5 -178.5t-196.5 -65.5q-95 0 -156 20v115q49 -20 148 -20q70 0 107.5 28.5t37.5 79.5v25q-61 -47 -141 -47q-111 0 -160 48t-49 150zM225 135q0 -49 20.5 -68.5t78.5 -19.5q59 0 114 41v39 q0 53 -26.5 76.5t-83.5 23.5t-80 -22.5t-23 -69.5z" />
<glyph unicode="&#x208d;" horiz-adv-x="450" d="M88 33q0 92 29.5 183t85.5 149h157q-66 -66 -96.5 -152t-30.5 -180q0 -96 31 -182.5t96 -149.5h-157q-56 57 -85.5 147.5t-29.5 184.5z" />
<glyph unicode="&#x208e;" horiz-adv-x="450" d="M88 -299q66 63 97.5 149.5t31.5 182.5q0 94 -31.5 180t-97.5 152h160q53 -57 82.5 -148.5t29.5 -183.5q0 -94 -29.5 -184.5t-82.5 -147.5h-160z" />
<glyph unicode="&#x20a1;" horiz-adv-x="1173" d="M88 633q0 563 504 618l31 123h153l-31 -117q43 -2 111 -10l33 127h151l-39 -155q27 -6 46.5 -13.5t33.5 -11.5v-195q-53 20 -127 39l-200 -788q176 4 329 63v-196q-176 -55 -374 -56h-4l-31 -124h-152l35 135q-70 10 -106 22l-41 -157h-152l55 219q-225 141 -225 477z M313 633q0 -154 60 -244l166 651q-119 -37 -172.5 -137t-53.5 -270zM500 287q51 -20 104 -29l205 805q-57 4 -86 4h-25z" />
<glyph unicode="&#x20a4;" horiz-adv-x="1019" d="M88 0v172h51q57 0 86 35t29 98v66h-139v164h139v112h-139v164h139v190q0 156 99.5 247t258.5 91q143 0 240 -43v-159q-27 14 -76 22t-96 8q-104 0 -154.5 -42t-50.5 -136v-178h373l-6 -164h-367v-112h373l-6 -164h-367q0 -84 -8 -127t-43 -72h506v-172h-842z" />
<glyph unicode="&#x20a6;" horiz-adv-x="1355" d="M88 442v158h119v121h-119v156h119v442h196l240 -442h283v442h223v-442h117v-156h-117v-121h117v-158h-117v-442h-199l-239 442h-281v-442h-223v442h-119zM430 600h195l-66 121h-129v-121zM430 877h45l-45 84v-84zM727 721l66 -121h133v121h-199zM877 442l49 -88v88h-49z " />
<glyph unicode="&#x20a7;" horiz-adv-x="2457" d="M129 0v1319h399q217 0 329 -121t112 -319q0 -199 -121 -318t-328 -119h-168v-442h-223zM352 621h133q129 0 199 68.5t70 189.5q0 127 -65.5 194.5t-192.5 67.5h-144v-520zM950 512v168h123v240l221 51v-291h258l-6 -168h-252v-215q0 -158 166 -158q55 0 117 21v-148 q-80 -33 -197 -32q-151 0 -229 80.5t-78 228.5v223h-123zM1597 713q0 137 97.5 207.5t306.5 70.5q162 0 291 -43v-182q-55 23 -124 35t-130 12q-113 0 -165 -21.5t-52 -74.5q0 -47 38.5 -70.5t155.5 -60.5q10 -2 20.5 -6.5t24.5 -8.5q119 -37 184.5 -74.5t95.5 -92 t30 -140.5q0 -285 -408 -284q-98 0 -191.5 13t-152.5 36v184q70 -25 152.5 -39t160.5 -14q119 0 166 21.5t47 80.5q0 37 -21.5 59.5t-58 38t-122.5 43.5l-62 21q-147 49 -215 109.5t-68 179.5z" />
<glyph unicode="&#x20ab;" horiz-adv-x="1214" d="M88 481q0 254 122 382t331 128q176 0 299 -84v189h-320v159h320v125h223v-125h113v-159h-113v-1096h-191l-14 96q-68 -61 -145.5 -88.5t-182.5 -27.5q-206 0 -324 123.5t-118 377.5zM193 -104h884v-170h-884v170zM313 479q0 -172 66.5 -252t210.5 -80q150 1 250 103v485 q-96 86 -242 86q-143 0 -214 -82t-71 -260z" />
<glyph unicode="&#x20ac;" horiz-adv-x="1204" d="M68 401v138h125q-4 57 -5 92q0 61 2 92h-122v137h137q39 231 177 355t400 124q109 0 183.5 -15t169.5 -48v-193q-86 37 -161 51.5t-175 14.5q-172 0 -257 -71.5t-114 -217.5h446v-137h-460q-2 -31 -2 -92q0 -63 2 -92h460v-138h-438q33 -121 121 -177t248 -56 q96 0 172 13.5t160 45.5v-192q-96 -29 -170 -42t-183 -13q-481 -1 -573 421h-143z" />
<glyph unicode="&#x20b1;" horiz-adv-x="1261" d="M53 690v148h72v86h-72v147h72v248h543q158 0 260 -65.5t147 -182.5h115v-147h-84q2 -14 2 -45q0 -29 -2 -41h84v-148h-117q-47 -117 -154.5 -181.5t-259.5 -64.5h-311v-444h-223v690h-72zM342 614h281q133 0 202 76h-483v-76zM342 838h545q4 25 4 41l-2 45h-547v-86z M342 1071h487q-66 76 -196 76h-291v-76z" />
<glyph unicode="&#x20b2;" horiz-adv-x="1312" d="M88 633q0 301 135 483t404 215v174h168v-166q188 -6 346 -59v-193q-160 55 -346 62v-426h430v-635q-154 -98 -430 -106v-228h-168v232q-264 31 -401.5 199.5t-137.5 447.5zM313 633q0 -395 314 -455v957q-166 -35 -240 -159t-74 -343zM795 168q130 6 239 47v363h-239 v-410z" />
<glyph unicode="&#x20b5;" horiz-adv-x="1222" d="M88 639q0 301 134 481t405 211v174h168v-168q180 -6 338 -61v-195q-162 61 -338 68v-981q186 4 340 63v-196q-162 -49 -340 -55v-226h-168v234q-264 33 -401.5 202.5t-137.5 448.5zM313 639q0 -393 314 -459v957q-166 -35 -240 -159t-74 -339z" />
<glyph unicode="&#x20b9;" horiz-adv-x="923" d="M88 492v143h109q135 0 211.5 50t83.5 171h-402v143h397q-18 88 -86.5 132.5t-175.5 44.5h-137v143h748v-143h-236q86 -57 109 -177h127v-143h-125q-14 -258 -303 -319q51 -31 73.5 -59.5t48.5 -90.5l164 -387h-229l-158 369q-31 70 -75 96.5t-144 26.5z" />
<glyph unicode="&#x20ba;" horiz-adv-x="1187" d="M88 551v133l176 57v144l-176 -58v136l176 57v299h213v-229l373 122v-133l-373 -123v-145l373 125v-133l-373 -123v-518q207 6 307.5 110.5t100.5 307.5v88h215v-80q0 -289 -169 -438.5t-491 -149.5h-176v608z" />
<glyph unicode="&#x20bd;" horiz-adv-x="1312" d="M88 184v176h121v127h-121v177h121v655h571q221 0 332 -109.5t111 -308.5q0 -195 -124 -304.5t-333 -109.5h-336v-127h258v-176h-258v-184h-221v184h-121zM430 664h301q268 0 268 229q0 127 -64.5 188.5t-193.5 61.5h-311v-479z" />
<glyph unicode="&#x210a;" horiz-adv-x="1193" d="M88 465q0 164 57.5 282.5t157.5 181t229 62.5q104 0 181.5 -28.5t144.5 -88.5l14 97h191v-928q0 -184 -133 -293.5t-385 -109.5q-56 0 -135.5 6t-118.5 14v178q41 -12 104.5 -19t112.5 -7q332 0 332 196v74q-121 -82 -301 -82q-451 0 -451 465zM313 467q0 -119 31 -183.5 t91.5 -90t160.5 -25.5q146 0 244 86v465q-100 102 -248 102q-135 0 -207 -92t-72 -262z" />
<glyph unicode="&#x2113;" horiz-adv-x="831" d="M39 575v173q88 20 154 55v377q0 176 72.5 266t228.5 90q135 0 203.5 -89t68.5 -230q0 -184 -94 -305t-262 -216v-411q0 -72 22.5 -110t75.5 -38q61 0 84.5 36t23.5 116h162q0 -145 -59.5 -227t-224.5 -82q-154 0 -227.5 87t-73.5 238v320q-88 -35 -154 -50zM381 881 q111 71 160 145t49 174q0 164 -103 164q-59 0 -82.5 -42t-23.5 -132v-309z" />
<glyph unicode="&#x2117;" horiz-adv-x="1538" d="M88 659q0 184 91 341t248 248t341 91t341 -91t248 -247.5t91 -341.5q0 -184 -91 -340.5t-248 -247.5t-341 -91t-341 91t-248 247.5t-91 340.5zM236 659q0 -156 69.5 -279.5t190 -193t272.5 -69.5t274.5 69.5t192.5 193.5t70 279q0 154 -70 277t-192.5 193.5t-274.5 70.5 t-272.5 -70.5t-190 -193.5t-69.5 -277zM496 236v841h395q133 0 205.5 -73.5t72.5 -194.5q0 -123 -75.5 -203t-204.5 -80h-252v-290h-141zM637 647h180q111 0 162 33t51 129q0 82 -40 114.5t-124 32.5h-229v-309z" />
<glyph unicode="&#x2120;" horiz-adv-x="1337" d="M119 1171q0 168 241 168q102 0 181 -24v-113q-80 27 -150 27q-63 0 -95 -13.5t-32 -44.5q0 -27 26.5 -43t102.5 -41q90 -29 138.5 -67.5t48.5 -116.5q0 -88 -69 -127t-173 -39q-129 0 -205 27v115q80 -33 184 -33q57 0 88 12t31 45q0 31 -23.5 45.5t-101.5 40.5 q-106 39 -149 77t-43 105zM631 741v578h135l182 -342l180 342h136v-578h-144v349l-141 -304h-59l-148 304v-349h-141z" />
<glyph unicode="&#x2122;" horiz-adv-x="1390" d="M88 1186v133h530v-133h-190v-445h-145v445h-195zM668 741v578h135l182 -342l180 342h135v-578h-143v349l-141 -304h-60l-147 304v-349h-141z" />
<glyph unicode="&#x2126;" horiz-adv-x="1564" d="M88 745q0 199 83 352.5t239.5 239.5t371.5 86q213 0 370 -86t240 -239.5t83 -352.5q0 -195 -81 -341t-227 -236h293v-168h-563v172q352 190 352 565q0 147 -57 259t-162.5 174.5t-247.5 62.5q-141 0 -246.5 -62.5t-164 -175t-58.5 -258.5q0 -373 353 -565v-172h-564v168 h295q-145 92 -227 238.5t-82 338.5z" />
<glyph unicode="&#x212e;" horiz-adv-x="1589" d="M88 672q0 219 96.5 377.5t258 239.5t352.5 81q186 0 348 -85t259 -236.5t97 -341.5v-35h-1120v-455q57 -76 177 -125t257 -49q188 0 304 54.5t220 193.5h82q-111 -176 -254 -247t-352 -71q-201 0 -366.5 92.5t-262 252t-96.5 354.5zM379 741h833v414q-63 66 -172.5 107 t-244.5 41q-260 0 -416 -146v-416z" />
<glyph unicode="&#x2153;" horiz-adv-x="1353" d="M88 1159v121l301 59v-581h-153v432zM193 0l698 1319h209l-699 -1319h-208zM791 8v111q72 -27 149 -27q74 0 104.5 15.5t30.5 54.5t-29.5 55t-91.5 16h-80l9 101h65q59 0 87 17.5t28 56.5q0 33 -29.5 47t-91.5 14q-66 0 -141 -27v111q29 10 79 18.5t101 8.5 q127 0 185.5 -43t58.5 -119q0 -100 -84 -135q49 -12 72.5 -45t23.5 -82q0 -174 -260 -174q-47 0 -102.5 8t-83.5 18z" />
<glyph unicode="&#x2154;" horiz-adv-x="1400" d="M88 758v78q27 43 59.5 73.5t96.5 83.5q74 61 98.5 90t24.5 62q0 39 -26 55.5t-87 16.5q-72 0 -150 -31v121q39 12 93.5 22t105.5 10q102 0 160.5 -49t58.5 -125q0 -55 -23.5 -94t-82.5 -94l-43 -37q-43 -37 -66 -61h219v-121h-438zM201 0l698 1319h211l-700 -1319h-209z M799 8v111q72 -27 149 -27q74 0 104.5 15.5t30.5 54.5t-29.5 55t-90.5 16h-80l8 101h65q59 0 87 17.5t28 56.5q0 33 -29.5 47t-91.5 14q-66 0 -141 -27v111q29 10 79 18.5t101 8.5q127 0 185.5 -43t58.5 -119q0 -100 -84 -135q49 -12 72.5 -45t23.5 -82q0 -174 -260 -174 q-45 0 -101.5 8t-84.5 18z" />
<glyph unicode="&#x215b;" horiz-adv-x="1361" d="M88 1159v121l301 59v-581h-153v432zM193 0l698 1319h209l-699 -1319h-208zM748 145q0 98 96 140q-80 39 -80 129q0 76 63.5 120t171.5 44q109 0 171.5 -44.5t62.5 -119.5q0 -45 -17.5 -78t-64.5 -57q53 -20 75.5 -53t22.5 -81q0 -80 -68.5 -122.5t-181.5 -42.5 q-114 0 -182.5 43t-68.5 122zM889 150q0 -76 110 -76q54 0 82.5 18.5t28.5 54.5q0 33 -17.5 49.5t-64.5 26.5l-59 15q-43 -14 -61.5 -32t-18.5 -56zM901 410q0 -31 14.5 -48.5t49.5 -25.5l55 -12q45 14 60.5 31.5t15.5 54.5q0 72 -97 71q-98 0 -98 -71z" />
<glyph unicode="&#x215c;" horiz-adv-x="1376" d="M88 768v111q70 -29 150 -29q74 0 104.5 16.5t30.5 55.5q0 72 -121 71h-80l8 99h66q59 0 86.5 18t27.5 57q0 33 -29.5 46.5t-90.5 13.5q-74 0 -142 -27v113q31 10 81 18t100 8q244 0 243 -163q0 -45 -20.5 -81t-63.5 -53q96 -27 97 -127q0 -174 -261 -174q-49 0 -103 7.5 t-83 19.5zM195 0l696 1319h211l-699 -1319h-208zM748 145q0 98 96 140q-80 39 -80 129q0 76 63.5 120t171.5 44q109 0 171.5 -44.5t62.5 -119.5q0 -45 -17.5 -78t-64.5 -57q53 -20 75.5 -53t22.5 -81q0 -80 -68.5 -122.5t-181.5 -42.5q-114 0 -182.5 43t-68.5 122zM889 150 q0 -76 110 -76q54 0 82.5 18.5t28.5 54.5q0 33 -17.5 49.5t-64.5 26.5l-59 15q-43 -14 -61.5 -32t-18.5 -56zM901 410q0 -31 14.5 -48.5t49.5 -25.5l55 -12q45 14 60.5 31.5t15.5 54.5q0 72 -97 71q-98 0 -98 -71z" />
<glyph unicode="&#x215d;" horiz-adv-x="1345" d="M88 766v117q61 -27 148 -27q76 0 109.5 17.5t33.5 60.5q0 45 -26.5 61.5t-96.5 16.5h-166v92l14 215h385l-8 -113h-243l-7 -94h91q209 0 208 -180q0 -88 -67.5 -139.5t-196.5 -51.5q-49 0 -99 6.5t-79 18.5zM182 0l699 1319h211l-701 -1319h-209zM737 145q0 98 97 140 q-80 39 -80 129q0 76 63.5 120t171.5 44q109 0 171.5 -44.5t62.5 -119.5q0 -45 -17.5 -78t-64.5 -57q53 -20 75.5 -53t22.5 -81q0 -80 -68.5 -122.5t-181.5 -42.5q-115 0 -183.5 43t-68.5 122zM879 150q0 -76 110 -76q53 0 82 18.5t29 54.5q0 33 -17.5 49.5t-64.5 26.5 l-60 15q-43 -14 -61 -32t-18 -56zM891 410q0 -31 14.5 -48.5t48.5 -25.5l56 -12q45 14 60 31.5t15 54.5q0 72 -96 71q-98 0 -98 -71z" />
<glyph unicode="&#x215e;" horiz-adv-x="1366" d="M88 1198v121h455v-102l-197 -459h-160l189 440h-287zM195 0l698 1319h211l-701 -1319h-208zM750 145q0 98 96 140q-80 39 -80 129q0 76 63.5 120t171.5 44q109 0 171.5 -44.5t62.5 -119.5q0 -45 -17.5 -78t-64.5 -57q53 -20 75.5 -53t22.5 -81q0 -80 -68.5 -122.5 t-181.5 -42.5q-114 0 -182.5 43t-68.5 122zM891 150q0 -76 110 -76q54 0 82.5 18.5t28.5 54.5q0 33 -17.5 49.5t-64.5 26.5l-59 15q-43 -14 -61.5 -32t-18.5 -56zM903 410q0 -31 14.5 -48.5t49.5 -25.5l55 -12q45 14 60.5 31.5t15.5 54.5q0 72 -97 71q-98 0 -98 -71z" />
<glyph unicode="&#x2190;" horiz-adv-x="1564" d="M88 508v76l492 393l69 -96l-323 -260h1149v-150h-1147l321 -260l-69 -96z" />
<glyph unicode="&#x2191;" horiz-adv-x="1038" d="M88 795l393 491h76l393 -491l-96 -70l-260 324v-1147h-150v1147l-260 -324z" />
<glyph unicode="&#x2192;" horiz-adv-x="1564" d="M88 471v150h1149l-324 260l72 96l490 -393v-76l-490 -393l-72 96l322 260h-1147z" />
<glyph unicode="&#x2193;" horiz-adv-x="1038" d="M88 375l96 69l260 -321v1147h150v-1147l260 321l96 -69l-393 -490h-76z" />
<glyph unicode="&#x2202;" horiz-adv-x="1275" d="M90 313q0 51 12 107q47 211 179.5 317.5t361.5 106.5q82 0 169 -28t146 -77l9 45q16 86 16 144q0 119 -62.5 179t-209.5 60q-199 0 -340 -61l35 174q150 59 342 59q211 0 323.5 -115.5t112.5 -314.5q0 -78 -19 -168l-51 -252q-57 -266 -198.5 -387.5t-403.5 -121.5 q-207 0 -314.5 91t-107.5 242zM295 319q0 -90 58.5 -134t185.5 -44q293 0 356 301l29 144q-109 96 -275 96q-156 0 -235.5 -66.5t-108.5 -203.5q-10 -41 -10 -93z" />
<glyph unicode="&#x220f;" horiz-adv-x="1292" d="M129 -264v1710h1032v-1710h-223v1538h-586v-1538h-223z" />
<glyph unicode="&#x2211;" horiz-adv-x="1095" d="M88 -113l492 650l-492 647v135h920v-174h-637l458 -608l-458 -611h637v-172h-920v133z" />
<glyph unicode="&#x2212;" horiz-adv-x="958" d="M88 465v174h782v-174h-782z" />
<glyph unicode="&#x2215;" horiz-adv-x="1050" d="M88 0l649 1356h224l-646 -1356h-227z" />
<glyph unicode="&#x2219;" horiz-adv-x="368" d="M88 530v177h191v-177h-191z" />
<glyph unicode="&#x221a;" horiz-adv-x="1413" d="M88 745v175h375l223 -660l418 1202h219l-514 -1462h-229l-273 745h-219z" />
<glyph unicode="&#x221e;" horiz-adv-x="1435" d="M88 578q0 150 90 229.5t238 79.5q96 0 175 -48t126 -128q49 82 128 129t175 47q147 0 236.5 -79t89.5 -230q0 -152 -89.5 -231t-236.5 -79q-98 0 -176 47t-127 129q-47 -82 -126 -129t-175 -47q-148 0 -238 80t-90 230zM252 578q0 -76 44 -118t130 -42q143 0 211 160 q-37 82 -87 120.5t-124 38.5q-86 0 -130 -42t-44 -117zM797 573q43 -80 92 -117.5t123 -37.5q84 0 128 42t44 118t-44 117.5t-128 41.5q-76 0 -126 -40t-89 -124z" />
<glyph unicode="&#x222b;" horiz-adv-x="901" d="M41 -59q63 -23 129 -23q94 0 131 35t37 119v1018q0 147 83 235t238 88q104 0 199 -35v-159q-63 23 -129 22q-94 0 -131 -33.5t-37 -120.5v-1017q0 -147 -83 -234.5t-238 -87.5q-113 0 -199 35v158z" />
<glyph unicode="&#x2248;" horiz-adv-x="968" d="M88 281v172q66 72 205 71q55 0 100 -14t107 -43q63 -27 100 -39t84 -12q63 0 105 17.5t90 70.5v-174q-59 -70 -203 -70q-51 0 -92 13.5t-99 39.5q-55 27 -97 41.5t-95 14.5q-68 0 -113 -17.5t-92 -70.5zM88 602v172q66 72 205 72q55 0 100 -14.5t107 -43.5 q63 -27 100 -39t84 -12q63 0 105 17.5t90 70.5v-176q-61 -70 -203 -69q-51 0 -92 13t-99 40q-55 27 -97 41t-95 14q-68 0 -113 -17.5t-92 -68.5z" />
<glyph unicode="&#x2260;" horiz-adv-x="968" d="M88 315v160h262l56 156h-318v157h375l57 160h189l-58 -160h228v-157h-285l-55 -156h340v-160h-398l-59 -170h-189l60 170h-205z" />
<glyph unicode="&#x2264;" horiz-adv-x="1114" d="M88 0v160h938v-160h-938zM88 639v154l938 413v-188l-702 -303l702 -303v-189z" />
<glyph unicode="&#x2265;" horiz-adv-x="1114" d="M88 0v160h938v-160h-938zM88 223v189l703 303l-703 303v188l938 -413v-154z" />
<glyph unicode="&#x25a0;" horiz-adv-x="1169" d="M88 246v991h991v-991h-991z" />
<glyph unicode="&#x25b2;" horiz-adv-x="1376" d="M88 0l600 1198l598 -1198h-1198z" />
<glyph unicode="&#x25b3;" horiz-adv-x="1376" d="M102 0l600 1198l598 -1198h-1198zM340 145h721l-359 723z" />
<glyph unicode="&#x25b6;" horiz-adv-x="1376" d="M88 0v1198l1198 -598z" />
<glyph unicode="&#x25b7;" horiz-adv-x="1376" d="M102 -2v1198l1198 -600zM248 238l723 358l-723 362v-720z" />
<glyph unicode="&#x25bc;" horiz-adv-x="1376" d="M88 1198h1198l-598 -1198z" />
<glyph unicode="&#x25bd;" horiz-adv-x="1376" d="M102 1198h1198l-598 -1198zM340 1053l362 -723l359 723h-721z" />
<glyph unicode="&#x25c0;" horiz-adv-x="1376" d="M88 600l1198 598v-1198z" />
<glyph unicode="&#x25c1;" horiz-adv-x="1376" d="M102 596l1198 600v-1198zM432 596l723 -358v720z" />
<glyph unicode="&#x25c6;" horiz-adv-x="1269" d="M88 678l545 547l547 -547l-547 -545z" />
<glyph unicode="&#x25ca;" horiz-adv-x="1232" d="M88 657l453 662h149l453 -662l-453 -657h-149zM313 657l303 -452l304 452l-306 451z" />
<glyph unicode="&#x25fc;" horiz-adv-x="972" d="M0 0v973h973v-973h-973z" />
<glyph unicode="&#xf6d7;" d="M-309 1145v172h184v-172h-184zM-98 1346l125 260h170l-138 -260h-157zM98 1145v172h183v-172h-183z" />
<glyph unicode="&#xf6d8;" d="M-309 1145v172h184v-172h-184zM-225 1606h172l123 -260h-158zM98 1145v172h183v-172h-183z" />
<glyph unicode="&#xf8ff;" horiz-adv-x="1019" d="M88 0v1462h842v-1462h-842zM193 104h632v1254h-632v-1254z" />
<glyph horiz-adv-x="1255" d="M88 709v229q92 82 228.5 135t301.5 53q252 0 379 -104t127 -336v-911h-223v917q0 141 -65.5 197.5t-225.5 56.5q-100 0 -189 -28.5t-140 -75.5v-37l233 -60v-147q-80 -20 -112.5 -65.5t-32.5 -135.5v-133q0 -47 20.5 -67.5t65.5 -20.5h112v-176h-221q-92 0 -145.5 57.5 t-53.5 149.5v192q0 205 162 254z" />
<glyph horiz-adv-x="1325" d="M98 0v176h76q43 0 60.5 19.5t17.5 66.5v137q0 98 30.5 161t114.5 93l-225 56v229q90 80 226.5 134t301.5 54q244 0 369 -106.5t125 -333.5v-911h-221v917q0 139 -63.5 196.5t-215.5 57.5q-102 0 -191 -28.5t-138 -75.5v-37l239 -60v-147q-76 -23 -101.5 -64.5 t-25.5 -136.5v-147q0 -250 -241 -250h-138z" />
<glyph horiz-adv-x="1325" d="M98 0v176h76q43 0 60.5 19.5t17.5 66.5v137q0 98 30.5 161t114.5 93l-225 56v229q90 80 226.5 134t301.5 54q244 0 369 -106.5t125 -333.5v-940h-221q-125 68 -303 68q-84 0 -170 -19.5t-156 -54.5v178q158 74 348 74q84 0 158 -15.5t123 -44.5v760q0 139 -63.5 196.5 t-215.5 57.5q-102 0 -191 -28.5t-138 -75.5v-37l239 -60v-147q-76 -23 -101.5 -64.5t-25.5 -136.5v-147q0 -250 -241 -250h-138z" />
<glyph horiz-adv-x="1325" d="M98 0v176h76q43 0 60.5 19.5t17.5 66.5v137q0 98 30.5 161t114.5 93l-225 56v229q90 80 226.5 134t301.5 54q244 0 369 -106.5t125 -333.5v-655q0 -135 -80 -210t-221 -75q-72 0 -134.5 25.5t-94.5 68.5q-51 -92 -187 -92h-198l12 178h145q59 0 93 19.5t57 68.5h145 q18 -47 48 -71.5t81 -24.5q59 0 86 31t27 94v649q0 139 -63.5 196.5t-215.5 57.5q-102 0 -191 -28.5t-138 -75.5v-37l239 -60v-147q-76 -23 -101.5 -64.5t-25.5 -136.5v-147q0 -250 -241 -250h-138z" />
<glyph horiz-adv-x="1984" d="M88 709v229q92 82 226.5 135t297.5 53q242 0 363 -104t121 -336v-264q0 -137 64.5 -200.5t203.5 -63.5t203.5 63.5t64.5 200.5v684h221v-676q0 -223 -124.5 -336.5t-364.5 -113.5t-362.5 112.5t-122.5 337.5v262q0 141 -62.5 197.5t-212.5 56.5q-98 0 -185 -28.5 t-138 -75.5v-37l233 -60v-147q-80 -20 -112.5 -65.5t-32.5 -135.5v-133q0 -47 20.5 -67.5t65.5 -20.5h112v-176h-221q-92 0 -145.5 57.5t-53.5 149.5v192q0 205 162 254z" />
<glyph horiz-adv-x="1236" d="M78 442l10 168h272l170 -454q145 -6 233.5 92t88.5 315q0 145 -38 228t-124 119t-237 36q-188 0 -351 -53v172q193 61 410 61q98 0 197 -20h456l-10 -174h-190q102 -129 102 -369q0 -184 -68.5 -316t-184.5 -199.5t-255 -67.5q-43 0 -94 7t-82 19l-164 436h-141z" />
<glyph horiz-adv-x="1486" d="M72 1106h219l176 -864l188 376v158h158l221 -540l76 421q8 53 8 72q0 55 -26.5 78.5t-83.5 23.5h-82l26 168h90q78 0 113 28t55 97l29 97h199l-33 -125q-23 -84 -59.5 -128t-100.5 -59q76 -39 76 -147q0 -51 -10 -92l-152 -670h-203l-204 467l-222 -467h-202z" />
<glyph d="M-1122 1274v299h182v-143h426l-8 -156h-600z" />
<glyph d="M-315 1694v284h184v-284h-184z" />
<glyph d="M-569 1866v143h272v-160h315l-8 -143h-452v160h-127z" />
<glyph d="M-1135 1462v154h314v-186h336l-9 -156h-481v188h-160z" />
<glyph d="M-713 1868q0 90 48.5 140t129.5 50q98 0 121 -73h2q14 35 48 54t79 19q164 0 164 -157v-91h21q31 0 42 13.5t11 48.5v178h125v-184q0 -76 -43 -119t-121 -43h-154v170q0 41 -12 57.5t-43 16.5q-63 0 -63 -76v-23h-101v23q0 39 -12 57.5t-45 18.5q-35 0 -49.5 -19.5 t-14.5 -62.5q0 -39 19.5 -55.5t58.5 -16.5h49v-106h-63q-86 0 -141.5 45t-55.5 135z" />
<glyph d="M-1217 1466q0 104 47.5 159.5t133.5 55.5q53 0 82.5 -19.5t44.5 -59.5h2q35 80 133 79q90 0 127 -42t37 -119v-131h20q27 0 36 12t9 47v225h129v-237q0 -74 -43 -118t-121 -44h-155v205q0 49 -10.5 67.5t-47.5 18.5t-48 -22.5t-11 -67.5v-29h-106v29q0 45 -11.5 67.5 t-48.5 22.5q-35 0 -49 -24.5t-14 -80.5q0 -51 25.5 -72.5t78.5 -21.5h45v-111h-67q-103 0 -160.5 53.5t-57.5 157.5z" />
<glyph d="M-428 1765v146h113v82h184v-82h117v-146h-117v-71h-184v71h-113z" />
<glyph d="M-496 1694v276h555l-8 -145h-379v-131h-168z" />
<glyph d="M-1051 1274v299h570l-8 -156h-379v-143h-183z" />
<glyph d="M-1174 1503q0 115 72 181.5t203 66.5h450l-10 -131h-420q-72 0 -105.5 -27.5t-33.5 -89.5q0 -109 115 -108q106 0 106 86v43h138v-43q0 -43 22.5 -61.5t71.5 -18.5h80v-129h-95q-53 0 -93 15.5t-56 47.5q-20 -33 -74.5 -50t-114.5 -17q-120 0 -188 61.5t-68 173.5z" />
<glyph d="M-1188 1274l12 156h689v-156h-701z" />
<glyph d="M-1188 1274l10 156h508v169h183v-325h-701z" />
<glyph d="M-1188 1274l10 156h377q-4 20 -4 45q0 63 49 110t133 47q92 0 139.5 -51t47.5 -123q0 -80 -51.5 -132t-143.5 -52h-557zM-700 1456q0 -33 22.5 -55.5t56.5 -22.5q37 0 58.5 22.5t21.5 55.5q0 35 -22.5 58.5t-57.5 23.5q-33 0 -56 -22.5t-23 -59.5z" />
<glyph d="M-1196 1274l10 156h314v169h141v-169h102v169h142v-325h-709z" />
<glyph d="M-475 1446q0 96 66.5 159.5t164.5 63.5q96 0 163 -63.5t67 -159.5q0 -94 -66.5 -157.5t-163.5 -63.5q-98 0 -164.5 63.5t-66.5 157.5zM-342 1446q0 -37 29.5 -65.5t68.5 -28.5t66.5 28.5t27.5 65.5q0 41 -27.5 69.5t-66.5 28.5q-41 0 -69.5 -28.5t-28.5 -69.5zM-315 1817 v284h184v-284h-184z" />
<glyph d="M-569 1976v144h272v-160h315l-8 -143h-452v159h-127zM-475 1446q0 96 66.5 159.5t164.5 63.5q96 0 163 -63.5t67 -159.5q0 -94 -66.5 -157.5t-163.5 -63.5q-98 0 -164.5 63.5t-66.5 157.5zM-342 1446q0 -37 29.5 -65.5t68.5 -28.5t66.5 28.5t27.5 65.5q0 41 -27.5 69.5 t-66.5 28.5q-41 0 -69.5 -28.5t-28.5 -69.5z" />
<glyph d="M-594 1982q0 90 48 140.5t130 50.5q98 0 121 -74h2q14 35 48 54.5t79 19.5q164 0 164 -158v-90h20q31 0 42.5 13.5t11.5 48.5v178h125v-185q0 -76 -43 -118.5t-121 -42.5h-154v170q0 41 -12 57t-43 16q-63 0 -64 -75v-23h-100v23q0 39 -12.5 57t-44.5 18 q-35 0 -49.5 -19.5t-14.5 -62.5q0 -39 19.5 -55t58.5 -16h49v-107h-63q-86 0 -141.5 45t-55.5 135zM-475 1446q0 96 66.5 159.5t164.5 63.5q96 0 163 -63.5t67 -159.5q0 -94 -66.5 -157.5t-163.5 -63.5q-98 0 -164.5 63.5t-66.5 157.5zM-342 1446q0 -37 29.5 -65.5 t68.5 -28.5t66.5 28.5t27.5 65.5q0 41 -27.5 69.5t-66.5 28.5q-41 0 -69.5 -28.5t-28.5 -69.5z" />
<glyph d="M-475 1446q0 96 66.5 159.5t164.5 63.5q96 0 163 -63.5t67 -159.5q0 -94 -66.5 -157.5t-163.5 -63.5q-98 0 -164.5 63.5t-66.5 157.5zM-428 1890v146h113v82h184v-82h117v-146h-117v-71h-184v71h-113zM-342 1446q0 -37 29.5 -65.5t68.5 -28.5t66.5 28.5t27.5 65.5 q0 41 -27.5 69.5t-66.5 28.5q-41 0 -69.5 -28.5t-28.5 -69.5z" />
<glyph d="M-358 -444q0 49 35.5 83.5t84.5 34.5q51 0 86 -33.5t35 -84.5t-34.5 -85t-86.5 -34q-49 0 -84.5 34.5t-35.5 84.5z" />
<glyph d="M-451 -473l11 145h309v-370h-191v225h-129z" />
<glyph d="M-729 -465l10 137h260v-182q0 -66 82 -65q41 0 62.5 16t21.5 49v182h162v-196q0 -84 -63.5 -139.5t-182.5 -55.5q-110 0 -175.5 45t-65.5 117v92h-111z" />
<glyph d="M-780 1274v336h223v-336h-223z" />
<glyph d="M-965 1362v164h131v100h207v-100h135v-164h-135v-88h-207v88h-131z" />
<glyph d="M-942 1446q0 96 67.5 159.5t163.5 63.5q98 0 164 -63.5t66 -159.5q0 -94 -66.5 -157.5t-163.5 -63.5q-96 0 -163.5 63.5t-67.5 157.5zM-807 1446q0 -37 28.5 -65.5t67.5 -28.5t68 28.5t29 65.5q0 41 -29 69.5t-68 28.5t-67.5 -28.5t-28.5 -69.5z" />
<glyph d="M-942 1446q0 96 67.5 159.5t163.5 63.5q98 0 164 -63.5t66 -159.5q0 -94 -66.5 -157.5t-163.5 -63.5q-96 0 -163.5 63.5t-67.5 157.5zM-807 1446q0 -37 28.5 -65.5t67.5 -28.5t68 28.5t29 65.5q0 41 -29 69.5t-68 28.5t-67.5 -28.5t-28.5 -69.5zM-786 1817v284h184v-284 h-184z" />
<glyph d="M-999 1976v144h272v-160h315l-8 -143h-452v159h-127zM-942 1446q0 96 67.5 159.5t163.5 63.5q98 0 164 -63.5t66 -159.5q0 -94 -66.5 -157.5t-163.5 -63.5q-96 0 -163.5 63.5t-67.5 157.5zM-807 1446q0 -37 28.5 -65.5t67.5 -28.5t68 28.5t29 65.5q0 41 -29 69.5 t-68 28.5t-67.5 -28.5t-28.5 -69.5z" />
</font>
</defs>
</svg>
